<?xml version="1.0" encoding="utf-8"?>
<!-- Generator: Adobe Illustrator 16.0.4, SVG Export Plug-In . SVG Version: 6.00 Build 0)  -->
<!DOCTYPE svg PUBLIC "-//W3C//DTD SVG 1.1//EN" "http://www.w3.org/Graphics/SVG/1.1/DTD/svg11.dtd">
<svg version="1.1" id="Trust_Logo_-_Horizontal" xmlns="http://www.w3.org/2000/svg" xmlns:xlink="http://www.w3.org/1999/xlink"
	 x="0px" y="0px" width="239px" height="40px" viewBox="276.5 0 239 40" enable-background="new 276.5 0 239 40"
	 xml:space="preserve">
<g>
	<path fill="#FFFFFF" d="M314.1,33.521c0,2.2-1.8,4-4,4h-27.2c-2.2,0-4-1.8-4-4V6.319c0-2.2,1.8-4,4-4h27.2c2.2,0,4,1.8,4,4V33.521z
		 M310.1,0h-27.2c-3.52,0-6.4,2.88-6.4,6.4v27.2c0,3.52,2.88,6.4,6.4,6.4h27.2c3.52,0,6.4-2.88,6.4-6.4V6.4
		C316.5,2.88,313.62,0,310.1,0z"/>
	<g>
		<g>
			<path id="SVGID_1_" fill="#FFFFFF" d="M300.46,30.72h-7.88c-0.16,0-0.28-0.12-0.28-0.28V17c0-0.2-0.16-0.36-0.359-0.36H284.9
				c-0.16,0-0.28-0.12-0.28-0.279V9.44c0-0.16,0.12-0.28,0.28-0.28h23.2c0.16,0,0.28,0.12,0.28,0.28v6.96
				c0,0.16-0.12,0.28-0.28,0.28h-7.04c-0.16,0-0.28,0.12-0.28,0.28v13.48C300.74,30.6,300.62,30.72,300.46,30.72z"/>
		</g>
		<path fill="#FFFFFF" d="M300.46,30.72h-7.88c-0.16,0-0.28-0.12-0.28-0.28V17c0-0.2-0.16-0.36-0.359-0.36H284.9
			c-0.16,0-0.28-0.12-0.28-0.279V9.44c0-0.16,0.12-0.28,0.28-0.28h23.2c0.16,0,0.28,0.12,0.28,0.28v6.96c0,0.16-0.12,0.28-0.28,0.28
			h-7.04c-0.16,0-0.28,0.12-0.28,0.28v13.48C300.74,30.6,300.62,30.72,300.46,30.72z"/>
		<g>
			<path fill="#FFFFFF" d="M342.14,14.8h-5v13.6h-3.52V14.8h-4.96v-2.88h8.48h5V14.8z"/>
			<path fill="#FFFFFF" d="M353.86,17.08c0.72,0.76,1.08,1.96,1.08,3.64v7.68h-3.4v-7.68c0-0.72-0.16-1.24-0.48-1.56
				c-0.32-0.32-0.8-0.44-1.44-0.44c-0.92,0-1.56,0.32-1.96,1v8.68h-3.4v-16.48h3.4v5.521c0.4-0.48,0.88-0.88,1.44-1.16
				c0.56-0.28,1.16-0.4,1.8-0.4C352.18,15.919,353.14,16.32,353.86,17.08z"/>
			<path fill="#FFFFFF" d="M367.94,23.4h-7.72c0.12,0.76,0.44,1.36,0.96,1.8c0.52,0.439,1.16,0.68,1.96,0.68
				c0.6,0,1.12-0.12,1.64-0.32c0.52-0.24,0.92-0.56,1.28-1l1.64,1.88c-0.44,0.6-1.04,1.12-1.88,1.56s-1.8,0.64-2.88,0.64
				c-1.24,0-2.32-0.279-3.28-0.8c-0.92-0.52-1.64-1.24-2.12-2.16c-0.48-0.919-0.76-1.919-0.76-3v-0.44c0-1.24,0.24-2.32,0.68-3.28
				c0.44-0.96,1.121-1.72,2-2.24c0.88-0.52,1.88-0.801,3.08-0.801c1.16,0,2.12,0.241,2.96,0.72c0.8,0.48,1.44,1.2,1.84,2.08
				c0.44,0.921,0.64,1.961,0.64,3.201V23.4H367.94z M364.58,20.84c0-0.68-0.2-1.199-0.56-1.56c-0.36-0.4-0.88-0.56-1.561-0.56
				c-0.64,0-1.16,0.201-1.52,0.641c-0.36,0.439-0.6,1.04-0.72,1.76h4.36V20.84L364.58,20.84z"/>
		</g>
		<g>
			<path fill="#FFFFFF" d="M388.02,14.8h-5v13.6h-3.52V14.8h-4.96v-2.88h8.48h5V14.8L388.02,14.8z"/>
			<path fill="#FFFFFF" d="M396.18,15.96c0.2,0.04,0.361,0.04,0.48,0.08l-0.039,3.279c-0.441-0.04-0.841-0.08-1.201-0.08
				c-1.24,0-2,0.401-2.4,1.2v7.96h-3.4V16.16h3.201l0.119,1.479c0.32-0.56,0.68-0.96,1.16-1.279c0.48-0.281,1-0.441,1.561-0.441
				C395.821,15.919,395.981,15.96,396.18,15.96z"/>
			<path fill="#FFFFFF" d="M409.461,16.16V28.4h-3.201l-0.08-1.28c-0.4,0.48-0.84,0.84-1.4,1.12c-0.559,0.24-1.199,0.4-1.92,0.4
				c-1.279,0-2.279-0.359-3-1.12c-0.719-0.72-1.08-1.88-1.08-3.439v-7.92h3.4v7.92c0,0.599,0.16,1.04,0.439,1.319
				c0.281,0.28,0.721,0.44,1.24,0.44c1.041,0,1.762-0.359,2.201-1.08v-8.6H409.461z"/>
			<path fill="#FFFFFF" d="M411.74,19.76c0-0.68,0.199-1.32,0.6-1.92s0.961-1.04,1.721-1.4c0.76-0.36,1.6-0.521,2.6-0.521
				c1.039,0,1.961,0.16,2.76,0.521c0.801,0.32,1.4,0.8,1.801,1.4c0.439,0.6,0.639,1.28,0.639,2.04h-3.398
				c0-0.48-0.16-0.88-0.441-1.16c-0.279-0.28-0.76-0.399-1.359-0.399c-0.48,0-0.879,0.12-1.201,0.359
				c-0.279,0.241-0.439,0.521-0.439,0.92c0,0.36,0.16,0.64,0.52,0.84c0.32,0.2,0.92,0.4,1.721,0.56c0.961,0.2,1.801,0.4,2.441,0.72
				c0.678,0.28,1.199,0.68,1.6,1.2c0.398,0.52,0.6,1.16,0.6,1.96c0,0.72-0.201,1.359-0.641,1.919c-0.439,0.561-1.039,1-1.799,1.32
				c-0.801,0.32-1.721,0.48-2.762,0.48c-1.119,0-2.039-0.2-2.84-0.6c-0.799-0.4-1.4-0.92-1.84-1.56c-0.4-0.64-0.641-1.28-0.641-1.96
				h3.242c0.039,0.6,0.238,1.04,0.639,1.32c0.4,0.28,0.92,0.44,1.52,0.44c0.602,0,1.041-0.12,1.32-0.319
				c0.32-0.241,0.48-0.521,0.48-0.88c0-0.24-0.08-0.44-0.199-0.6c-0.121-0.16-0.4-0.32-0.762-0.44c-0.359-0.16-0.879-0.28-1.52-0.44
				C413.18,22.88,411.74,21.64,411.74,19.76z"/>
			<path fill="#FFFFFF" d="M430.539,25.72v2.56c-0.6,0.199-1.238,0.32-2,0.32c-2.398,0-3.6-1.24-3.6-3.68V18.64h-1.721V16.16h1.721
				V13.12h3.4v3.041h2.041v2.479h-2.041v5.92c0,0.48,0.08,0.8,0.281,1c0.199,0.16,0.52,0.28,0.959,0.28
				C429.98,25.8,430.301,25.8,430.539,25.72z"/>
		</g>
		<g>
			<path fill="#FFFFFF" d="M449.541,12.64c0.959,0.48,1.68,1.121,2.158,1.96c0.521,0.84,0.762,1.76,0.762,2.84
				c0,1.041-0.24,1.96-0.762,2.76c-0.479,0.8-1.199,1.4-2.158,1.84c-0.961,0.439-2.041,0.64-3.32,0.64h-2.92v5.72h-3.561v-16.48
				h6.48C447.5,11.919,448.619,12.16,449.541,12.64z M448.221,19.16c0.439-0.44,0.639-1,0.639-1.72c0-0.48-0.08-0.92-0.279-1.32
				c-0.199-0.4-0.48-0.72-0.881-0.96c-0.398-0.24-0.879-0.36-1.479-0.36h-2.92v5h2.92C447.141,19.8,447.779,19.6,448.221,19.16z"/>
			<path fill="#FFFFFF" d="M460.939,15.96c0.201,0.04,0.361,0.04,0.48,0.08l-0.039,3.32c-0.441-0.081-0.842-0.081-1.201-0.081
				c-1.24,0-2,0.4-2.4,1.2v7.92h-3.398V16.16h3.199l0.119,1.479c0.32-0.56,0.682-0.96,1.16-1.279
				c0.48-0.281,1.002-0.441,1.561-0.441C460.539,15.919,460.74,15.96,460.939,15.96z"/>
			<path fill="#FFFFFF" d="M463.301,18.96c0.439-0.96,1.119-1.68,2-2.2c0.879-0.52,1.92-0.8,3.119-0.8c1.24,0,2.279,0.281,3.16,0.8
				c0.881,0.52,1.561,1.28,2,2.2c0.439,0.959,0.68,2,0.68,3.2v0.24c0,1.2-0.24,2.28-0.68,3.2s-1.119,1.68-2,2.2
				c-0.881,0.521-1.92,0.8-3.121,0.8c-1.238,0-2.279-0.28-3.158-0.8c-0.881-0.52-1.561-1.279-2-2.2c-0.441-0.92-0.68-2-0.68-3.2
				v-0.24C462.621,20.96,462.82,19.88,463.301,18.96z M466.621,24.92c0.398,0.64,1,0.959,1.838,0.959
				c0.842,0,1.441-0.32,1.842-0.959c0.398-0.641,0.559-1.48,0.559-2.521v-0.24c0-1.04-0.199-1.88-0.559-2.52
				c-0.4-0.641-1-0.961-1.842-0.961c-0.838,0-1.439,0.32-1.838,0.961c-0.4,0.639-0.561,1.479-0.561,2.52v0.24
				C466.02,23.44,466.221,24.28,466.621,24.92z"/>
			<path fill="#FFFFFF" d="M480.02,28.16c0,1.4-0.359,2.479-1.119,3.24s-1.801,1.121-3.16,1.121c-0.6,0-1.16-0.081-1.68-0.2V29.6
				c0.359,0.081,0.719,0.12,1.039,0.12c1,0,1.521-0.52,1.521-1.56v-12h3.439v12H480.02z M479.621,11.919
				c0.359,0.32,0.52,0.76,0.52,1.281c0,0.52-0.16,0.92-0.52,1.28c-0.361,0.319-0.801,0.479-1.361,0.479
				c-0.559,0-1.039-0.16-1.4-0.479c-0.359-0.321-0.52-0.761-0.52-1.28c0-0.521,0.16-0.92,0.52-1.281
				c0.361-0.319,0.801-0.479,1.4-0.479C478.779,11.4,479.26,11.6,479.621,11.919z"/>
			<path fill="#FFFFFF" d="M493.42,23.4h-7.719c0.119,0.76,0.439,1.36,0.959,1.8c0.52,0.439,1.16,0.68,1.961,0.68
				c0.6,0,1.119-0.12,1.639-0.32c0.521-0.24,0.92-0.56,1.279-1l1.641,1.88c-0.439,0.6-1.039,1.12-1.879,1.56s-1.801,0.64-2.881,0.64
				c-1.24,0-2.32-0.279-3.279-0.8c-0.92-0.52-1.641-1.24-2.119-2.16c-0.482-0.919-0.762-1.919-0.762-3v-0.44
				c0-1.24,0.24-2.32,0.682-3.28c0.439-0.96,1.119-1.72,1.998-2.24c0.881-0.52,1.881-0.801,3.08-0.801
				c1.16,0,2.121,0.241,2.961,0.72c0.799,0.48,1.439,1.2,1.84,2.08c0.439,0.921,0.641,1.961,0.641,3.201V23.4H493.42z M490.1,20.84
				c0-0.68-0.199-1.199-0.559-1.56c-0.361-0.4-0.881-0.56-1.561-0.56c-0.641,0-1.16,0.201-1.521,0.641
				c-0.359,0.439-0.6,1.04-0.719,1.76h4.359V20.84z"/>
			<path fill="#FFFFFF" d="M505.9,24.12c0,0.88-0.24,1.641-0.68,2.32c-0.439,0.68-1.08,1.2-1.84,1.6
				c-0.76,0.4-1.641,0.56-2.561,0.56c-1.24,0-2.279-0.28-3.119-0.8c-0.842-0.52-1.48-1.279-1.92-2.2c-0.441-0.92-0.641-2-0.641-3.2
				v-0.28c0-1.199,0.199-2.24,0.641-3.199c0.439-0.92,1.078-1.681,1.92-2.2c0.84-0.52,1.879-0.801,3.119-0.801
				c1,0,1.881,0.201,2.68,0.6c0.76,0.401,1.361,0.96,1.801,1.681c0.439,0.72,0.641,1.6,0.641,2.56h-3.201
				c0-0.6-0.199-1.12-0.52-1.48c-0.361-0.4-0.84-0.6-1.441-0.6c-0.838,0-1.398,0.32-1.719,0.92c-0.32,0.64-0.48,1.44-0.48,2.52v0.28
				c0,1.081,0.16,1.92,0.439,2.521c0.32,0.599,0.881,0.919,1.721,0.919c0.6,0,1.039-0.16,1.4-0.479c0.359-0.32,0.52-0.76,0.561-1.28
				h3.199V24.12z"/>
			<path fill="#FFFFFF" d="M514.621,25.72v2.56c-0.602,0.199-1.24,0.32-2,0.32c-2.4,0-3.602-1.24-3.602-3.68V18.64h-1.719V16.16
				h1.719V13.12h3.4v3.041h2.041v2.479h-2.041v5.92c0,0.48,0.08,0.8,0.279,1c0.201,0.16,0.521,0.28,0.961,0.28
				C514.061,25.8,514.381,25.8,514.621,25.72z"/>
		</g>
	</g>
</g>
</svg>
