<?xml version="1.0" encoding="utf-8"?>
<!-- Generator: Adobe Illustrator 16.0.4, SVG Export Plug-In . SVG Version: 6.00 Build 0)  -->
<!DOCTYPE svg PUBLIC "-//W3C//DTD SVG 1.1//EN" "http://www.w3.org/Graphics/SVG/1.1/DTD/svg11.dtd">
<svg version="1.1" id="Layer_1" xmlns="http://www.w3.org/2000/svg" xmlns:xlink="http://www.w3.org/1999/xlink" x="0px" y="0px"
	 width="50px" height="30px" viewBox="0 0 50 30" enable-background="new 0 0 50 30" xml:space="preserve">
<g>
	<g>
		<path fill-rule="evenodd" clip-rule="evenodd" fill="#CF1F38" d="M17.297,13.054c-0.361,0.373-0.825,0.605-1.114,1.057
			c-0.406,0.626-0.426,1.384-0.746,2.11c-0.312,0.711-1.19,1.999-1.798,2.421c-0.566,0.391-1.342,0.699-2.047,0.93
			c-1.109,0.361-2.729,0.05-3.533-0.248c-0.23-0.041-0.455-0.083-0.684-0.125c-1.263-0.521-2.631-2.149-3.163-3.413
			c-0.322-0.765-0.429-1.641-0.62-2.483c-0.132-0.578-0.109-1.786,0-2.296c0.154-0.731-0.045-1.4,0.123-2.049
			c0.67-2.567,1.596-4.415,3.847-5.402C7.825,3.44,8.125,3.21,8.43,3.121c0.98-0.284,3.266-0.3,4.154,0.062
			c0.57,0.232,1.51,0.705,1.861,1.179c0.176,0.238,0.234,0.536,0.434,0.745v0.437c-1.186,1.067-2.108,1-1.923,3.351
			c0.342,0.339,0.563,0.808,1.056,0.994c2.914,1.109,5.478-1.559,4.711-4.657c-0.741-3.007-3.125-4.35-6.139-5.09
			C11.488-0.125,9.612,0.063,8.368,0.08C8.195,0.19,7.907,0.133,7.684,0.204C7.206,0.358,6.51,0.483,6.01,0.701
			C4.215,1.479,2.657,2.777,1.669,4.362c-1.429,2.299-2.208,6.932-1.24,10.428c0.062,0.396,0.123,0.788,0.186,1.182
			c0.915,2.455,2.497,4.689,4.839,5.71c0.602,0.264,1.205,0.462,1.857,0.621c4.76,1.157,9.016-1.039,10.731-3.787
			C18.88,17.176,20.589,12.768,17.297,13.054z M37.579,22.179c0.558,0.124,1.114,0.248,1.675,0.372
			c0.681,0.152,1.399-0.122,1.859-0.248c1.364-0.377,2.266-1.114,2.729-2.358c0.187-0.504,0.124-1.211,0.124-1.862
			c0-1.258-0.005-2.627-0.062-3.787c-0.293-0.317-0.965-1.366-1.737-0.745c-1.632,0.596-0.108,4.407-1.363,5.648
			c-0.272,0.271-0.775,0.626-1.364,0.373c-0.234-0.099-0.411-0.358-0.62-0.496c-1.034-4.591,0.93-13.055-1.24-16.388
			c-1.522-2.336-4.372-2.64-8.312-2.607c-0.149,0.092-0.396,0.01-0.62,0.062c-0.589,0.143-1.208,0.237-1.86,0.438
			c-2.051,0.616-3.417,1.749-4.216,3.66c-0.198,0.472-0.443,1.651-0.187,2.36c0.371,1.017,0.992,1.702,2.108,1.984
			c1.261,0.317,3.111-1.134,2.729-2.359c-0.168-0.534-0.647-1.198-0.993-1.614c0.143-1.132,1.619-1.319,2.667-1.612
			c2.465-0.69,4.935,0.078,5.829,1.8c0.209,0.397,0.581,1.151,0.374,1.924c-0.575,2.134-3.7,2.572-5.893,3.104
			c-0.538,0.042-1.076,0.083-1.612,0.126c-2.818,0.681-5.51,1.431-6.327,4.096c-0.317,1.037-0.313,2.562-0.062,3.601
			c0.09,0.365-0.002,0.682,0.126,0.994c0.708,1.723,2.15,3.054,4.031,3.6c0.392,0.041,0.785,0.082,1.177,0.124
			c0.637,0.156,1.857,0.379,2.729,0.186c0.623-0.137,1.369-0.116,2.047-0.31c1.688-0.484,3.098-1.357,4.156-2.484
			c0.127,0.026,0.118,0.016,0.186,0.062c0.466,0.187,0.362,0.846,0.62,1.242C36.471,21.363,37.239,22.029,37.579,22.179z
			 M35.159,15.66c-0.479,1.682-2.016,3.026-3.658,3.538c-2.371,0.739-5.601,0.558-6.699-1.179c-0.802-1.27-0.559-2.984,0.373-3.909
			c1.57-1.563,5.217-1.497,7.629-2.174c0.771-0.217,1.432-0.264,1.982-0.684c0.145,0.014,0.176,0.013,0.248,0.062
			c0.063,0.02,0.124,0.042,0.187,0.061c0.108,0.551,0.063,1.338,0.063,1.987C35.285,14.17,35.353,14.988,35.159,15.66z
			 M49.982,20.689c-0.04-0.511-0.191-1.387-0.062-1.987V1.757c-0.119-0.435-0.405-0.732-0.621-1.056
			c-0.791-0.179-1.843-0.103-2.603,0.062h-1.056c-1.231,0-2.246-0.053-3.286-0.249c-0.114,0.079-0.355,0.069-0.559,0.064
			c-0.274,0.261-0.67,0.407-0.808,0.806c-0.2,0.272-0.098,0.755-0.061,1.116c0.494,0.515,0.573,0.673,1.427,0.868
			c1.22,0.281,2.54-0.397,3.349,0.312c0.463,0.167,0.688,0.91,0.807,1.426v0.87c0.268,1.248,0.062,2.976,0.062,4.345v9.561
			c0,2.753-0.022,5.024-1.365,6.393c-1.129,1.149-3.654,1.917-5.146,0.497c0.059-0.506,0.375-0.771,0.494-1.241
			c0.228-0.903-0.47-1.774-0.93-2.049c-0.266-0.159-0.512-0.101-0.869-0.188c-2.013-0.481-3.119,1.618-2.542,3.538
			c0.452,1.505,2.484,2.781,4.093,3.167h1.677c2.076,0,3.336-0.278,4.589-1.056c1.331-0.826,2.471-2.277,2.975-3.91
			c0.042-0.414,0.084-0.827,0.126-1.242C49.868,22.957,50.06,21.662,49.982,20.689z"/>
	</g>
</g>
</svg>
