<svg xmlns="http://www.w3.org/2000/svg" id="Background" viewBox="0 0 2400 1600"><defs><linearGradient id="Gradient-0" x1="1200" y1="506" x2="1200" y2="1713.9" gradientUnits="userSpaceOnUse" gradientTransform="matrix(1 0 0 -1 0 1600)"><stop offset="0" stop-color="#253371"/><stop offset=".5" stop-color="#202153"/><stop offset="1" stop-color="#101121"/></linearGradient><linearGradient id="Gradient-1" x1="1200" y1="-121890" x2="1200" y2="510" gradientUnits="userSpaceOnUse" gradientTransform="matrix(1 0 0 -1 0 1600)"><stop offset="0" stop-color="#373737"/><stop offset="1" stop-color="#202020"/></linearGradient></defs><style>
@keyframes a0_o { 0% { opacity: 1; animation-timing-function: cubic-bezier(.4,0,.6,1); } 3.448% { opacity: .5; animation-timing-function: cubic-bezier(0,0,.6,1); } 6.897% { opacity: 1; } 100% { opacity: 1; } }
@keyframes a1_o { 0% { opacity: 1; } 15.517% { opacity: 1; animation-timing-function: cubic-bezier(.4,0,.6,1); } 18.966% { opacity: .5; animation-timing-function: cubic-bezier(0,0,.6,1); } 22.414% { opacity: 1; } 100% { opacity: 1; } }
@keyframes a2_o { 0% { opacity: 1; } 60.345% { opacity: 1; animation-timing-function: cubic-bezier(.4,0,.6,1); } 63.793% { opacity: .5; animation-timing-function: cubic-bezier(0,0,.6,1); } 67.241% { opacity: 1; } 100% { opacity: 1; } }
@keyframes a3_o { 0% { opacity: 1; } 72.414% { opacity: 1; animation-timing-function: cubic-bezier(.4,0,.6,1); } 75.862% { opacity: .5; animation-timing-function: cubic-bezier(0,0,.6,1); } 79.31% { opacity: 1; } 100% { opacity: 1; } }
@keyframes a4_o { 0% { opacity: 1; } 20.69% { opacity: 1; animation-timing-function: cubic-bezier(.4,0,.6,1); } 24.138% { opacity: .5; animation-timing-function: cubic-bezier(0,0,.6,1); } 27.586% { opacity: 1; } 100% { opacity: 1; } }
@keyframes a5_o { 0% { opacity: 1; } 46.552% { opacity: 1; animation-timing-function: cubic-bezier(.4,0,.6,1); } 50% { opacity: .5; animation-timing-function: cubic-bezier(0,0,.6,1); } 53.448% { opacity: 1; } 100% { opacity: 1; } }
@keyframes a6_o { 0% { opacity: 1; } 87.931% { opacity: 1; animation-timing-function: cubic-bezier(.4,0,.6,1); } 91.379% { opacity: .5; animation-timing-function: cubic-bezier(0,0,.6,1); } 94.828% { opacity: 1; } 100% { opacity: 1; } }
@keyframes a7_o { 0% { opacity: 1; } 5.172% { opacity: 1; animation-timing-function: cubic-bezier(.4,0,.6,1); } 8.621% { opacity: .5; animation-timing-function: cubic-bezier(0,0,.6,1); } 12.069% { opacity: 1; } 100% { opacity: 1; } }
@keyframes a8_o { 0% { opacity: 1; } 36.207% { opacity: 1; animation-timing-function: cubic-bezier(.4,0,.6,1); } 39.655% { opacity: .5; animation-timing-function: cubic-bezier(0,0,.6,1); } 43.103% { opacity: 1; } 100% { opacity: 1; } }
@keyframes a9_o { 0% { opacity: 1; } 81.034% { opacity: 1; animation-timing-function: cubic-bezier(.4,0,.6,1); } 84.483% { opacity: .5; animation-timing-function: cubic-bezier(0,0,.6,1); } 87.931% { opacity: 1; } 100% { opacity: 1; } }
@keyframes a10_o { 0% { opacity: 1; } 53.448% { opacity: 1; animation-timing-function: cubic-bezier(.4,0,.6,1); } 56.897% { opacity: .5; animation-timing-function: cubic-bezier(0,0,.6,1); } 60.345% { opacity: 1; } 100% { opacity: 1; } }
@keyframes a11_o { 0% { opacity: 1; } 65.517% { opacity: 1; animation-timing-function: cubic-bezier(.4,0,.6,1); } 68.966% { opacity: .5; animation-timing-function: cubic-bezier(0,0,.6,1); } 72.414% { opacity: 1; } 100% { opacity: 1; } }
@keyframes a12_o { 0% { opacity: 1; } 29.31% { opacity: 1; animation-timing-function: cubic-bezier(.4,0,.6,1); } 32.759% { opacity: .5; animation-timing-function: cubic-bezier(0,0,.6,1); } 36.207% { opacity: 1; } 100% { opacity: 1; } }
@keyframes a13_o { 0% { opacity: 1; } 93.103% { opacity: 1; animation-timing-function: cubic-bezier(.4,0,.6,1); } 96.552% { opacity: .5; animation-timing-function: cubic-bezier(0,0,.6,1); } 100% { opacity: 1; } }
@keyframes a14_o { 0% { opacity: 1; } 41.379% { opacity: 1; animation-timing-function: cubic-bezier(.4,0,.6,1); } 44.828% { opacity: .5; animation-timing-function: cubic-bezier(0,0,.6,1); } 48.276% { opacity: 1; } 100% { opacity: 1; } }
@keyframes a15_o { 0% { opacity: 1; } 10.345% { opacity: 1; animation-timing-function: cubic-bezier(.4,0,.6,1); } 13.793% { opacity: .5; animation-timing-function: cubic-bezier(0,0,.6,1); } 17.241% { opacity: 1; } 100% { opacity: 1; } }
@keyframes a16_o { 0% { opacity: 1; } 75.862% { opacity: 1; animation-timing-function: cubic-bezier(.4,0,.6,1); } 79.31% { opacity: .5; animation-timing-function: cubic-bezier(0,0,.6,1); } 82.759% { opacity: 1; } 100% { opacity: 1; } }
@keyframes a17_o { 0% { opacity: 1; } 22.414% { opacity: 1; animation-timing-function: cubic-bezier(.4,0,.6,1); } 25.862% { opacity: .5; animation-timing-function: cubic-bezier(0,0,.6,1); } 29.31% { opacity: 1; } 100% { opacity: 1; } }
</style><g class="st7" style="isolation: isolate;"><g><path class="st5" d="M18.7 1047.2c1.7-0.8 3.6-1.7 5.8-2.7c17.6-7.8 16.3-9.7 34.8-16.1c9.9-3.4 10.4-2.5 20.9-4.6c10.6-2 11.6 .4 21.4-3.2c10-3.6 8.4-5.6 17.2-10.7c8.9-5 10-3.9 18.8-9c8.7-5.2 7.5-6.4 16.2-11.6c8.7-5.2 7.7-6.6 17.5-10.5c10-3.9 11.3-1.5 22.1-4c10.7-2.4 10.5-7.1 21.5-5.5c11.6 1.7 9.4 5.8 18.9 11.1c9.5 5.4 9 6 18.4 11.4c8.9 5 9.6 5.2 17.4 9.6c4.8-1.4 5.3-2.1 11.6-3c15.6-2.2 15.9-0.2 31.5-2.5c15.5-2.3 14.8-4.7 30.1-7.8c15.4-3 16-1.2 31.4-4.1c7.8-1.5 7.7-6.3 15.6-4.8c7.8 1.6 5.1 5.7 11.3 9.8c6.3 4.1 6.7 3.6 12.9 7.8c4.4 3 3.8 3.5 8.6 6c4.9 2.6 5.6 1.2 11 2.9c5.4 1.7 5.2 2 10.4 4.1c8.9 3.7 9 3.6 17.2 8.3c6 3.4 6.7 5.8 10.1 8c6.4 .1 10.5 .5 22.3 1c18.1 .7 18.2-0.3 36 1.9c13.2 1.6 12.9 2.5 25.6 5.5c12.7 3.1 12.8 2.9 25.4 6.3c12.6 3.3 12.2 4.2 24.7 7.8c12.5 3.5 13.7 1.4 25.5 6.1c11.8 4.7 10.8 6.1 21.7 11.8c1.4 .8 2.6 1.4 3.6 2c6.4-1.1 8.2-2.2 16-6.2c11.3-5.9 8.2-9.3 20.3-13.9c12.2-4.7 12.7-4.6 26.2-5c13.3-0.3 14.1-0.9 26.8 2.4c13 3.5 10.4 8.4 23.5 12c13 3.5 14 .4 27.7 2.2c13.7 1.7 13.4 3.2 27.2 4.2c8.3 .7 8.3-1.4 16.4 .2c8.1 1.6 7.1 3.2 14.9 5.5c7.8 2.2 8.7-0.2 16.3 2.4c10.9 3.6 9.7 5.6 19.7 10.6c8.2 4.1 10.8 3.8 16.3 7.1h222.9c9-4.4 12.3-3.3 25.6-4c14.4-0.7 14.2 1.4 28.5 2c14.2 .5 14.2 1 28.6 .7c13.7-0.4 13.6-2.5 27.2-2.5c13.8 0 13.2 2.2 27 2.3c13.6 0 13.9 .3 27.3-1.4c8.7-1.1 8.2-2.2 16.4-4c8.2-1.9 7.9-2.3 16.4-3.8c8.5-1.5 8.6-1.1 17.2-2.3c8.7-1.1 8.5-2.1 17.3-2.1c8.9-0.1 8.5 1.1 16.9 2.2c8.5 1 8.8 .6 17.2 1.7c7.6 1 8.9 1.4 14.1 2.2c.3-0.1 .7-0.3 1-0.4c11.2-4.8 9.5-7 18.9-13.7c9.4-6.8 7.8-8.4 18.4-13.9c10.6-5.4 11.7-3.7 23.2-7.7c11.6-3.9 10.4-8 23-8.6c12.1-0.7 11.4 3.9 23 6.7c11.7 2.7 13.7-0.8 24 4.3c9.3 4.6 12 8.4 15.5 12c6.6-1.4 9.5-1.2 20.2-2.4c9.8-1.1 9.8-1 19.6-1.6c9.9-0.6 10.8 1.3 19.8-1c8.9-2.3 7.1-3.7 13.9-7.5c7.9-4.4 8.3-4.3 15.3-9.1c7-4.8 4-6 12.7-10.1c8.1-3.7 9.3-3.1 19.5-5.1c9.7-1.8 10.4-0.5 19.9-2.6c9.7-2.1 10.7-1.6 18.4-5.3c7.8-3.6 5.2-4.8 11.9-8.9c6.6-4.1 6-4.5 14-7.9c7.7-3.4 7.5-5 17.5-5.6c10.1-0.6 8.5 3.8 18.6 3.9c8.7 0 10.2-0.3 16.7-3.4c7.5-3.6 2-5.5 9.3-9.2c5.6-2.9 7.7-4.7 14.7-3.2c13.2 3 10 5.2 19.6 10.6c9.6 5.3 10.4 5 19.1 10.7c8.6 5.8 6.9 6.4 14.6 12.5c6.6 5.2 6.2 5.4 13.5 10.4c7.2 4.9 5.6 5.9 16.1 8.9c10.8 3.1 12.4 .8 24.7 2.2c11.6 1.3 11.1 2.2 22.7 3.5c11.6 1.3 11.5 2.3 23.5 1.6c11.2-0.6 11.7-0.8 21-4.1c10.7-3.9 7.2-5.9 17.8-9.9c10.7-4.1 11.5-3.7 23.8-6.1c12.2-2.5 12.5-4.2 25.3-3.7c11.5 .5 10.2 2.7 19.8 5.7c9.7 3 8.3 4.2 18.4 6.8c9.8 2.6 9.8 3.6 21.1 3.8c7.1 .1 5.8-3.2 12.9-3.6c7.2-0.4 6.9 1 13.6 2c6.8 1 7.1 .6 13.1 2.4c8.3 2.5 7.3 3.1 14.8 6.1c7.6 3 7.6 2.9 15.8 5.5c8.2 2.6 7.5 3.3 16.8 4.8c10.5 1.6 11 .5 22 1.2c11 .6 10.8 1.4 21.9 1.3c11.1-0.1 11.1-0.5 22.2-1.4c10.3-0.8 11.4-0.1 19.8-1.8c3.9-1.2 6.9-1.8 9.5-2.3c3.5-1.2 5.2-2.3 11.2-4.6c7.5-2.8 7.6-6.4 13.1-7c4.2-4.4 4.1-7.8 10.8-15c9.2-9.9 8.8-10.2 19.1-19.4c7.3-6.6 8.5-5.5 16.7-11.3c8.3-5.8 5.4-10 16.2-11.7c5.3-0.8 8-0.2 10.5 .9v-979.7h-2400v1047.6c1 0 2-0.1 3.2-0.2c8-0.6 11.3-0.1 15.5-0.2Z" fill="url(#Gradient-0)"/><path class="st13" d="M18.7 1047.2c-4.2 .1-7.5-0.4-15.5 .2c-1.2 .1-2.2 .2-3.2 .2v8.7c7.1-2.9 10.1-5.1 18.7-9.1Z" fill="#121a5e"/><g><path class="st6" d="M698.3 1083.3c12.1 2.2 12 2.8 24.3 4.2c12.4 1.5 12.6 .8 25.1 1.4v1.1h159.7c-5.5-3.3-8.1-3-16.3-7.1c-10-5-8.8-7-19.7-10.6c-7.6-2.6-8.5-0.2-16.3-2.4c-7.8-2.3-6.8-3.9-14.9-5.5c-8.1-1.6-8.1 .4-16.4-0.2c-13.8-1-13.5-2.5-27.2-4.2c-13.6-1.8-14.7 1.3-27.7-2.2c-13.1-3.6-10.5-8.5-23.5-12c-12.7-3.3-13.5-2.8-26.8-2.4c-13.5 .4-14 .3-26.2 5c-12.1 4.6-9 8-20.3 13.9c-7.8 4-9.5 5.1-16 6.2c7.3 4.1 7.9 5.6 18.4 9.2c11.3 4 11.7 3.3 23.8 5.6Z" fill="#121a55"/><path class="st6" d="M290.8 1012.7c9.6 4.3 10.1 3.4 20.3 6.9c10.2 3.4 9.2 5.6 20.2 7.3c11 1.7 11.2-0.7 22.5-0.9c11.3-0.1 11.3 1 22.6 1.1c11.3 .1 11.2-0.1 22.5 .2c11.3 .2 11.3 .1 22.5-0.2c18.1-0.4 18.1-1 36.1-1.1c6.3 0 10.4 0 13.8 .1c-3.4-2.2-4.1-4.6-10.1-8c-8.2-4.7-8.3-4.6-17.2-8.3c-5.2-2.1-5-2.4-10.4-4.1c-5.4-1.7-6.1-0.3-11-2.9c-4.8-2.5-4.2-3-8.6-6c-6.2-4.2-6.6-3.7-12.9-7.8c-6.2-4.1-3.5-8.2-11.3-9.8c-7.9-1.5-7.8 3.3-15.6 4.8c-15.4 2.9-16 1.1-31.4 4.1c-15.3 3.1-14.6 5.5-30.1 7.8c-15.6 2.3-15.9 .3-31.5 2.5c-6.3 .9-6.8 1.6-11.6 3c.5 .4 1.1 .7 1.7 1.1c9.4 5.4 9.3 5.5 19.5 10.2Z" fill="#121a55"/><path class="st6" d="M1570.9 1068.8c17.4 7.5 18.3 7.8 38 8.5c19.5 .6 18.8-5.9 38.3-5.2c18.4 .7 18.4 2.1 35.4 7.8c9.8 3.4 13.5 7.1 17.8 10.1h41.1c3.2-1.6 7.1-3.4 12.9-5c10.2-2.8 10.3-2.7 20.4-5.6c10.1-2.9 9.7-3.9 20.4-5.1c10.8-1.1 10.7-0.3 21.5 .4c10.8 .8 11.3-0.8 21.6 1.7c10.5 2.5 9.9 3.8 19.6 8c5.1 2.2 7.1 4 9.5 5.6h94.1c2.1-0.4 4.5-1.1 7.9-2.2c11.3-3.6 10.4-4.9 21.2-9.3c10.7-4.5 10.6-4.7 21.9-8.2c15.1-4.8 15.4-4.1 31-7.8c15.5-3.8 14.9-6.2 31.1-7.7c16-1.4 16.2 .5 32.3 1.4c16.1 .8 16.2 .6 32.1 2.7c16 2.1 15.7 3 31.4 6.3c15.7 3.3 15.1 6.2 31.3 6.5c15.7 .4 15.3-2.5 30.6-5.1c15.2-2.7 15.4-2.2 30.2-6c14.8-3.9 14.2-4.8 28.5-9.8c.6-0.3 1.3-0.5 1.9-0.7c-8.4 1.7-9.6 1-19.8 1.8c-11.1 .9-11.1 1.3-22.2 1.4c-11.1 .1-10.9-0.7-21.9-1.3c-11-0.7-11.5 .4-22-1.2c-9.3-1.5-8.6-2.2-16.8-4.8c-8.2-2.6-8.2-2.5-15.8-5.5c-7.5-3-6.5-3.6-14.8-6.1c-6-1.8-6.3-1.4-13.1-2.4c-6.7-1-6.4-2.4-13.5-2c-7.2 .4-5.9 3.7-13 3.6c-11.3-0.2-11.3-1.2-21.1-3.8c-10.1-2.6-8.7-3.8-18.4-6.8c-9.6-3-8.3-5.2-19.8-5.7c-12.8-0.5-13.1 1.2-25.3 3.7c-12.3 2.4-13.1 2-23.8 6.1c-10.6 4-7 5.9-17.8 9.8c-9.3 3.4-9.8 3.6-21 4.2c-12 .7-11.9-0.3-23.5-1.6c-11.6-1.3-11.1-2.2-22.7-3.5c-12.2-1.4-13.9 .9-24.7-2.2c-10.5-3-8.9-4.1-16.1-8.9c-7.3-5-6.8-5.2-13.5-10.4c-7.7-6.1-6-6.7-14.6-12.5c-8.7-5.7-9.5-5.4-19.1-10.7c-9.7-5.4-6.4-7.6-19.6-10.6c-7-1.5-9.1 .3-14.7 3.2c-7.3 3.7-1.8 5.6-9.3 9.2c-6.5 3.1-8 3.4-16.7 3.4c-10.1-0.1-8.5-4.5-18.6-3.9c-10 .6-9.8 2.2-17.5 5.5c-8 3.5-7.4 3.9-14 8c-6.7 4.1-4.1 5.3-11.9 8.9c-7.7 3.6-8.7 3.2-18.4 5.3c-9.5 2.1-10.2 .8-19.9 2.6c-10.2 1.9-11.4 1.4-19.5 5.1c-8.7 4.1-5.7 5.2-12.7 10.1c-7 4.8-7.4 4.7-15.3 9.1c-6.8 3.8-5 5.2-13.9 7.5c-9 2.3-9.9 .4-19.8 1c-9.8 .6-9.8 .5-19.6 1.6c-10.7 1.2-13.6 1-20.2 2.4c2.8 2.9 6.2 5.8 13.9 9.1v.1Z" fill="#121a55"/></g><path class="st13" d="M1378.3 1088.4c15.8-4.1 17.7-1.6 31.7-7.4c-5.2-0.8-6.5-1.2-14.1-2.2c-8.4-1.1-8.7-0.7-17.2-1.7c-8.4-1.1-8-2.3-16.9-2.2c-8.8 0-8.6 1-17.2 2.1c-8.7 1.2-8.8 .8-17.3 2.3c-8.5 1.5-8.2 1.9-16.4 3.8c-8.2 1.8-7.7 2.9-16.4 4c-13.4 1.7-13.7 1.4-27.3 1.4c-13.8-0.1-13.2-2.3-26.9-2.3c-13.7 0-13.6 2.1-27.3 2.5c-14.4 .3-14.4-0.2-28.6-0.7c-14.3-0.6-14.1-2.7-28.4-2c-13.4 .7-16.7-0.4-25.6 4h242.1c1.7-0.5 3.6-1 5.8-1.6Z" fill="#121a5e"/><path class="st13" d="M2326.7 1036.2c-5.5 .6-5.6 4.2-13 7c-6.1 2.3-7.8 3.4-11.3 4.6c5.7-1 9.6-1.3 17.5-6.3c3.2-2.1 5.3-3.8 6.8-5.3Z" fill="#121a5e"/><path class="st11" d="M2302.4 1047.8c-2.6 .5-5.6 1.1-9.5 2.3c.7-0.1 1.3-0.2 2.1-0.4c3.5-0.7 5.7-1.3 7.4-1.9Z" fill="#1d2a76"/><g><path class="st9" d="M722.6 1087.5c-12.3-1.4-12.2-2-24.3-4.2c-12.1-2.3-12.5-1.6-23.8-5.5c-10.5-3.7-11.1-5.2-18.4-9.3c-1-0.6-2.2-1.2-3.6-2c-10.9-5.7-9.9-7.1-21.7-11.8c-11.8-4.7-13-2.6-25.5-6.1c-12.5-3.6-12.1-4.5-24.7-7.8c-12.6-3.4-12.7-3.2-25.4-6.3c-12.7-3-12.4-3.9-25.6-5.5c-17.8-2.2-17.9-1.2-36-2c-11.8-0.5-15.9-0.8-22.3-0.9c-3.4-0.1-7.5-0.1-13.8-0.1c-18 .1-18 .7-36.1 1.1c-11.2 .3-11.2 .4-22.5 .2c-11.3-0.3-11.2-0.1-22.5-0.2c-11.3-0.1-11.3-1.2-22.6-1.1c-11.3 .2-11.5 2.6-22.5 .9c-11-1.7-10-3.9-20.2-7.3c-10.2-3.5-10.7-2.6-20.3-6.9c-10.2-4.7-10.1-4.8-19.5-10.2c-0.6-0.4-1.2-0.7-1.7-1.1c-7.8-4.4-8.5-4.6-17.4-9.6c-9.4-5.4-8.9-6-18.4-11.4c-9.5-5.3-7.3-9.4-18.9-11.1c-11-1.6-10.8 3.1-21.5 5.5c-10.8 2.5-12.1 .1-22.1 4c-9.8 3.9-8.8 5.3-17.5 10.5c-8.7 5.2-7.5 6.4-16.2 11.6c-8.8 5.1-9.9 4-18.8 9c-8.8 5.1-7.2 7.1-17.2 10.7c-9.8 3.6-10.8 1.2-21.4 3.2c-10.5 2.1-11 1.2-20.9 4.6c-18.5 6.4-17.2 8.3-34.8 16.1c-2.2 1-4.1 1.9-5.8 2.7c-8.6 4-11.6 6.2-18.7 9.1v33.7h747.7v-1.1c-12.5-0.6-12.7 .1-25.1-1.4Z" fill="#1c2469"/><path class="st9" d="M1857.9 1084.4c-9.7-4.2-9.1-5.5-19.6-8c-10.3-2.5-10.8-0.9-21.6-1.7c-10.8-0.7-10.7-1.5-21.5-0.4c-10.7 1.2-10.3 2.2-20.4 5.1c-10.1 2.9-10.2 2.8-20.4 5.6c-5.8 1.6-9.7 3.4-12.9 5h125.9c-2.4-1.6-4.4-3.4-9.5-5.6Z" fill="#1c2469"/><path class="st9" d="M2389.5 978.8c-10.8 1.7-7.9 5.9-16.1 11.7c-8.3 5.8-9.5 4.7-16.8 11.3c-10.3 9.2-9.9 9.5-19.1 19.4c-6.7 7.2-6.6 10.6-10.8 15c-1.5 1.5-3.6 3.2-6.8 5.3c-7.9 5-11.8 5.3-17.5 6.3c-1.7 .6-3.9 1.2-7.4 1.9c-0.8 .2-1.4 .3-2.1 .4c-0.6 .2-1.3 .4-1.9 .7c-14.3 5-13.7 5.9-28.5 9.8c-14.8 3.8-15 3.3-30.2 6c-15.3 2.6-14.9 5.5-30.5 5.1c-16.3-0.3-15.7-3.2-31.4-6.5c-15.7-3.3-15.4-4.2-31.4-6.3c-15.9-2-16-1.9-32.1-2.7c-16.1-0.9-16.3-2.8-32.3-1.4c-16.2 1.5-15.6 3.9-31.1 7.7c-15.6 3.7-15.9 3.1-31 7.8c-11.3 3.5-11.2 3.7-21.9 8.2c-10.8 4.4-9.9 5.7-21.2 9.3c-3.4 1.1-5.8 1.8-7.9 2.2h438.5v-110.3c-2.5-1.1-5.2-1.7-10.5-0.9Z" fill="#1c2469"/><path class="st9" d="M1682.6 1079.9c-17-5.7-17-7.1-35.4-7.8c-19.5-0.7-18.8 5.8-38.3 5.2c-19.7-0.7-20.5-1-38-8.5c-7.7-3.3-11.1-6.2-13.9-9.1c-3.5-3.6-6.2-7.4-15.5-12c-10.3-5.1-12.3-1.6-24-4.3c-11.6-2.8-10.9-7.4-23-6.7c-12.6 .6-11.4 4.7-23 8.6c-11.5 4-12.6 2.3-23.2 7.7c-10.6 5.5-9 7.1-18.4 13.9c-9.4 6.7-7.7 8.9-18.8 13.7c-0.4 .1-0.7 .3-1.1 .4c-14 5.8-15.9 3.3-31.7 7.4c-2.2 .6-4.1 1.1-5.8 1.6h327.9c-4.3-3-7.9-6.7-17.8-10.1Z" fill="#1c2469"/></g><path class="st4" d="M0 1090v4v506h2400v-510h-2400Z" fill="url(#Gradient-1)"/></g><g><path class="st2" d="M930.2 1083.6l-2.6-0.3v32.1l2.6 .2v-32Z" fill="#f7a267" opacity=".5" style="mix-blend-mode: multiply;"/><path class="st3" d="M1393.9 1113.3c-0.4 .2-0.9 .3-1.4 .2c-0.7 0-1.4-0.4-1.9-1.1l-99.2-126.7v348.6l149.8-45.3l6.6-2l4.4-1.4v-202.3l-58.3 30Z" fill="#f7a267"/><path class="st2" d="M1290.8 985l-0.5 .9l1.1 1.9v-2.1l-0.5-0.6c0 0 0-0.1 0-0.1Z" fill="#f7a267" opacity=".5" style="mix-blend-mode: multiply;"/><path class="st3" d="M1096.2 900.6v22.1v39.1l192.1 18.7l97.6-29.5l55.4-16.8l-345-33.6Z" fill="#f7a267"/><path class="st2" d="M1096.2 961.8v-39.1l-2.6-0.2v39l2.6 .3Z" fill="#f7a267" opacity=".5" style="mix-blend-mode: multiply;"/><path class="st2" d="M1289.4 980.7c0 .1 .1 .1 .2 .1c.1 .1 .3 .1 .4 .2c0 .1 .1 .1 .1 .1c.2 .1 .4 .3 .5 .4c0 0 0 0 0 0c.1 .1 .2 .2 .2 .3c.3-0.3 .7-0.6 1.1-0.7l95.7-29.9l-1.7-0.2l-97.6 29.5l.5 .1c.2 0 .4 .1 .6 .1Z" fill="#f7a267" opacity=".5" style="mix-blend-mode: multiply;"/><path class="st2" d="M1290 981c-0.1-0.1-0.3-0.1-0.4-0.2c.1 .1 .3 .1 .4 .2Z" fill="#f7a267" opacity=".5" style="mix-blend-mode: multiply;"/><path class="st2" d="M1290.1 981.1c.2 .1 .4 .3 .5 .4c-0.1-0.1-0.3-0.3-0.5-0.4Z" fill="#f7a267" opacity=".5" style="mix-blend-mode: multiply;"/><path class="st2" d="M1290.6 981.5c.1 .1 .2 .2 .2 .3c0 0 0 0 0 0c0-0.1-0.1-0.2-0.2-0.2Z" fill="#f7a267" opacity=".5" style="mix-blend-mode: multiply;"/><path class="st2" d="M1289.4 980.7c-0.2 0-0.4-0.1-0.6-0.1c.2 0 .4 .1 .6 .1Z" fill="#f7a267" opacity=".5" style="mix-blend-mode: multiply;"/><path class="st2" d="M1093.6 961.5v-39l-2.6 .8v38l2.6 .2Z" fill="#f7a267" opacity=".5" style="mix-blend-mode: multiply;"/><path class="st3" d="M1457.4 939.7l-2.6-3l-0.6-0.7l-2 .6l-50.9 15.9l-101.5 31.8l-2.6 .8l95.9 122.5l59.1-30.4l2.6-1.3l2.6-1.4l81.5-41.8l-81.5-93Z" fill="#f7a267"/><g><path class="st10" d="M1280.5 1000.7l-73.1 111.2c-0.4 .7-1.3 1.1-2.2 1c0 0 0 0 0 0l-109-11.6l-2.6-0.3l-2.6-0.3l-160.8-17.1v216.7l3.9 .4l7 .7l345.1 33.6v-342.9l-5.7 8.6Z" fill="#fccf93"/><path class="st10" d="M1091 961.3v-38v-22l-149.9 45.4l54.9 5.3l95 9.3Z" fill="#fccf93"/><path class="st10" d="M1091 1095.5l2.6 .3l2.7 .3l107.5 11.4l80.3-122.1l-187.8-18.4l-2.7-0.2l-2.6-0.3l-32.9-3.2l-75.1-7.3l-52.8-5.2l-1.1-0.1l-1.5 2.8l-2.6 4.6l-63.7 112.9l63.7 6.8l2.6 .3l2.6 .3l160.8 17.1Z" fill="#fccf93"/></g><path class="st0" d="M1544.9 1032l-88.2-100.7c0 0 0 0 0 0c0 0-0.1 0-0.1 0c-0.1-0.1-0.2-0.2-0.3-0.3c0 0 0-0.1 0-0.1c0 0-0.1 0-0.1 0c0 0 0 0 0 0c-0.1-0.1-0.2-0.1-0.3-0.2c0 0-0.1 0-0.1-0.1c0 0 0 0 0 0c-0.1 0-0.1 0-0.2 0c-0.1-0.1-0.3-0.1-0.4-0.2c0 0-0.1 0-0.1 0c0 0 0 0 0 0c-0.1 0-0.2 0-0.2 0c-0.1-0.1-0.1-0.1-0.1-0.1l-361.2-35.2c0 0-0.1 0-0.2 0c-0.1 0-0.1 0-0.2 0c-0.1 0-0.3 0-0.5 .1c0 0 0 0 0 0h-0.1c0 0-166 50.2-166 50.2c0 0 0 0 0 0c-0.1 0-0.1 .1-0.1 .1c-0.1 0-0.2 0-0.3 .1c0 0 0 0 0 0c0 0 0 0 0 0c-0.1 0-0.1 .1-0.2 .1c0 0-0.1 .1-0.2 .2c0 0-0.1 0-0.1 0c0 0 0 .1 0 .1c-0.1 0-0.2 .1-0.3 .2c0 .1 0 .1 0 .1c-0.1 .1-0.1 .1-0.1 .2c0 0 0 0 0 0l-70.6 125.2c-0.4 .8-0.4 1.8 0 2.6c.5 .8 1.4 1.4 2.3 1.5l68 7.2v219.4c0 .2 0 .4 0 .6c0 .1 .1 .1 .1 .2c0 .1 .1 .2 .1 .4c.1 0 .1 .1 .1 .1c.1 .2 .2 .3 .3 .4c0 .1 0 .1 .1 .1c.1 .2 .2 .3 .4 .5c0 0 0 0 0 0c.1 .1 .3 .2 .4 .2c.1 .1 .1 .1 .2 .1c.1 .1 .2 .1 .3 .1c0 0 .1 .1 .1 .1c.2 0 .3 .1 .5 .1l361.2 35.2c.1 .1 .3 .1 .5 0c0 0 .1 0 .2 0c.1 0 .2 0 .2-0.1h.1c0 0 166-50.2 166-50.2c0 0 0 0 0 0c.1 0 .1 0 .2-0.1c0 0 .1 0 .2-0.1c0 0 .1 0 .2-0.1c0 0 .1-0.1 .1-0.1c.1-0.1 .2-0.1 .2-0.2c.1 0 .1-0.1 .2-0.2c0 0 .1-0.1 .1-0.2c.1 0 .1-0.1 .2-0.2c0-0.1 0-0.1 0-0.2c.1-0.1 .1-0.2 .1-0.2c0-0.1 .1-0.1 .1-0.2c0-0.1 0-0.3 0-0.5v-207.2l86.9-44.7c.7-0.4 1.2-1 1.3-1.8c.1-0.8-0.2-1.6-0.7-2.2Zm-87.5 42.5l-2.6 1.4l-2.6 1.3l-59.1 30.4l-95.9-122.5l2.6-0.8l101.5-31.8l50.9-15.9l2-0.6l.6 .7l2.6 3l81.5 92.9l-81.5 41.9Zm-5.2 24.4v186.7l-4.4 1.4l-6.6 2l-149.8 45.3v-348.6l99.2 126.7c.5 .7 1.2 1.1 1.9 1.1c.5 .1 1 0 1.4-0.2l58.3-30v15.6Zm-166 236.1l-345.1-33.6l-7-0.7l-3.9-0.4v-216.7l160.8 17.1l2.6 .3l2.7 .3l108.9 11.6c0 0 0 0 0 0c.9 .1 1.8-0.3 2.2-1l73.1-111.2l5.7-8.6v343Zm-361.2-376.9l2.6-4.6l1.5-2.8l1.1 .1l52.8 5.2l75.1 7.3l32.9 3.2l2.6 .3l2.7 .2l187.8 18.4l-80.3 122.1l-107.5-11.4l-2.7-0.3l-2.6-0.3l-160.8-17.1l-2.6-0.3l-2.6-0.3l-63.7-6.8l63.7-112.9Zm166-56.8v60l-95-9.3l-54.9-5.3l149.9-45.4Zm294.9 49.7l-97.6 29.5l-192.1-18.7v-61.2l345.1 33.6l-55.4 16.8Z" fill="#5e2c00"/><path class="st12" d="M1207.4 1111.9c-0.4 .7-1.3 1.1-2.2 1c0 0 0 0 0 0l-109-11.6l-2.6-0.3l-2.6-0.3l-160.8-17.1v32l160.8 15.7l2.6 .3l2.6 .2l117.1 11.5l67.2-142.6l-73.1 111.2Z" fill="#fbb275"/><path class="st8" d="M1392.5 1113.5c-0.7 0-1.4-0.4-1.9-1.1l-99.2-126.7v2.1l83.9 148l76.9-36.9v-15.6l-58.3 30c-0.4 .2-0.9 .3-1.4 .2Z" fill="#f79055"/><path class="st8" d="M1288.3 980.5l97.6-29.5l-289.6-28.3v39.1l192 18.7Z" fill="#f79055"/><path class="st12" d="M1091 961.3v-38l-95 28.7l95 9.3Z" fill="#fbb275"/><path class="st1" d="M1278.4 1329.1l-341.5-33.3v-206l14.6 191.7l326.9 47.6Z" fill="#fff7d8"/><path class="st1" d="M933 956.4l-59.9 106.3l68.2-94.5l309.3 19.2l-317.6-31Z" fill="#fff7d8"/></g></g><g opacity="1" transform="translate(189.3,194)" style="animation: 5.8s linear infinite both a0_o;"><path class="cls-3" d="M52.3 23.8l-10-20c-0.4-0.9-1.3-1.5-2.3-1.5c-1 0-1.9 .6-2.3 1.5l-10 20c-0.1 .4-0.5 .6-0.9 .6l-22.2 3.2c-1 .2-1.8 .8-2.1 1.8c-0.3 .9-0.1 1.9 .6 2.6l16.2 15.6c.2 .3 .4 .7 .3 1l-1.3 7.5c4.1 1.4 8.6 2.1 12.9 1.3c5.3-0.9 9.7-3.9 13.2-7.2c5.3-4.8 9.4-10.6 11.3-16.8c.9-2.7 1.2-5.6 1.2-8.4l-3.7-0.6c-0.4 0-0.8-0.2-0.9-0.6Zm-35.8 7.7l-0.4-3.4l3-0.4l.5 3.4c0 0-3.1 .4-3.1 .4Zm14-3.2c-0.2 .4-0.5 .7-0.9 .8l-0.2 .1l-7 1.4l-0.5-3.4l6.4-0.7l9.2-18.2l.3 .1l-7.3 19.9Z" fill="#2a6ef7"/><path class="cls-2" d="M55.7 33.4c-1.9 6.2-6 12-11.3 16.8c-3.5 3.3-7.9 6.3-13.1 7.2c-4.4 .8-8.9 .1-13-1.3l-2.5 14.5c-0.2 1 .2 2 1 2.5c.9 .6 1.9 .7 2.8 .2l19.9-10.4c.1 0 .3-0.1 .5-0.1c.2 0 .4 .1 .6 .1l19.9 10.4c.9 .5 1.9 .4 2.7-0.2c.8-0.5 1.2-1.5 1-2.5l-3.8-22c0-0.4 .1-0.7 .4-1l16.1-15.6c.7-0.7 1-1.7 .6-2.6c-0.3-1-1-1.6-2-1.8l-18.6-2.7c.1 2.9-0.3 5.7-1.1 8.5Z" fill="#2156f6"/><path class="cls-1" d="M16.1 28.1l.4 3.4l3.1-0.4l-0.5-3.4l-3 .3Z" fill="#9fbffb"/><path class="cls-1" d="M28.3 26.5l-6.4 .7l.5 3.4l7-1.4l.2-0.1c.4-0.1 .7-0.3 .9-0.7l7.3-19.9l-0.3-0.2l-9.2 18.2Z" fill="#9fbffb"/><path class="cls-4" d="M79.8 28.7c-0.6-1.8-2.1-3.1-4-3.4l-21.7-3.1l-9.7-19.5c-0.8-1.7-2.5-2.7-4.4-2.7c-1.9 0-3.6 1.1-4.4 2.7l-9.7 19.5l-21.7 3.1c-1.8 .3-3.4 1.6-4 3.4c-0.5 1.8-0.1 3.7 1.3 5l15.7 15.1l-3.7 21.5c-0.4 1.8 .4 3.6 1.9 4.7c1.6 1.1 3.5 1.3 5.2 .4l19.4-10.1l19.4 10.1c.7 .4 1.5 .6 2.3 .6c1 0 2-0.3 2.9-1c1.5-1.1 2.2-2.9 1.9-4.7l-3.7-21.5l15.7-15.1c1.4-1.3 1.8-3.3 1.2-5Zm-39.2 34.3c-0.2-0.1-0.4-0.2-0.6-0.2c-0.2 0-0.4 .1-0.5 .2l-20 10.4c-0.9 .4-1.9 .3-2.7-0.2c-0.8-0.6-1.2-1.6-1-2.5l2.5-14.6l1.3-7.4c.1-0.4-0.1-0.8-0.4-1.1l-16.1-15.6c-0.7-0.7-0.9-1.7-0.6-2.6c.3-1 1.1-1.6 2.1-1.7l22.2-3.3c.4 0 .8-0.2 .9-0.6l10-20c.4-0.9 1.3-1.5 2.3-1.5c1 0 1.9 .6 2.3 1.5l10 20c.1 .4 .5 .6 .9 .6l3.7 .6l18.5 2.7c1 .1 1.8 .8 2.1 1.7c.3 1 .1 1.9-0.6 2.6l-16.1 15.6c-0.3 .3-0.4 .7-0.4 1.1l3.8 22c.2 1-0.2 1.9-1 2.5c-0.8 .6-1.8 .6-2.7 .2l-20-10.4Z" fill="#fff" style="isolation: isolate;"/></g><g opacity="1" transform="translate(1373.5,693.5)" style="animation: 5.8s linear infinite both a1_o;"><path class="cls-3" d="M52.3 23.8l-10-20c-0.4-0.9-1.3-1.5-2.3-1.5c-1 0-1.9 .6-2.3 1.5l-10 20c-0.1 .4-0.5 .6-0.9 .6l-22.2 3.2c-1 .2-1.8 .8-2.1 1.8c-0.3 .9-0.1 1.9 .6 2.6l16.2 15.6c.2 .3 .4 .7 .3 1l-1.3 7.5c4.1 1.4 8.6 2.1 12.9 1.3c5.3-0.9 9.7-3.9 13.2-7.2c5.3-4.8 9.4-10.6 11.3-16.8c.9-2.7 1.2-5.6 1.2-8.4l-3.7-0.6c-0.4 0-0.8-0.2-0.9-0.6Zm-35.8 7.7l-0.4-3.4l3-0.4l.5 3.4c0 0-3.1 .4-3.1 .4Zm14-3.2c-0.2 .4-0.5 .7-0.9 .8l-0.2 .1l-7 1.4l-0.5-3.4l6.4-0.7l9.2-18.2l.3 .1l-7.3 19.9Z" fill="#2a6ef7"/><path class="cls-2" d="M55.7 33.4c-1.9 6.2-6 12-11.3 16.8c-3.5 3.3-7.9 6.3-13.1 7.2c-4.4 .8-8.9 .1-13-1.3l-2.5 14.5c-0.2 1 .2 2 1 2.5c.9 .6 1.9 .7 2.8 .2l19.9-10.4c.1 0 .3-0.1 .5-0.1c.2 0 .4 .1 .6 .1l19.9 10.4c.9 .5 1.9 .4 2.7-0.2c.8-0.5 1.2-1.5 1-2.5l-3.8-22c0-0.4 .1-0.7 .4-1l16.1-15.6c.7-0.7 1-1.7 .6-2.6c-0.3-1-1-1.6-2-1.8l-18.6-2.7c.1 2.9-0.3 5.7-1.1 8.5Z" fill="#2156f6"/><path class="cls-1" d="M16.1 28.1l.4 3.4l3.1-0.4l-0.5-3.4l-3 .3Z" fill="#9fbffb"/><path class="cls-1" d="M28.3 26.5l-6.4 .7l.5 3.4l7-1.4l.2-0.1c.4-0.1 .7-0.3 .9-0.7l7.3-19.9l-0.3-0.2l-9.2 18.2Z" fill="#9fbffb"/><path class="cls-4" d="M79.8 28.7c-0.6-1.8-2.1-3.1-4-3.4l-21.7-3.1l-9.7-19.5c-0.8-1.7-2.5-2.7-4.4-2.7c-1.9 0-3.6 1.1-4.4 2.7l-9.7 19.5l-21.7 3.1c-1.8 .3-3.4 1.6-4 3.4c-0.5 1.8-0.1 3.7 1.3 5l15.7 15.1l-3.7 21.5c-0.4 1.8 .4 3.6 1.9 4.7c1.6 1.1 3.5 1.3 5.2 .4l19.4-10.1l19.4 10.1c.7 .4 1.5 .6 2.3 .6c1 0 2-0.3 2.9-1c1.5-1.1 2.2-2.9 1.9-4.7l-3.7-21.5l15.7-15.1c1.4-1.3 1.8-3.3 1.2-5Zm-39.2 34.3c-0.2-0.1-0.4-0.2-0.6-0.2c-0.2 0-0.4 .1-0.5 .2l-20 10.4c-0.9 .4-1.9 .3-2.7-0.2c-0.8-0.6-1.2-1.6-1-2.5l2.5-14.6l1.3-7.4c.1-0.4-0.1-0.8-0.4-1.1l-16.1-15.6c-0.7-0.7-0.9-1.7-0.6-2.6c.3-1 1.1-1.6 2.1-1.7l22.2-3.3c.4 0 .8-0.2 .9-0.6l10-20c.4-0.9 1.3-1.5 2.3-1.5c1 0 1.9 .6 2.3 1.5l10 20c.1 .4 .5 .6 .9 .6l3.7 .6l18.5 2.7c1 .1 1.8 .8 2.1 1.7c.3 1 .1 1.9-0.6 2.6l-16.1 15.6c-0.3 .3-0.4 .7-0.4 1.1l3.8 22c.2 1-0.2 1.9-1 2.5c-0.8 .6-1.8 .6-2.7 .2l-20-10.4Z" fill="#fff" style="isolation: isolate;"/></g><g opacity="1" transform="translate(529.6,647)" style="animation: 5.8s linear infinite both a2_o;"><path class="cls-3" d="M52.3 23.8l-10-20c-0.4-0.9-1.3-1.5-2.3-1.5c-1 0-1.9 .6-2.3 1.5l-10 20c-0.1 .4-0.5 .6-0.9 .6l-22.2 3.2c-1 .2-1.8 .8-2.1 1.8c-0.3 .9-0.1 1.9 .6 2.6l16.2 15.6c.2 .3 .4 .7 .3 1l-1.3 7.5c4.1 1.4 8.6 2.1 12.9 1.3c5.3-0.9 9.7-3.9 13.2-7.2c5.3-4.8 9.4-10.6 11.3-16.8c.9-2.7 1.2-5.6 1.2-8.4l-3.7-0.6c-0.4 0-0.8-0.2-0.9-0.6Zm-35.8 7.7l-0.4-3.4l3-0.4l.5 3.4c0 0-3.1 .4-3.1 .4Zm14-3.2c-0.2 .4-0.5 .7-0.9 .8l-0.2 .1l-7 1.4l-0.5-3.4l6.4-0.7l9.2-18.2l.3 .1l-7.3 19.9Z" fill="#2a6ef7"/><path class="cls-2" d="M55.7 33.4c-1.9 6.2-6 12-11.3 16.8c-3.5 3.3-7.9 6.3-13.1 7.2c-4.4 .8-8.9 .1-13-1.3l-2.5 14.5c-0.2 1 .2 2 1 2.5c.9 .6 1.9 .7 2.8 .2l19.9-10.4c.1 0 .3-0.1 .5-0.1c.2 0 .4 .1 .6 .1l19.9 10.4c.9 .5 1.9 .4 2.7-0.2c.8-0.5 1.2-1.5 1-2.5l-3.8-22c0-0.4 .1-0.7 .4-1l16.1-15.6c.7-0.7 1-1.7 .6-2.6c-0.3-1-1-1.6-2-1.8l-18.6-2.7c.1 2.9-0.3 5.7-1.1 8.5Z" fill="#2156f6"/><path class="cls-1" d="M16.1 28.1l.4 3.4l3.1-0.4l-0.5-3.4l-3 .3Z" fill="#9fbffb"/><path class="cls-1" d="M28.3 26.5l-6.4 .7l.5 3.4l7-1.4l.2-0.1c.4-0.1 .7-0.3 .9-0.7l7.3-19.9l-0.3-0.2l-9.2 18.2Z" fill="#9fbffb"/><path class="cls-4" d="M79.8 28.7c-0.6-1.8-2.1-3.1-4-3.4l-21.7-3.1l-9.7-19.5c-0.8-1.7-2.5-2.7-4.4-2.7c-1.9 0-3.6 1.1-4.4 2.7l-9.7 19.5l-21.7 3.1c-1.8 .3-3.4 1.6-4 3.4c-0.5 1.8-0.1 3.7 1.3 5l15.7 15.1l-3.7 21.5c-0.4 1.8 .4 3.6 1.9 4.7c1.6 1.1 3.5 1.3 5.2 .4l19.4-10.1l19.4 10.1c.7 .4 1.5 .6 2.3 .6c1 0 2-0.3 2.9-1c1.5-1.1 2.2-2.9 1.9-4.7l-3.7-21.5l15.7-15.1c1.4-1.3 1.8-3.3 1.2-5Zm-39.2 34.3c-0.2-0.1-0.4-0.2-0.6-0.2c-0.2 0-0.4 .1-0.5 .2l-20 10.4c-0.9 .4-1.9 .3-2.7-0.2c-0.8-0.6-1.2-1.6-1-2.5l2.5-14.6l1.3-7.4c.1-0.4-0.1-0.8-0.4-1.1l-16.1-15.6c-0.7-0.7-0.9-1.7-0.6-2.6c.3-1 1.1-1.6 2.1-1.7l22.2-3.3c.4 0 .8-0.2 .9-0.6l10-20c.4-0.9 1.3-1.5 2.3-1.5c1 0 1.9 .6 2.3 1.5l10 20c.1 .4 .5 .6 .9 .6l3.7 .6l18.5 2.7c1 .1 1.8 .8 2.1 1.7c.3 1 .1 1.9-0.6 2.6l-16.1 15.6c-0.3 .3-0.4 .7-0.4 1.1l3.8 22c.2 1-0.2 1.9-1 2.5c-0.8 .6-1.8 .6-2.7 .2l-20-10.4Z" fill="#fff" style="isolation: isolate;"/></g><g opacity="1" transform="translate(560.9,127.6)" style="animation: 5.8s linear infinite both a3_o;"><path class="cls-3" d="M52.3 23.8l-10-20c-0.4-0.9-1.3-1.5-2.3-1.5c-1 0-1.9 .6-2.3 1.5l-10 20c-0.1 .4-0.5 .6-0.9 .6l-22.2 3.2c-1 .2-1.8 .8-2.1 1.8c-0.3 .9-0.1 1.9 .6 2.6l16.2 15.6c.2 .3 .4 .7 .3 1l-1.3 7.5c4.1 1.4 8.6 2.1 12.9 1.3c5.3-0.9 9.7-3.9 13.2-7.2c5.3-4.8 9.4-10.6 11.3-16.8c.9-2.7 1.2-5.6 1.2-8.4l-3.7-0.6c-0.4 0-0.8-0.2-0.9-0.6Zm-35.8 7.7l-0.4-3.4l3-0.4l.5 3.4c0 0-3.1 .4-3.1 .4Zm14-3.2c-0.2 .4-0.5 .7-0.9 .8l-0.2 .1l-7 1.4l-0.5-3.4l6.4-0.7l9.2-18.2l.3 .1l-7.3 19.9Z" fill="#2a6ef7"/><path class="cls-2" d="M55.7 33.4c-1.9 6.2-6 12-11.3 16.8c-3.5 3.3-7.9 6.3-13.1 7.2c-4.4 .8-8.9 .1-13-1.3l-2.5 14.5c-0.2 1 .2 2 1 2.5c.9 .6 1.9 .7 2.8 .2l19.9-10.4c.1 0 .3-0.1 .5-0.1c.2 0 .4 .1 .6 .1l19.9 10.4c.9 .5 1.9 .4 2.7-0.2c.8-0.5 1.2-1.5 1-2.5l-3.8-22c0-0.4 .1-0.7 .4-1l16.1-15.6c.7-0.7 1-1.7 .6-2.6c-0.3-1-1-1.6-2-1.8l-18.6-2.7c.1 2.9-0.3 5.7-1.1 8.5Z" fill="#2156f6"/><path class="cls-1" d="M16.1 28.1l.4 3.4l3.1-0.4l-0.5-3.4l-3 .3Z" fill="#9fbffb"/><path class="cls-1" d="M28.3 26.5l-6.4 .7l.5 3.4l7-1.4l.2-0.1c.4-0.1 .7-0.3 .9-0.7l7.3-19.9l-0.3-0.2l-9.2 18.2Z" fill="#9fbffb"/><path class="cls-4" d="M79.8 28.7c-0.6-1.8-2.1-3.1-4-3.4l-21.7-3.1l-9.7-19.5c-0.8-1.7-2.5-2.7-4.4-2.7c-1.9 0-3.6 1.1-4.4 2.7l-9.7 19.5l-21.7 3.1c-1.8 .3-3.4 1.6-4 3.4c-0.5 1.8-0.1 3.7 1.3 5l15.7 15.1l-3.7 21.5c-0.4 1.8 .4 3.6 1.9 4.7c1.6 1.1 3.5 1.3 5.2 .4l19.4-10.1l19.4 10.1c.7 .4 1.5 .6 2.3 .6c1 0 2-0.3 2.9-1c1.5-1.1 2.2-2.9 1.9-4.7l-3.7-21.5l15.7-15.1c1.4-1.3 1.8-3.3 1.2-5Zm-39.2 34.3c-0.2-0.1-0.4-0.2-0.6-0.2c-0.2 0-0.4 .1-0.5 .2l-20 10.4c-0.9 .4-1.9 .3-2.7-0.2c-0.8-0.6-1.2-1.6-1-2.5l2.5-14.6l1.3-7.4c.1-0.4-0.1-0.8-0.4-1.1l-16.1-15.6c-0.7-0.7-0.9-1.7-0.6-2.6c.3-1 1.1-1.6 2.1-1.7l22.2-3.3c.4 0 .8-0.2 .9-0.6l10-20c.4-0.9 1.3-1.5 2.3-1.5c1 0 1.9 .6 2.3 1.5l10 20c.1 .4 .5 .6 .9 .6l3.7 .6l18.5 2.7c1 .1 1.8 .8 2.1 1.7c.3 1 .1 1.9-0.6 2.6l-16.1 15.6c-0.3 .3-0.4 .7-0.4 1.1l3.8 22c.2 1-0.2 1.9-1 2.5c-0.8 .6-1.8 .6-2.7 .2l-20-10.4Z" fill="#fff" style="isolation: isolate;"/></g><g opacity="1" transform="translate(2066.5,727.6)" style="animation: 5.8s linear infinite both a4_o;"><path class="cls-3" d="M52.3 23.8l-10-20c-0.4-0.9-1.3-1.5-2.3-1.5c-1 0-1.9 .6-2.3 1.5l-10 20c-0.1 .4-0.5 .6-0.9 .6l-22.2 3.2c-1 .2-1.8 .8-2.1 1.8c-0.3 .9-0.1 1.9 .6 2.6l16.2 15.6c.2 .3 .4 .7 .3 1l-1.3 7.5c4.1 1.4 8.6 2.1 12.9 1.3c5.3-0.9 9.7-3.9 13.2-7.2c5.3-4.8 9.4-10.6 11.3-16.8c.9-2.7 1.2-5.6 1.2-8.4l-3.7-0.6c-0.4 0-0.8-0.2-0.9-0.6Zm-35.8 7.7l-0.4-3.4l3-0.4l.5 3.4c0 0-3.1 .4-3.1 .4Zm14-3.2c-0.2 .4-0.5 .7-0.9 .8l-0.2 .1l-7 1.4l-0.5-3.4l6.4-0.7l9.2-18.2l.3 .1l-7.3 19.9Z" fill="#2a6ef7"/><path class="cls-2" d="M55.7 33.4c-1.9 6.2-6 12-11.3 16.8c-3.5 3.3-7.9 6.3-13.1 7.2c-4.4 .8-8.9 .1-13-1.3l-2.5 14.5c-0.2 1 .2 2 1 2.5c.9 .6 1.9 .7 2.8 .2l19.9-10.4c.1 0 .3-0.1 .5-0.1c.2 0 .4 .1 .6 .1l19.9 10.4c.9 .5 1.9 .4 2.7-0.2c.8-0.5 1.2-1.5 1-2.5l-3.8-22c0-0.4 .1-0.7 .4-1l16.1-15.6c.7-0.7 1-1.7 .6-2.6c-0.3-1-1-1.6-2-1.8l-18.6-2.7c.1 2.9-0.3 5.7-1.1 8.5Z" fill="#2156f6"/><path class="cls-1" d="M16.1 28.1l.4 3.4l3.1-0.4l-0.5-3.4l-3 .3Z" fill="#9fbffb"/><path class="cls-1" d="M28.3 26.5l-6.4 .7l.5 3.4l7-1.4l.2-0.1c.4-0.1 .7-0.3 .9-0.7l7.3-19.9l-0.3-0.2l-9.2 18.2Z" fill="#9fbffb"/><path class="cls-4" d="M79.8 28.7c-0.6-1.8-2.1-3.1-4-3.4l-21.7-3.1l-9.7-19.5c-0.8-1.7-2.5-2.7-4.4-2.7c-1.9 0-3.6 1.1-4.4 2.7l-9.7 19.5l-21.7 3.1c-1.8 .3-3.4 1.6-4 3.4c-0.5 1.8-0.1 3.7 1.3 5l15.7 15.1l-3.7 21.5c-0.4 1.8 .4 3.6 1.9 4.7c1.6 1.1 3.5 1.3 5.2 .4l19.4-10.1l19.4 10.1c.7 .4 1.5 .6 2.3 .6c1 0 2-0.3 2.9-1c1.5-1.1 2.2-2.9 1.9-4.7l-3.7-21.5l15.7-15.1c1.4-1.3 1.8-3.3 1.2-5Zm-39.2 34.3c-0.2-0.1-0.4-0.2-0.6-0.2c-0.2 0-0.4 .1-0.5 .2l-20 10.4c-0.9 .4-1.9 .3-2.7-0.2c-0.8-0.6-1.2-1.6-1-2.5l2.5-14.6l1.3-7.4c.1-0.4-0.1-0.8-0.4-1.1l-16.1-15.6c-0.7-0.7-0.9-1.7-0.6-2.6c.3-1 1.1-1.6 2.1-1.7l22.2-3.3c.4 0 .8-0.2 .9-0.6l10-20c.4-0.9 1.3-1.5 2.3-1.5c1 0 1.9 .6 2.3 1.5l10 20c.1 .4 .5 .6 .9 .6l3.7 .6l18.5 2.7c1 .1 1.8 .8 2.1 1.7c.3 1 .1 1.9-0.6 2.6l-16.1 15.6c-0.3 .3-0.4 .7-0.4 1.1l3.8 22c.2 1-0.2 1.9-1 2.5c-0.8 .6-1.8 .6-2.7 .2l-20-10.4Z" fill="#fff" style="isolation: isolate;"/></g><g opacity="1" transform="translate(1505.6,361.2)" style="animation: 5.8s linear infinite both a5_o;"><path class="cls-3" d="M52.3 23.8l-10-20c-0.4-0.9-1.3-1.5-2.3-1.5c-1 0-1.9 .6-2.3 1.5l-10 20c-0.1 .4-0.5 .6-0.9 .6l-22.2 3.2c-1 .2-1.8 .8-2.1 1.8c-0.3 .9-0.1 1.9 .6 2.6l16.2 15.6c.2 .3 .4 .7 .3 1l-1.3 7.5c4.1 1.4 8.6 2.1 12.9 1.3c5.3-0.9 9.7-3.9 13.2-7.2c5.3-4.8 9.4-10.6 11.3-16.8c.9-2.7 1.2-5.6 1.2-8.4l-3.7-0.6c-0.4 0-0.8-0.2-0.9-0.6Zm-35.8 7.7l-0.4-3.4l3-0.4l.5 3.4c0 0-3.1 .4-3.1 .4Zm14-3.2c-0.2 .4-0.5 .7-0.9 .8l-0.2 .1l-7 1.4l-0.5-3.4l6.4-0.7l9.2-18.2l.3 .1l-7.3 19.9Z" fill="#2a6ef7"/><path class="cls-2" d="M55.7 33.4c-1.9 6.2-6 12-11.3 16.8c-3.5 3.3-7.9 6.3-13.1 7.2c-4.4 .8-8.9 .1-13-1.3l-2.5 14.5c-0.2 1 .2 2 1 2.5c.9 .6 1.9 .7 2.8 .2l19.9-10.4c.1 0 .3-0.1 .5-0.1c.2 0 .4 .1 .6 .1l19.9 10.4c.9 .5 1.9 .4 2.7-0.2c.8-0.5 1.2-1.5 1-2.5l-3.8-22c0-0.4 .1-0.7 .4-1l16.1-15.6c.7-0.7 1-1.7 .6-2.6c-0.3-1-1-1.6-2-1.8l-18.6-2.7c.1 2.9-0.3 5.7-1.1 8.5Z" fill="#2156f6"/><path class="cls-1" d="M16.1 28.1l.4 3.4l3.1-0.4l-0.5-3.4l-3 .3Z" fill="#9fbffb"/><path class="cls-1" d="M28.3 26.5l-6.4 .7l.5 3.4l7-1.4l.2-0.1c.4-0.1 .7-0.3 .9-0.7l7.3-19.9l-0.3-0.2l-9.2 18.2Z" fill="#9fbffb"/><path class="cls-4" d="M79.8 28.7c-0.6-1.8-2.1-3.1-4-3.4l-21.7-3.1l-9.7-19.5c-0.8-1.7-2.5-2.7-4.4-2.7c-1.9 0-3.6 1.1-4.4 2.7l-9.7 19.5l-21.7 3.1c-1.8 .3-3.4 1.6-4 3.4c-0.5 1.8-0.1 3.7 1.3 5l15.7 15.1l-3.7 21.5c-0.4 1.8 .4 3.6 1.9 4.7c1.6 1.1 3.5 1.3 5.2 .4l19.4-10.1l19.4 10.1c.7 .4 1.5 .6 2.3 .6c1 0 2-0.3 2.9-1c1.5-1.1 2.2-2.9 1.9-4.7l-3.7-21.5l15.7-15.1c1.4-1.3 1.8-3.3 1.2-5Zm-39.2 34.3c-0.2-0.1-0.4-0.2-0.6-0.2c-0.2 0-0.4 .1-0.5 .2l-20 10.4c-0.9 .4-1.9 .3-2.7-0.2c-0.8-0.6-1.2-1.6-1-2.5l2.5-14.6l1.3-7.4c.1-0.4-0.1-0.8-0.4-1.1l-16.1-15.6c-0.7-0.7-0.9-1.7-0.6-2.6c.3-1 1.1-1.6 2.1-1.7l22.2-3.3c.4 0 .8-0.2 .9-0.6l10-20c.4-0.9 1.3-1.5 2.3-1.5c1 0 1.9 .6 2.3 1.5l10 20c.1 .4 .5 .6 .9 .6l3.7 .6l18.5 2.7c1 .1 1.8 .8 2.1 1.7c.3 1 .1 1.9-0.6 2.6l-16.1 15.6c-0.3 .3-0.4 .7-0.4 1.1l3.8 22c.2 1-0.2 1.9-1 2.5c-0.8 .6-1.8 .6-2.7 .2l-20-10.4Z" fill="#fff" style="isolation: isolate;"/></g><g opacity="1" transform="translate(154.4,485)" style="animation: 5.8s linear infinite both a6_o;"><path class="cls-1" d="M52.3 23.8l-10-20c-0.4-0.9-1.3-1.5-2.3-1.5c-1 0-1.9 .6-2.3 1.5l-10 20c-0.1 .4-0.5 .6-0.9 .6l-22.2 3.2c-1 .2-1.8 .8-2.1 1.8c-0.3 .9-0.1 1.9 .6 2.6l16.2 15.6c.2 .3 .4 .7 .3 1l-1.3 7.5c4.1 1.4 8.6 2.1 12.9 1.3c5.3-0.9 9.7-3.9 13.2-7.2c5.3-4.8 9.4-10.6 11.3-16.8c.9-2.7 1.2-5.6 1.2-8.4l-3.7-0.6c-0.4 0-0.8-0.2-0.9-0.6Zm-35.8 7.7l-0.4-3.4l3-0.4l.5 3.4c0 0-3.1 .4-3.1 .4Zm14-3.2c-0.2 .4-0.5 .7-0.9 .8l-0.2 .1l-7 1.4l-0.5-3.4l6.4-0.7l9.2-18.2l.3 .1l-7.3 19.9Z" fill="#00b620"/><g><path class="cls-2" d="M16.1 28.1l.4 3.4l3.1-0.4l-0.5-3.4l-3 .3Z" fill="#8be09d"/><path class="cls-2" d="M28.3 26.5l-6.4 .7l.5 3.4l7-1.4l.2-0.1c.4-0.1 .7-0.3 .9-0.7l7.3-19.9l-0.3-0.2l-9.2 18.2Z" fill="#8be09d"/></g><path class="cls-4" d="M79.8 28.7c-0.6-1.8-2.1-3.1-4-3.4l-21.7-3.1l-9.7-19.5c-0.8-1.7-2.5-2.7-4.4-2.7c-1.9 0-3.6 1.1-4.4 2.7l-9.7 19.5l-21.7 3.1c-1.8 .3-3.4 1.6-4 3.4c-0.5 1.8-0.1 3.7 1.3 5l15.7 15.1l-3.7 21.5c-0.4 1.8 .4 3.6 1.9 4.7c1.6 1.1 3.5 1.3 5.2 .4l19.4-10.1l19.4 10.1c.7 .4 1.5 .6 2.3 .6c1 0 2-0.3 2.9-1c1.5-1.1 2.2-2.9 1.9-4.7l-3.7-21.5l15.7-15.1c1.4-1.3 1.8-3.3 1.2-5Zm-39.2 34.3c-0.2-0.1-0.4-0.2-0.6-0.2c-0.2 0-0.4 .1-0.5 .2l-20 10.4c-0.9 .4-1.9 .3-2.7-0.2c-0.8-0.6-1.2-1.6-1-2.5l2.5-14.6l1.3-7.4c.1-0.4-0.1-0.8-0.4-1.1l-16.1-15.6c-0.7-0.7-0.9-1.7-0.6-2.6c.3-1 1.1-1.6 2.1-1.7l22.2-3.3c.4 0 .8-0.2 .9-0.6l10-20c.4-0.9 1.3-1.5 2.3-1.5c1 0 1.9 .6 2.3 1.5l10 20c.1 .4 .5 .6 .9 .6l3.7 .6l18.5 2.7c1 .1 1.8 .8 2.1 1.7c.3 1 .1 1.9-0.6 2.6l-16.1 15.6c-0.3 .3-0.4 .7-0.4 1.1l3.8 22c.2 1-0.2 1.9-1 2.5c-0.8 .6-1.8 .6-2.7 .2l-20-10.4Z" fill="#fff" style="isolation: isolate;"/><path class="cls-3" d="M55.7 33.4c-1.9 6.2-6 12-11.3 16.8c-3.5 3.3-7.9 6.3-13.1 7.2c-4.4 .8-8.9 .1-13-1.3l-2.5 14.5c-0.2 1 .2 2 1 2.5c.9 .6 1.9 .7 2.8 .2l19.9-10.4c.1 0 .3-0.1 .5-0.1c.2 0 .4 .1 .6 .1l19.9 10.4c.9 .5 1.9 .4 2.7-0.2c.8-0.5 1.2-1.5 1-2.5l-3.8-22c0-0.4 .1-0.7 .4-1l16.1-15.6c.7-0.7 1-1.7 .6-2.6c-0.3-1-1-1.6-2-1.8l-18.6-2.7c.1 2.9-0.3 5.7-1.1 8.5Z" fill="#04ab29"/></g><g opacity="1" transform="translate(811.1,360)" style="animation: 5.8s linear infinite both a7_o;"><path class="cls-1" d="M52.3 23.8l-10-20c-0.4-0.9-1.3-1.5-2.3-1.5c-1 0-1.9 .6-2.3 1.5l-10 20c-0.1 .4-0.5 .6-0.9 .6l-22.2 3.2c-1 .2-1.8 .8-2.1 1.8c-0.3 .9-0.1 1.9 .6 2.6l16.2 15.6c.2 .3 .4 .7 .3 1l-1.3 7.5c4.1 1.4 8.6 2.1 12.9 1.3c5.3-0.9 9.7-3.9 13.2-7.2c5.3-4.8 9.4-10.6 11.3-16.8c.9-2.7 1.2-5.6 1.2-8.4l-3.7-0.6c-0.4 0-0.8-0.2-0.9-0.6Zm-35.8 7.7l-0.4-3.4l3-0.4l.5 3.4c0 0-3.1 .4-3.1 .4Zm14-3.2c-0.2 .4-0.5 .7-0.9 .8l-0.2 .1l-7 1.4l-0.5-3.4l6.4-0.7l9.2-18.2l.3 .1l-7.3 19.9Z" fill="#00b620"/><g><path class="cls-2" d="M16.1 28.1l.4 3.4l3.1-0.4l-0.5-3.4l-3 .3Z" fill="#8be09d"/><path class="cls-2" d="M28.3 26.5l-6.4 .7l.5 3.4l7-1.4l.2-0.1c.4-0.1 .7-0.3 .9-0.7l7.3-19.9l-0.3-0.2l-9.2 18.2Z" fill="#8be09d"/></g><path class="cls-4" d="M79.8 28.7c-0.6-1.8-2.1-3.1-4-3.4l-21.7-3.1l-9.7-19.5c-0.8-1.7-2.5-2.7-4.4-2.7c-1.9 0-3.6 1.1-4.4 2.7l-9.7 19.5l-21.7 3.1c-1.8 .3-3.4 1.6-4 3.4c-0.5 1.8-0.1 3.7 1.3 5l15.7 15.1l-3.7 21.5c-0.4 1.8 .4 3.6 1.9 4.7c1.6 1.1 3.5 1.3 5.2 .4l19.4-10.1l19.4 10.1c.7 .4 1.5 .6 2.3 .6c1 0 2-0.3 2.9-1c1.5-1.1 2.2-2.9 1.9-4.7l-3.7-21.5l15.7-15.1c1.4-1.3 1.8-3.3 1.2-5Zm-39.2 34.3c-0.2-0.1-0.4-0.2-0.6-0.2c-0.2 0-0.4 .1-0.5 .2l-20 10.4c-0.9 .4-1.9 .3-2.7-0.2c-0.8-0.6-1.2-1.6-1-2.5l2.5-14.6l1.3-7.4c.1-0.4-0.1-0.8-0.4-1.1l-16.1-15.6c-0.7-0.7-0.9-1.7-0.6-2.6c.3-1 1.1-1.6 2.1-1.7l22.2-3.3c.4 0 .8-0.2 .9-0.6l10-20c.4-0.9 1.3-1.5 2.3-1.5c1 0 1.9 .6 2.3 1.5l10 20c.1 .4 .5 .6 .9 .6l3.7 .6l18.5 2.7c1 .1 1.8 .8 2.1 1.7c.3 1 .1 1.9-0.6 2.6l-16.1 15.6c-0.3 .3-0.4 .7-0.4 1.1l3.8 22c.2 1-0.2 1.9-1 2.5c-0.8 .6-1.8 .6-2.7 .2l-20-10.4Z" fill="#fff" style="isolation: isolate;"/><path class="cls-3" d="M55.7 33.4c-1.9 6.2-6 12-11.3 16.8c-3.5 3.3-7.9 6.3-13.1 7.2c-4.4 .8-8.9 .1-13-1.3l-2.5 14.5c-0.2 1 .2 2 1 2.5c.9 .6 1.9 .7 2.8 .2l19.9-10.4c.1 0 .3-0.1 .5-0.1c.2 0 .4 .1 .6 .1l19.9 10.4c.9 .5 1.9 .4 2.7-0.2c.8-0.5 1.2-1.5 1-2.5l-3.8-22c0-0.4 .1-0.7 .4-1l16.1-15.6c.7-0.7 1-1.7 .6-2.6c-0.3-1-1-1.6-2-1.8l-18.6-2.7c.1 2.9-0.3 5.7-1.1 8.5Z" fill="#04ab29"/></g><g opacity="1" transform="translate(1387.6,153.9)" style="animation: 5.8s linear infinite both a8_o;"><path class="cls-1" d="M52.3 23.8l-10-20c-0.4-0.9-1.3-1.5-2.3-1.5c-1 0-1.9 .6-2.3 1.5l-10 20c-0.1 .4-0.5 .6-0.9 .6l-22.2 3.2c-1 .2-1.8 .8-2.1 1.8c-0.3 .9-0.1 1.9 .6 2.6l16.2 15.6c.2 .3 .4 .7 .3 1l-1.3 7.5c4.1 1.4 8.6 2.1 12.9 1.3c5.3-0.9 9.7-3.9 13.2-7.2c5.3-4.8 9.4-10.6 11.3-16.8c.9-2.7 1.2-5.6 1.2-8.4l-3.7-0.6c-0.4 0-0.8-0.2-0.9-0.6Zm-35.8 7.7l-0.4-3.4l3-0.4l.5 3.4c0 0-3.1 .4-3.1 .4Zm14-3.2c-0.2 .4-0.5 .7-0.9 .8l-0.2 .1l-7 1.4l-0.5-3.4l6.4-0.7l9.2-18.2l.3 .1l-7.3 19.9Z" fill="#00b620"/><g><path class="cls-2" d="M16.1 28.1l.4 3.4l3.1-0.4l-0.5-3.4l-3 .3Z" fill="#8be09d"/><path class="cls-2" d="M28.3 26.5l-6.4 .7l.5 3.4l7-1.4l.2-0.1c.4-0.1 .7-0.3 .9-0.7l7.3-19.9l-0.3-0.2l-9.2 18.2Z" fill="#8be09d"/></g><path class="cls-4" d="M79.8 28.7c-0.6-1.8-2.1-3.1-4-3.4l-21.7-3.1l-9.7-19.5c-0.8-1.7-2.5-2.7-4.4-2.7c-1.9 0-3.6 1.1-4.4 2.7l-9.7 19.5l-21.7 3.1c-1.8 .3-3.4 1.6-4 3.4c-0.5 1.8-0.1 3.7 1.3 5l15.7 15.1l-3.7 21.5c-0.4 1.8 .4 3.6 1.9 4.7c1.6 1.1 3.5 1.3 5.2 .4l19.4-10.1l19.4 10.1c.7 .4 1.5 .6 2.3 .6c1 0 2-0.3 2.9-1c1.5-1.1 2.2-2.9 1.9-4.7l-3.7-21.5l15.7-15.1c1.4-1.3 1.8-3.3 1.2-5Zm-39.2 34.3c-0.2-0.1-0.4-0.2-0.6-0.2c-0.2 0-0.4 .1-0.5 .2l-20 10.4c-0.9 .4-1.9 .3-2.7-0.2c-0.8-0.6-1.2-1.6-1-2.5l2.5-14.6l1.3-7.4c.1-0.4-0.1-0.8-0.4-1.1l-16.1-15.6c-0.7-0.7-0.9-1.7-0.6-2.6c.3-1 1.1-1.6 2.1-1.7l22.2-3.3c.4 0 .8-0.2 .9-0.6l10-20c.4-0.9 1.3-1.5 2.3-1.5c1 0 1.9 .6 2.3 1.5l10 20c.1 .4 .5 .6 .9 .6l3.7 .6l18.5 2.7c1 .1 1.8 .8 2.1 1.7c.3 1 .1 1.9-0.6 2.6l-16.1 15.6c-0.3 .3-0.4 .7-0.4 1.1l3.8 22c.2 1-0.2 1.9-1 2.5c-0.8 .6-1.8 .6-2.7 .2l-20-10.4Z" fill="#fff" style="isolation: isolate;"/><path class="cls-3" d="M55.7 33.4c-1.9 6.2-6 12-11.3 16.8c-3.5 3.3-7.9 6.3-13.1 7.2c-4.4 .8-8.9 .1-13-1.3l-2.5 14.5c-0.2 1 .2 2 1 2.5c.9 .6 1.9 .7 2.8 .2l19.9-10.4c.1 0 .3-0.1 .5-0.1c.2 0 .4 .1 .6 .1l19.9 10.4c.9 .5 1.9 .4 2.7-0.2c.8-0.5 1.2-1.5 1-2.5l-3.8-22c0-0.4 .1-0.7 .4-1l16.1-15.6c.7-0.7 1-1.7 .6-2.6c-0.3-1-1-1.6-2-1.8l-18.6-2.7c.1 2.9-0.3 5.7-1.1 8.5Z" fill="#04ab29"/></g><g opacity="1" transform="translate(1662.2,632.8)" style="animation: 5.8s linear infinite both a9_o;"><path class="cls-1" d="M52.3 23.8l-10-20c-0.4-0.9-1.3-1.5-2.3-1.5c-1 0-1.9 .6-2.3 1.5l-10 20c-0.1 .4-0.5 .6-0.9 .6l-22.2 3.2c-1 .2-1.8 .8-2.1 1.8c-0.3 .9-0.1 1.9 .6 2.6l16.2 15.6c.2 .3 .4 .7 .3 1l-1.3 7.5c4.1 1.4 8.6 2.1 12.9 1.3c5.3-0.9 9.7-3.9 13.2-7.2c5.3-4.8 9.4-10.6 11.3-16.8c.9-2.7 1.2-5.6 1.2-8.4l-3.7-0.6c-0.4 0-0.8-0.2-0.9-0.6Zm-35.8 7.7l-0.4-3.4l3-0.4l.5 3.4c0 0-3.1 .4-3.1 .4Zm14-3.2c-0.2 .4-0.5 .7-0.9 .8l-0.2 .1l-7 1.4l-0.5-3.4l6.4-0.7l9.2-18.2l.3 .1l-7.3 19.9Z" fill="#00b620"/><g><path class="cls-2" d="M16.1 28.1l.4 3.4l3.1-0.4l-0.5-3.4l-3 .3Z" fill="#8be09d"/><path class="cls-2" d="M28.3 26.5l-6.4 .7l.5 3.4l7-1.4l.2-0.1c.4-0.1 .7-0.3 .9-0.7l7.3-19.9l-0.3-0.2l-9.2 18.2Z" fill="#8be09d"/></g><path class="cls-4" d="M79.8 28.7c-0.6-1.8-2.1-3.1-4-3.4l-21.7-3.1l-9.7-19.5c-0.8-1.7-2.5-2.7-4.4-2.7c-1.9 0-3.6 1.1-4.4 2.7l-9.7 19.5l-21.7 3.1c-1.8 .3-3.4 1.6-4 3.4c-0.5 1.8-0.1 3.7 1.3 5l15.7 15.1l-3.7 21.5c-0.4 1.8 .4 3.6 1.9 4.7c1.6 1.1 3.5 1.3 5.2 .4l19.4-10.1l19.4 10.1c.7 .4 1.5 .6 2.3 .6c1 0 2-0.3 2.9-1c1.5-1.1 2.2-2.9 1.9-4.7l-3.7-21.5l15.7-15.1c1.4-1.3 1.8-3.3 1.2-5Zm-39.2 34.3c-0.2-0.1-0.4-0.2-0.6-0.2c-0.2 0-0.4 .1-0.5 .2l-20 10.4c-0.9 .4-1.9 .3-2.7-0.2c-0.8-0.6-1.2-1.6-1-2.5l2.5-14.6l1.3-7.4c.1-0.4-0.1-0.8-0.4-1.1l-16.1-15.6c-0.7-0.7-0.9-1.7-0.6-2.6c.3-1 1.1-1.6 2.1-1.7l22.2-3.3c.4 0 .8-0.2 .9-0.6l10-20c.4-0.9 1.3-1.5 2.3-1.5c1 0 1.9 .6 2.3 1.5l10 20c.1 .4 .5 .6 .9 .6l3.7 .6l18.5 2.7c1 .1 1.8 .8 2.1 1.7c.3 1 .1 1.9-0.6 2.6l-16.1 15.6c-0.3 .3-0.4 .7-0.4 1.1l3.8 22c.2 1-0.2 1.9-1 2.5c-0.8 .6-1.8 .6-2.7 .2l-20-10.4Z" fill="#fff" style="isolation: isolate;"/><path class="cls-3" d="M55.7 33.4c-1.9 6.2-6 12-11.3 16.8c-3.5 3.3-7.9 6.3-13.1 7.2c-4.4 .8-8.9 .1-13-1.3l-2.5 14.5c-0.2 1 .2 2 1 2.5c.9 .6 1.9 .7 2.8 .2l19.9-10.4c.1 0 .3-0.1 .5-0.1c.2 0 .4 .1 .6 .1l19.9 10.4c.9 .5 1.9 .4 2.7-0.2c.8-0.5 1.2-1.5 1-2.5l-3.8-22c0-0.4 .1-0.7 .4-1l16.1-15.6c.7-0.7 1-1.7 .6-2.6c-0.3-1-1-1.6-2-1.8l-18.6-2.7c.1 2.9-0.3 5.7-1.1 8.5Z" fill="#04ab29"/></g><g opacity="1" transform="translate(2159.6,265.9)" style="animation: 5.8s linear infinite both a10_o;"><path class="cls-1" d="M52.3 23.8l-10-20c-0.4-0.9-1.3-1.5-2.3-1.5c-1 0-1.9 .6-2.3 1.5l-10 20c-0.1 .4-0.5 .6-0.9 .6l-22.2 3.2c-1 .2-1.8 .8-2.1 1.8c-0.3 .9-0.1 1.9 .6 2.6l16.2 15.6c.2 .3 .4 .7 .3 1l-1.3 7.5c4.1 1.4 8.6 2.1 12.9 1.3c5.3-0.9 9.7-3.9 13.2-7.2c5.3-4.8 9.4-10.6 11.3-16.8c.9-2.7 1.2-5.6 1.2-8.4l-3.7-0.6c-0.4 0-0.8-0.2-0.9-0.6Zm-35.8 7.7l-0.4-3.4l3-0.4l.5 3.4c0 0-3.1 .4-3.1 .4Zm14-3.2c-0.2 .4-0.5 .7-0.9 .8l-0.2 .1l-7 1.4l-0.5-3.4l6.4-0.7l9.2-18.2l.3 .1l-7.3 19.9Z" fill="#00b620"/><g><path class="cls-2" d="M16.1 28.1l.4 3.4l3.1-0.4l-0.5-3.4l-3 .3Z" fill="#8be09d"/><path class="cls-2" d="M28.3 26.5l-6.4 .7l.5 3.4l7-1.4l.2-0.1c.4-0.1 .7-0.3 .9-0.7l7.3-19.9l-0.3-0.2l-9.2 18.2Z" fill="#8be09d"/></g><path class="cls-4" d="M79.8 28.7c-0.6-1.8-2.1-3.1-4-3.4l-21.7-3.1l-9.7-19.5c-0.8-1.7-2.5-2.7-4.4-2.7c-1.9 0-3.6 1.1-4.4 2.7l-9.7 19.5l-21.7 3.1c-1.8 .3-3.4 1.6-4 3.4c-0.5 1.8-0.1 3.7 1.3 5l15.7 15.1l-3.7 21.5c-0.4 1.8 .4 3.6 1.9 4.7c1.6 1.1 3.5 1.3 5.2 .4l19.4-10.1l19.4 10.1c.7 .4 1.5 .6 2.3 .6c1 0 2-0.3 2.9-1c1.5-1.1 2.2-2.9 1.9-4.7l-3.7-21.5l15.7-15.1c1.4-1.3 1.8-3.3 1.2-5Zm-39.2 34.3c-0.2-0.1-0.4-0.2-0.6-0.2c-0.2 0-0.4 .1-0.5 .2l-20 10.4c-0.9 .4-1.9 .3-2.7-0.2c-0.8-0.6-1.2-1.6-1-2.5l2.5-14.6l1.3-7.4c.1-0.4-0.1-0.8-0.4-1.1l-16.1-15.6c-0.7-0.7-0.9-1.7-0.6-2.6c.3-1 1.1-1.6 2.1-1.7l22.2-3.3c.4 0 .8-0.2 .9-0.6l10-20c.4-0.9 1.3-1.5 2.3-1.5c1 0 1.9 .6 2.3 1.5l10 20c.1 .4 .5 .6 .9 .6l3.7 .6l18.5 2.7c1 .1 1.8 .8 2.1 1.7c.3 1 .1 1.9-0.6 2.6l-16.1 15.6c-0.3 .3-0.4 .7-0.4 1.1l3.8 22c.2 1-0.2 1.9-1 2.5c-0.8 .6-1.8 .6-2.7 .2l-20-10.4Z" fill="#fff" style="isolation: isolate;"/><path class="cls-3" d="M55.7 33.4c-1.9 6.2-6 12-11.3 16.8c-3.5 3.3-7.9 6.3-13.1 7.2c-4.4 .8-8.9 .1-13-1.3l-2.5 14.5c-0.2 1 .2 2 1 2.5c.9 .6 1.9 .7 2.8 .2l19.9-10.4c.1 0 .3-0.1 .5-0.1c.2 0 .4 .1 .6 .1l19.9 10.4c.9 .5 1.9 .4 2.7-0.2c.8-0.5 1.2-1.5 1-2.5l-3.8-22c0-0.4 .1-0.7 .4-1l16.1-15.6c.7-0.7 1-1.7 .6-2.6c-0.3-1-1-1.6-2-1.8l-18.6-2.7c.1 2.9-0.3 5.7-1.1 8.5Z" fill="#04ab29"/></g><g opacity="1" transform="translate(916,637.4)" style="animation: 5.8s linear infinite both a11_o;"><path class="cls-1" d="M52.3 23.8l-10-20c-0.4-0.9-1.3-1.5-2.3-1.5c-1 0-1.9 .6-2.3 1.5l-10 20c-0.1 .4-0.5 .6-0.9 .6l-22.2 3.2c-1 .2-1.8 .8-2.1 1.8c-0.3 .9-0.1 1.9 .6 2.6l16.2 15.6c.2 .3 .4 .7 .3 1l-1.3 7.5c4.1 1.4 8.6 2.1 12.9 1.3c5.3-0.9 9.7-3.9 13.2-7.2c5.3-4.8 9.4-10.6 11.3-16.8c.9-2.7 1.2-5.6 1.2-8.4l-3.7-0.6c-0.4 0-0.8-0.2-0.9-0.6Zm-35.8 7.7l-0.4-3.4l3-0.4l.5 3.4c0 0-3.1 .4-3.1 .4Zm14-3.2c-0.2 .4-0.5 .7-0.9 .8l-0.2 .1l-7 1.4l-0.5-3.4l6.4-0.7l9.2-18.2l.3 .1l-7.3 19.9Z" fill="#00b620"/><g><path class="cls-2" d="M16.1 28.1l.4 3.4l3.1-0.4l-0.5-3.4l-3 .3Z" fill="#8be09d"/><path class="cls-2" d="M28.3 26.5l-6.4 .7l.5 3.4l7-1.4l.2-0.1c.4-0.1 .7-0.3 .9-0.7l7.3-19.9l-0.3-0.2l-9.2 18.2Z" fill="#8be09d"/></g><path class="cls-4" d="M79.8 28.7c-0.6-1.8-2.1-3.1-4-3.4l-21.7-3.1l-9.7-19.5c-0.8-1.7-2.5-2.7-4.4-2.7c-1.9 0-3.6 1.1-4.4 2.7l-9.7 19.5l-21.7 3.1c-1.8 .3-3.4 1.6-4 3.4c-0.5 1.8-0.1 3.7 1.3 5l15.7 15.1l-3.7 21.5c-0.4 1.8 .4 3.6 1.9 4.7c1.6 1.1 3.5 1.3 5.2 .4l19.4-10.1l19.4 10.1c.7 .4 1.5 .6 2.3 .6c1 0 2-0.3 2.9-1c1.5-1.1 2.2-2.9 1.9-4.7l-3.7-21.5l15.7-15.1c1.4-1.3 1.8-3.3 1.2-5Zm-39.2 34.3c-0.2-0.1-0.4-0.2-0.6-0.2c-0.2 0-0.4 .1-0.5 .2l-20 10.4c-0.9 .4-1.9 .3-2.7-0.2c-0.8-0.6-1.2-1.6-1-2.5l2.5-14.6l1.3-7.4c.1-0.4-0.1-0.8-0.4-1.1l-16.1-15.6c-0.7-0.7-0.9-1.7-0.6-2.6c.3-1 1.1-1.6 2.1-1.7l22.2-3.3c.4 0 .8-0.2 .9-0.6l10-20c.4-0.9 1.3-1.5 2.3-1.5c1 0 1.9 .6 2.3 1.5l10 20c.1 .4 .5 .6 .9 .6l3.7 .6l18.5 2.7c1 .1 1.8 .8 2.1 1.7c.3 1 .1 1.9-0.6 2.6l-16.1 15.6c-0.3 .3-0.4 .7-0.4 1.1l3.8 22c.2 1-0.2 1.9-1 2.5c-0.8 .6-1.8 .6-2.7 .2l-20-10.4Z" fill="#fff" style="isolation: isolate;"/><path class="cls-3" d="M55.7 33.4c-1.9 6.2-6 12-11.3 16.8c-3.5 3.3-7.9 6.3-13.1 7.2c-4.4 .8-8.9 .1-13-1.3l-2.5 14.5c-0.2 1 .2 2 1 2.5c.9 .6 1.9 .7 2.8 .2l19.9-10.4c.1 0 .3-0.1 .5-0.1c.2 0 .4 .1 .6 .1l19.9 10.4c.9 .5 1.9 .4 2.7-0.2c.8-0.5 1.2-1.5 1-2.5l-3.8-22c0-0.4 .1-0.7 .4-1l16.1-15.6c.7-0.7 1-1.7 .6-2.6c-0.3-1-1-1.6-2-1.8l-18.6-2.7c.1 2.9-0.3 5.7-1.1 8.5Z" fill="#04ab29"/></g><g opacity="1" transform="translate(389.8,367.2)" style="animation: 5.8s linear infinite both a12_o;"><path class="cls-1" d="M52.3 23.8l-10-20c-0.4-0.9-1.3-1.5-2.3-1.5c-1 0-1.9 .6-2.3 1.5l-10 20c-0.1 .4-0.5 .6-0.9 .6l-22.2 3.2c-1 .2-1.8 .8-2.1 1.8c-0.3 .9-0.1 1.9 .6 2.6l16.2 15.6c.2 .3 .4 .7 .3 1l-1.3 7.5c4.1 1.4 8.6 2.1 12.9 1.3c5.3-0.9 9.7-3.9 13.2-7.2c5.3-4.8 9.4-10.6 11.3-16.8c.9-2.7 1.2-5.6 1.2-8.4l-3.7-0.6c-0.4 0-0.8-0.2-0.9-0.6Zm-35.8 7.7l-0.4-3.4l3-0.4l.5 3.4c0 0-3.1 .4-3.1 .4Zm14-3.2c-0.2 .4-0.5 .7-0.9 .8l-0.2 .1l-7 1.4l-0.5-3.4l6.4-0.7l9.2-18.2l.3 .1l-7.3 19.9Z" fill="#fecb2c"/><g><path class="cls-3" d="M16.1 28.1l.4 3.4l3.1-0.4l-0.5-3.4l-3 .3Z" fill="#fee690"/><path class="cls-3" d="M28.3 26.5l-6.4 .7l.5 3.4l7-1.4l.2-0.1c.4-0.1 .7-0.3 .9-0.7l7.3-19.9l-0.3-0.2l-9.2 18.2Z" fill="#fee690"/></g><path class="cls-4" d="M79.8 28.7c-0.6-1.8-2.1-3.1-4-3.4l-21.7-3.1l-9.7-19.5c-0.8-1.7-2.5-2.7-4.4-2.7c-1.9 0-3.6 1.1-4.4 2.7l-9.7 19.5l-21.7 3.1c-1.8 .3-3.4 1.6-4 3.4c-0.5 1.8-0.1 3.7 1.3 5l15.7 15.1l-3.7 21.5c-0.4 1.8 .4 3.6 1.9 4.7c1.6 1.1 3.5 1.3 5.2 .4l19.4-10.1l19.4 10.1c.7 .4 1.5 .6 2.3 .6c1 0 2-0.3 2.9-1c1.5-1.1 2.2-2.9 1.9-4.7l-3.7-21.5l15.7-15.1c1.4-1.3 1.8-3.3 1.2-5Zm-39.2 34.3c-0.2-0.1-0.4-0.2-0.6-0.2c-0.2 0-0.4 .1-0.5 .2l-20 10.4c-0.9 .4-1.9 .3-2.7-0.2c-0.8-0.6-1.2-1.6-1-2.5l2.5-14.6l1.3-7.4c.1-0.4-0.1-0.8-0.4-1.1l-16.1-15.6c-0.7-0.7-0.9-1.7-0.6-2.6c.3-1 1.1-1.6 2.1-1.7l22.2-3.3c.4 0 .8-0.2 .9-0.6l10-20c.4-0.9 1.3-1.5 2.3-1.5c1 0 1.9 .6 2.3 1.5l10 20c.1 .4 .5 .6 .9 .6l3.7 .6l18.5 2.7c1 .1 1.8 .8 2.1 1.7c.3 1 .1 1.9-0.6 2.6l-16.1 15.6c-0.3 .3-0.4 .7-0.4 1.1l3.8 22c.2 1-0.2 1.9-1 2.5c-0.8 .6-1.8 .6-2.7 .2l-20-10.4Z" fill="#fff" style="isolation: isolate;"/><path class="cls-2" d="M55.7 33.4c-1.9 6.2-6 12-11.3 16.8c-3.5 3.3-7.9 6.3-13.1 7.2c-4.4 .8-8.9 .1-13-1.3l-2.5 14.5c-0.2 1 .2 2 1 2.5c.9 .6 1.9 .7 2.8 .2l19.9-10.4c.1 0 .3-0.1 .5-0.1c.2 0 .4 .1 .6 .1l19.9 10.4c.9 .5 1.9 .4 2.7-0.2c.8-0.5 1.2-1.5 1-2.5l-3.8-22c0-0.4 .1-0.7 .4-1l16.1-15.6c.7-0.7 1-1.7 .6-2.6c-0.3-1-1-1.6-2-1.8l-18.6-2.7c.1 2.9-0.3 5.7-1.1 8.5Z" fill="#ffbb29"/></g><g opacity="1" transform="translate(269.3,733.5)" style="animation: 5.8s linear infinite both a13_o;"><path class="cls-1" d="M52.3 23.8l-10-20c-0.4-0.9-1.3-1.5-2.3-1.5c-1 0-1.9 .6-2.3 1.5l-10 20c-0.1 .4-0.5 .6-0.9 .6l-22.2 3.2c-1 .2-1.8 .8-2.1 1.8c-0.3 .9-0.1 1.9 .6 2.6l16.2 15.6c.2 .3 .4 .7 .3 1l-1.3 7.5c4.1 1.4 8.6 2.1 12.9 1.3c5.3-0.9 9.7-3.9 13.2-7.2c5.3-4.8 9.4-10.6 11.3-16.8c.9-2.7 1.2-5.6 1.2-8.4l-3.7-0.6c-0.4 0-0.8-0.2-0.9-0.6Zm-35.8 7.7l-0.4-3.4l3-0.4l.5 3.4c0 0-3.1 .4-3.1 .4Zm14-3.2c-0.2 .4-0.5 .7-0.9 .8l-0.2 .1l-7 1.4l-0.5-3.4l6.4-0.7l9.2-18.2l.3 .1l-7.3 19.9Z" fill="#fecb2c"/><g><path class="cls-3" d="M16.1 28.1l.4 3.4l3.1-0.4l-0.5-3.4l-3 .3Z" fill="#fee690"/><path class="cls-3" d="M28.3 26.5l-6.4 .7l.5 3.4l7-1.4l.2-0.1c.4-0.1 .7-0.3 .9-0.7l7.3-19.9l-0.3-0.2l-9.2 18.2Z" fill="#fee690"/></g><path class="cls-4" d="M79.8 28.7c-0.6-1.8-2.1-3.1-4-3.4l-21.7-3.1l-9.7-19.5c-0.8-1.7-2.5-2.7-4.4-2.7c-1.9 0-3.6 1.1-4.4 2.7l-9.7 19.5l-21.7 3.1c-1.8 .3-3.4 1.6-4 3.4c-0.5 1.8-0.1 3.7 1.3 5l15.7 15.1l-3.7 21.5c-0.4 1.8 .4 3.6 1.9 4.7c1.6 1.1 3.5 1.3 5.2 .4l19.4-10.1l19.4 10.1c.7 .4 1.5 .6 2.3 .6c1 0 2-0.3 2.9-1c1.5-1.1 2.2-2.9 1.9-4.7l-3.7-21.5l15.7-15.1c1.4-1.3 1.8-3.3 1.2-5Zm-39.2 34.3c-0.2-0.1-0.4-0.2-0.6-0.2c-0.2 0-0.4 .1-0.5 .2l-20 10.4c-0.9 .4-1.9 .3-2.7-0.2c-0.8-0.6-1.2-1.6-1-2.5l2.5-14.6l1.3-7.4c.1-0.4-0.1-0.8-0.4-1.1l-16.1-15.6c-0.7-0.7-0.9-1.7-0.6-2.6c.3-1 1.1-1.6 2.1-1.7l22.2-3.3c.4 0 .8-0.2 .9-0.6l10-20c.4-0.9 1.3-1.5 2.3-1.5c1 0 1.9 .6 2.3 1.5l10 20c.1 .4 .5 .6 .9 .6l3.7 .6l18.5 2.7c1 .1 1.8 .8 2.1 1.7c.3 1 .1 1.9-0.6 2.6l-16.1 15.6c-0.3 .3-0.4 .7-0.4 1.1l3.8 22c.2 1-0.2 1.9-1 2.5c-0.8 .6-1.8 .6-2.7 .2l-20-10.4Z" fill="#fff" style="isolation: isolate;"/><path class="cls-2" d="M55.7 33.4c-1.9 6.2-6 12-11.3 16.8c-3.5 3.3-7.9 6.3-13.1 7.2c-4.4 .8-8.9 .1-13-1.3l-2.5 14.5c-0.2 1 .2 2 1 2.5c.9 .6 1.9 .7 2.8 .2l19.9-10.4c.1 0 .3-0.1 .5-0.1c.2 0 .4 .1 .6 .1l19.9 10.4c.9 .5 1.9 .4 2.7-0.2c.8-0.5 1.2-1.5 1-2.5l-3.8-22c0-0.4 .1-0.7 .4-1l16.1-15.6c.7-0.7 1-1.7 .6-2.6c-0.3-1-1-1.6-2-1.8l-18.6-2.7c.1 2.9-0.3 5.7-1.1 8.5Z" fill="#ffbb29"/></g><g opacity="1" transform="translate(1190.2,401.5)" style="animation: 5.8s linear infinite both a14_o;"><path class="cls-1" d="M52.3 23.8l-10-20c-0.4-0.9-1.3-1.5-2.3-1.5c-1 0-1.9 .6-2.3 1.5l-10 20c-0.1 .4-0.5 .6-0.9 .6l-22.2 3.2c-1 .2-1.8 .8-2.1 1.8c-0.3 .9-0.1 1.9 .6 2.6l16.2 15.6c.2 .3 .4 .7 .3 1l-1.3 7.5c4.1 1.4 8.6 2.1 12.9 1.3c5.3-0.9 9.7-3.9 13.2-7.2c5.3-4.8 9.4-10.6 11.3-16.8c.9-2.7 1.2-5.6 1.2-8.4l-3.7-0.6c-0.4 0-0.8-0.2-0.9-0.6Zm-35.8 7.7l-0.4-3.4l3-0.4l.5 3.4c0 0-3.1 .4-3.1 .4Zm14-3.2c-0.2 .4-0.5 .7-0.9 .8l-0.2 .1l-7 1.4l-0.5-3.4l6.4-0.7l9.2-18.2l.3 .1l-7.3 19.9Z" fill="#fecb2c"/><g><path class="cls-3" d="M16.1 28.1l.4 3.4l3.1-0.4l-0.5-3.4l-3 .3Z" fill="#fee690"/><path class="cls-3" d="M28.3 26.5l-6.4 .7l.5 3.4l7-1.4l.2-0.1c.4-0.1 .7-0.3 .9-0.7l7.3-19.9l-0.3-0.2l-9.2 18.2Z" fill="#fee690"/></g><path class="cls-4" d="M79.8 28.7c-0.6-1.8-2.1-3.1-4-3.4l-21.7-3.1l-9.7-19.5c-0.8-1.7-2.5-2.7-4.4-2.7c-1.9 0-3.6 1.1-4.4 2.7l-9.7 19.5l-21.7 3.1c-1.8 .3-3.4 1.6-4 3.4c-0.5 1.8-0.1 3.7 1.3 5l15.7 15.1l-3.7 21.5c-0.4 1.8 .4 3.6 1.9 4.7c1.6 1.1 3.5 1.3 5.2 .4l19.4-10.1l19.4 10.1c.7 .4 1.5 .6 2.3 .6c1 0 2-0.3 2.9-1c1.5-1.1 2.2-2.9 1.9-4.7l-3.7-21.5l15.7-15.1c1.4-1.3 1.8-3.3 1.2-5Zm-39.2 34.3c-0.2-0.1-0.4-0.2-0.6-0.2c-0.2 0-0.4 .1-0.5 .2l-20 10.4c-0.9 .4-1.9 .3-2.7-0.2c-0.8-0.6-1.2-1.6-1-2.5l2.5-14.6l1.3-7.4c.1-0.4-0.1-0.8-0.4-1.1l-16.1-15.6c-0.7-0.7-0.9-1.7-0.6-2.6c.3-1 1.1-1.6 2.1-1.7l22.2-3.3c.4 0 .8-0.2 .9-0.6l10-20c.4-0.9 1.3-1.5 2.3-1.5c1 0 1.9 .6 2.3 1.5l10 20c.1 .4 .5 .6 .9 .6l3.7 .6l18.5 2.7c1 .1 1.8 .8 2.1 1.7c.3 1 .1 1.9-0.6 2.6l-16.1 15.6c-0.3 .3-0.4 .7-0.4 1.1l3.8 22c.2 1-0.2 1.9-1 2.5c-0.8 .6-1.8 .6-2.7 .2l-20-10.4Z" fill="#fff" style="isolation: isolate;"/><path class="cls-2" d="M55.7 33.4c-1.9 6.2-6 12-11.3 16.8c-3.5 3.3-7.9 6.3-13.1 7.2c-4.4 .8-8.9 .1-13-1.3l-2.5 14.5c-0.2 1 .2 2 1 2.5c.9 .6 1.9 .7 2.8 .2l19.9-10.4c.1 0 .3-0.1 .5-0.1c.2 0 .4 .1 .6 .1l19.9 10.4c.9 .5 1.9 .4 2.7-0.2c.8-0.5 1.2-1.5 1-2.5l-3.8-22c0-0.4 .1-0.7 .4-1l16.1-15.6c.7-0.7 1-1.7 .6-2.6c-0.3-1-1-1.6-2-1.8l-18.6-2.7c.1 2.9-0.3 5.7-1.1 8.5Z" fill="#ffbb29"/></g><g opacity="1" transform="translate(1832.3,169.6)" style="animation: 5.8s linear infinite both a15_o;"><path class="cls-1" d="M52.3 23.8l-10-20c-0.4-0.9-1.3-1.5-2.3-1.5c-1 0-1.9 .6-2.3 1.5l-10 20c-0.1 .4-0.5 .6-0.9 .6l-22.2 3.2c-1 .2-1.8 .8-2.1 1.8c-0.3 .9-0.1 1.9 .6 2.6l16.2 15.6c.2 .3 .4 .7 .3 1l-1.3 7.5c4.1 1.4 8.6 2.1 12.9 1.3c5.3-0.9 9.7-3.9 13.2-7.2c5.3-4.8 9.4-10.6 11.3-16.8c.9-2.7 1.2-5.6 1.2-8.4l-3.7-0.6c-0.4 0-0.8-0.2-0.9-0.6Zm-35.8 7.7l-0.4-3.4l3-0.4l.5 3.4c0 0-3.1 .4-3.1 .4Zm14-3.2c-0.2 .4-0.5 .7-0.9 .8l-0.2 .1l-7 1.4l-0.5-3.4l6.4-0.7l9.2-18.2l.3 .1l-7.3 19.9Z" fill="#fecb2c"/><g><path class="cls-3" d="M16.1 28.1l.4 3.4l3.1-0.4l-0.5-3.4l-3 .3Z" fill="#fee690"/><path class="cls-3" d="M28.3 26.5l-6.4 .7l.5 3.4l7-1.4l.2-0.1c.4-0.1 .7-0.3 .9-0.7l7.3-19.9l-0.3-0.2l-9.2 18.2Z" fill="#fee690"/></g><path class="cls-4" d="M79.8 28.7c-0.6-1.8-2.1-3.1-4-3.4l-21.7-3.1l-9.7-19.5c-0.8-1.7-2.5-2.7-4.4-2.7c-1.9 0-3.6 1.1-4.4 2.7l-9.7 19.5l-21.7 3.1c-1.8 .3-3.4 1.6-4 3.4c-0.5 1.8-0.1 3.7 1.3 5l15.7 15.1l-3.7 21.5c-0.4 1.8 .4 3.6 1.9 4.7c1.6 1.1 3.5 1.3 5.2 .4l19.4-10.1l19.4 10.1c.7 .4 1.5 .6 2.3 .6c1 0 2-0.3 2.9-1c1.5-1.1 2.2-2.9 1.9-4.7l-3.7-21.5l15.7-15.1c1.4-1.3 1.8-3.3 1.2-5Zm-39.2 34.3c-0.2-0.1-0.4-0.2-0.6-0.2c-0.2 0-0.4 .1-0.5 .2l-20 10.4c-0.9 .4-1.9 .3-2.7-0.2c-0.8-0.6-1.2-1.6-1-2.5l2.5-14.6l1.3-7.4c.1-0.4-0.1-0.8-0.4-1.1l-16.1-15.6c-0.7-0.7-0.9-1.7-0.6-2.6c.3-1 1.1-1.6 2.1-1.7l22.2-3.3c.4 0 .8-0.2 .9-0.6l10-20c.4-0.9 1.3-1.5 2.3-1.5c1 0 1.9 .6 2.3 1.5l10 20c.1 .4 .5 .6 .9 .6l3.7 .6l18.5 2.7c1 .1 1.8 .8 2.1 1.7c.3 1 .1 1.9-0.6 2.6l-16.1 15.6c-0.3 .3-0.4 .7-0.4 1.1l3.8 22c.2 1-0.2 1.9-1 2.5c-0.8 .6-1.8 .6-2.7 .2l-20-10.4Z" fill="#fff" style="isolation: isolate;"/><path class="cls-2" d="M55.7 33.4c-1.9 6.2-6 12-11.3 16.8c-3.5 3.3-7.9 6.3-13.1 7.2c-4.4 .8-8.9 .1-13-1.3l-2.5 14.5c-0.2 1 .2 2 1 2.5c.9 .6 1.9 .7 2.8 .2l19.9-10.4c.1 0 .3-0.1 .5-0.1c.2 0 .4 .1 .6 .1l19.9 10.4c.9 .5 1.9 .4 2.7-0.2c.8-0.5 1.2-1.5 1-2.5l-3.8-22c0-0.4 .1-0.7 .4-1l16.1-15.6c.7-0.7 1-1.7 .6-2.6c-0.3-1-1-1.6-2-1.8l-18.6-2.7c.1 2.9-0.3 5.7-1.1 8.5Z" fill="#ffbb29"/></g><g opacity="1" transform="translate(1907.7,481.3)" style="animation: 5.8s linear infinite both a16_o;"><path class="cls-1" d="M52.3 23.8l-10-20c-0.4-0.9-1.3-1.5-2.3-1.5c-1 0-1.9 .6-2.3 1.5l-10 20c-0.1 .4-0.5 .6-0.9 .6l-22.2 3.2c-1 .2-1.8 .8-2.1 1.8c-0.3 .9-0.1 1.9 .6 2.6l16.2 15.6c.2 .3 .4 .7 .3 1l-1.3 7.5c4.1 1.4 8.6 2.1 12.9 1.3c5.3-0.9 9.7-3.9 13.2-7.2c5.3-4.8 9.4-10.6 11.3-16.8c.9-2.7 1.2-5.6 1.2-8.4l-3.7-0.6c-0.4 0-0.8-0.2-0.9-0.6Zm-35.8 7.7l-0.4-3.4l3-0.4l.5 3.4c0 0-3.1 .4-3.1 .4Zm14-3.2c-0.2 .4-0.5 .7-0.9 .8l-0.2 .1l-7 1.4l-0.5-3.4l6.4-0.7l9.2-18.2l.3 .1l-7.3 19.9Z" fill="#fecb2c"/><g><path class="cls-3" d="M16.1 28.1l.4 3.4l3.1-0.4l-0.5-3.4l-3 .3Z" fill="#fee690"/><path class="cls-3" d="M28.3 26.5l-6.4 .7l.5 3.4l7-1.4l.2-0.1c.4-0.1 .7-0.3 .9-0.7l7.3-19.9l-0.3-0.2l-9.2 18.2Z" fill="#fee690"/></g><path class="cls-4" d="M79.8 28.7c-0.6-1.8-2.1-3.1-4-3.4l-21.7-3.1l-9.7-19.5c-0.8-1.7-2.5-2.7-4.4-2.7c-1.9 0-3.6 1.1-4.4 2.7l-9.7 19.5l-21.7 3.1c-1.8 .3-3.4 1.6-4 3.4c-0.5 1.8-0.1 3.7 1.3 5l15.7 15.1l-3.7 21.5c-0.4 1.8 .4 3.6 1.9 4.7c1.6 1.1 3.5 1.3 5.2 .4l19.4-10.1l19.4 10.1c.7 .4 1.5 .6 2.3 .6c1 0 2-0.3 2.9-1c1.5-1.1 2.2-2.9 1.9-4.7l-3.7-21.5l15.7-15.1c1.4-1.3 1.8-3.3 1.2-5Zm-39.2 34.3c-0.2-0.1-0.4-0.2-0.6-0.2c-0.2 0-0.4 .1-0.5 .2l-20 10.4c-0.9 .4-1.9 .3-2.7-0.2c-0.8-0.6-1.2-1.6-1-2.5l2.5-14.6l1.3-7.4c.1-0.4-0.1-0.8-0.4-1.1l-16.1-15.6c-0.7-0.7-0.9-1.7-0.6-2.6c.3-1 1.1-1.6 2.1-1.7l22.2-3.3c.4 0 .8-0.2 .9-0.6l10-20c.4-0.9 1.3-1.5 2.3-1.5c1 0 1.9 .6 2.3 1.5l10 20c.1 .4 .5 .6 .9 .6l3.7 .6l18.5 2.7c1 .1 1.8 .8 2.1 1.7c.3 1 .1 1.9-0.6 2.6l-16.1 15.6c-0.3 .3-0.4 .7-0.4 1.1l3.8 22c.2 1-0.2 1.9-1 2.5c-0.8 .6-1.8 .6-2.7 .2l-20-10.4Z" fill="#fff" style="isolation: isolate;"/><path class="cls-2" d="M55.7 33.4c-1.9 6.2-6 12-11.3 16.8c-3.5 3.3-7.9 6.3-13.1 7.2c-4.4 .8-8.9 .1-13-1.3l-2.5 14.5c-0.2 1 .2 2 1 2.5c.9 .6 1.9 .7 2.8 .2l19.9-10.4c.1 0 .3-0.1 .5-0.1c.2 0 .4 .1 .6 .1l19.9 10.4c.9 .5 1.9 .4 2.7-0.2c.8-0.5 1.2-1.5 1-2.5l-3.8-22c0-0.4 .1-0.7 .4-1l16.1-15.6c.7-0.7 1-1.7 .6-2.6c-0.3-1-1-1.6-2-1.8l-18.6-2.7c.1 2.9-0.3 5.7-1.1 8.5Z" fill="#ffbb29"/></g><g opacity="1" transform="translate(1018.1,119.3)" style="animation: 5.8s linear infinite both a17_o;"><path class="cls-1" d="M52.3 23.8l-10-20c-0.4-0.9-1.3-1.5-2.3-1.5c-1 0-1.9 .6-2.3 1.5l-10 20c-0.1 .4-0.5 .6-0.9 .6l-22.2 3.2c-1 .2-1.8 .8-2.1 1.8c-0.3 .9-0.1 1.9 .6 2.6l16.2 15.6c.2 .3 .4 .7 .3 1l-1.3 7.5c4.1 1.4 8.6 2.1 12.9 1.3c5.3-0.9 9.7-3.9 13.2-7.2c5.3-4.8 9.4-10.6 11.3-16.8c.9-2.7 1.2-5.6 1.2-8.4l-3.7-0.6c-0.4 0-0.8-0.2-0.9-0.6Zm-35.8 7.7l-0.4-3.4l3-0.4l.5 3.4c0 0-3.1 .4-3.1 .4Zm14-3.2c-0.2 .4-0.5 .7-0.9 .8l-0.2 .1l-7 1.4l-0.5-3.4l6.4-0.7l9.2-18.2l.3 .1l-7.3 19.9Z" fill="#fecb2c"/><g><path class="cls-3" d="M16.1 28.1l.4 3.4l3.1-0.4l-0.5-3.4l-3 .3Z" fill="#fee690"/><path class="cls-3" d="M28.3 26.5l-6.4 .7l.5 3.4l7-1.4l.2-0.1c.4-0.1 .7-0.3 .9-0.7l7.3-19.9l-0.3-0.2l-9.2 18.2Z" fill="#fee690"/></g><path class="cls-4" d="M79.8 28.7c-0.6-1.8-2.1-3.1-4-3.4l-21.7-3.1l-9.7-19.5c-0.8-1.7-2.5-2.7-4.4-2.7c-1.9 0-3.6 1.1-4.4 2.7l-9.7 19.5l-21.7 3.1c-1.8 .3-3.4 1.6-4 3.4c-0.5 1.8-0.1 3.7 1.3 5l15.7 15.1l-3.7 21.5c-0.4 1.8 .4 3.6 1.9 4.7c1.6 1.1 3.5 1.3 5.2 .4l19.4-10.1l19.4 10.1c.7 .4 1.5 .6 2.3 .6c1 0 2-0.3 2.9-1c1.5-1.1 2.2-2.9 1.9-4.7l-3.7-21.5l15.7-15.1c1.4-1.3 1.8-3.3 1.2-5Zm-39.2 34.3c-0.2-0.1-0.4-0.2-0.6-0.2c-0.2 0-0.4 .1-0.5 .2l-20 10.4c-0.9 .4-1.9 .3-2.7-0.2c-0.8-0.6-1.2-1.6-1-2.5l2.5-14.6l1.3-7.4c.1-0.4-0.1-0.8-0.4-1.1l-16.1-15.6c-0.7-0.7-0.9-1.7-0.6-2.6c.3-1 1.1-1.6 2.1-1.7l22.2-3.3c.4 0 .8-0.2 .9-0.6l10-20c.4-0.9 1.3-1.5 2.3-1.5c1 0 1.9 .6 2.3 1.5l10 20c.1 .4 .5 .6 .9 .6l3.7 .6l18.5 2.7c1 .1 1.8 .8 2.1 1.7c.3 1 .1 1.9-0.6 2.6l-16.1 15.6c-0.3 .3-0.4 .7-0.4 1.1l3.8 22c.2 1-0.2 1.9-1 2.5c-0.8 .6-1.8 .6-2.7 .2l-20-10.4Z" fill="#fff" style="isolation: isolate;"/><path class="cls-2" d="M55.7 33.4c-1.9 6.2-6 12-11.3 16.8c-3.5 3.3-7.9 6.3-13.1 7.2c-4.4 .8-8.9 .1-13-1.3l-2.5 14.5c-0.2 1 .2 2 1 2.5c.9 .6 1.9 .7 2.8 .2l19.9-10.4c.1 0 .3-0.1 .5-0.1c.2 0 .4 .1 .6 .1l19.9 10.4c.9 .5 1.9 .4 2.7-0.2c.8-0.5 1.2-1.5 1-2.5l-3.8-22c0-0.4 .1-0.7 .4-1l16.1-15.6c.7-0.7 1-1.7 .6-2.6c-0.3-1-1-1.6-2-1.8l-18.6-2.7c.1 2.9-0.3 5.7-1.1 8.5Z" fill="#ffbb29"/></g></svg>