<svg xmlns="http://www.w3.org/2000/svg" id="Background" viewBox="0 0 2400 1600"><defs><linearGradient id="Gradient-0" x1="1200" y1="1094" x2="1200" y2="-113.9" gradientUnits="userSpaceOnUse"><stop offset="0" stop-color="#253371"/><stop offset=".5" stop-color="#202153"/><stop offset="1" stop-color="#101121"/></linearGradient><linearGradient id="Gradient-1" x1="1200" y1="123490" x2="1200" y2="1090" gradientUnits="userSpaceOnUse"><stop offset="0" stop-color="#373737"/><stop offset="1" stop-color="#202020"/></linearGradient></defs><style>
@keyframes a0_t { 0% { transform: translate(1200px,1126px) rotate(-5deg) translate(-363.5px,-279px); } 20% { transform: translate(1200px,1126px) rotate(10deg) translate(-363.5px,-279px); } 40% { transform: translate(1200px,1126px) rotate(-5deg) translate(-363.5px,-279px); } 60% { transform: translate(1200px,1126px) rotate(0deg) translate(-363.5px,-279px); } 80% { transform: translate(1200px,1126px) rotate(10deg) translate(-363.5px,-279px); } 100% { transform: translate(1200px,1126px) rotate(-5deg) translate(-363.5px,-279px); } }
</style><g><path class="st1" d="M18.7 1047.2c1.7-0.8 3.6-1.7 5.8-2.7c17.6-7.8 16.3-9.7 34.8-16.1c9.9-3.4 10.4-2.5 20.9-4.6c10.6-2 11.6 .4 21.4-3.2c10-3.6 8.4-5.6 17.2-10.7c8.9-5 10-3.9 18.8-9c8.7-5.2 7.5-6.4 16.2-11.6c8.7-5.2 7.7-6.6 17.5-10.5c10-3.9 11.3-1.5 22.1-4c10.7-2.4 10.5-7.1 21.5-5.5c11.6 1.7 9.4 5.8 18.9 11.1c9.5 5.4 9 6 18.4 11.4c8.9 5 9.6 5.2 17.4 9.6c4.8-1.4 5.3-2.1 11.6-3c15.6-2.2 15.9-0.2 31.5-2.5c15.5-2.3 14.8-4.7 30.1-7.8c15.4-3 16-1.2 31.4-4.1c7.8-1.5 7.7-6.3 15.6-4.8c7.8 1.6 5.1 5.7 11.3 9.8c6.3 4.1 6.7 3.6 12.9 7.8c4.4 3 3.8 3.5 8.6 6c4.9 2.6 5.6 1.2 11 2.9c5.4 1.7 5.2 2 10.4 4.1c8.9 3.7 9 3.6 17.2 8.3c6 3.4 6.7 5.8 10.1 8c6.4 .1 10.5 .5 22.3 .9c18.1 .8 18.2-0.2 36 2c13.2 1.6 12.9 2.5 25.6 5.6c12.7 3 12.8 2.8 25.4 6.2c12.6 3.3 12.2 4.2 24.7 7.8c12.5 3.5 13.7 1.4 25.5 6.1c11.8 4.7 10.8 6.1 21.7 11.8c1.4 .8 2.6 1.4 3.6 2c6.4-1.1 8.2-2.2 16-6.2c11.3-5.9 8.2-9.3 20.3-13.9c12.2-4.7 12.7-4.6 26.2-5c13.3-0.3 14.1-0.9 26.8 2.4c13 3.5 10.4 8.4 23.5 12c13 3.5 14.1 .4 27.7 2.2c13.7 1.7 13.4 3.2 27.2 4.2c8.3 .6 8.3-1.4 16.4 .2c8.1 1.6 7.1 3.2 14.9 5.5c7.8 2.3 8.7-0.2 16.3 2.4c10.9 3.6 9.7 5.6 19.7 10.6c8.2 4.1 10.8 3.8 16.3 7.1h222.9c9-4.4 12.3-3.3 25.6-4c14.4-0.7 14.2 1.4 28.5 2c14.2 .5 14.2 1 28.6 .7c13.7-0.4 13.6-2.5 27.3-2.5c13.7 0 13.1 2.2 26.9 2.3c13.6 0 13.9 .3 27.3-1.4c8.7-1.1 8.2-2.2 16.4-4c8.2-1.9 7.9-2.3 16.4-3.8c8.5-1.5 8.6-1.1 17.3-2.3c8.6-1.1 8.4-2.1 17.2-2.1c8.9-0.1 8.5 1.1 16.9 2.2c8.5 1 8.8 .6 17.2 1.7c7.6 1 8.9 1.4 14.1 2.2c.3-0.1 .7-0.3 1.1-0.4c11.1-4.8 9.4-7 18.8-13.7c9.4-6.8 7.8-8.4 18.4-13.9c10.6-5.4 11.7-3.7 23.2-7.7c11.6-3.9 10.4-8 23-8.6c12.1-0.7 11.4 3.9 23 6.7c11.7 2.7 13.7-0.8 24 4.3c9.3 4.6 12 8.4 15.5 12c6.6-1.4 9.5-1.2 20.2-2.4c9.8-1.1 9.8-1 19.6-1.6c9.9-0.6 10.8 1.3 19.8-1c9-2.3 7.1-3.7 13.9-7.5c7.9-4.4 8.3-4.3 15.3-9.1c7-4.8 4-6 12.7-10.1c8.1-3.7 9.3-3.1 19.5-5.1c9.7-1.8 10.4-0.5 19.9-2.6c9.7-2.1 10.7-1.7 18.4-5.3c7.8-3.6 5.2-4.8 11.9-8.9c6.6-4.1 6-4.5 14-7.9c7.8-3.4 7.5-5 17.5-5.6c10.1-0.6 8.5 3.8 18.6 3.9c8.7 0 10.2-0.3 16.7-3.4c7.5-3.6 2-5.5 9.3-9.2c5.6-2.9 7.7-4.7 14.7-3.2c13.2 3 10 5.2 19.6 10.6c9.6 5.3 10.4 5 19.1 10.7c8.6 5.8 6.9 6.4 14.6 12.5c6.7 5.2 6.2 5.4 13.5 10.4c7.2 4.9 5.6 5.9 16.1 8.9c10.8 3.1 12.4 .8 24.7 2.2c11.6 1.3 11.1 2.2 22.7 3.5c11.6 1.3 11.5 2.3 23.5 1.6c11.2-0.6 11.7-0.8 21-4.1c10.7-3.9 7.2-5.9 17.8-9.9c10.7-4.1 11.5-3.6 23.8-6.1c12.2-2.5 12.5-4.2 25.3-3.7c11.5 .5 10.2 2.7 19.8 5.7c9.7 3.1 8.3 4.2 18.4 6.8c9.8 2.6 9.8 3.6 21.1 3.8c7.1 .1 5.8-3.2 12.9-3.6c7.2-0.4 6.9 1.1 13.6 2c6.8 1 7.1 .6 13.1 2.4c8.3 2.5 7.3 3.1 14.8 6.1c7.6 3 7.7 2.9 15.8 5.5c8.2 2.6 7.5 3.3 16.8 4.8c10.5 1.6 11 .5 22 1.2c11 .6 10.8 1.4 21.9 1.3c11.1-0.1 11.1-0.5 22.2-1.4c10.3-0.8 11.4-0.1 19.8-1.8c3.9-1.2 6.9-1.8 9.5-2.3c3.5-1.2 5.2-2.3 11.3-4.6c7.4-2.8 7.5-6.4 13-7c4.2-4.4 4.1-7.8 10.8-15c9.2-9.9 8.8-10.2 19.1-19.4c7.3-6.6 8.5-5.5 16.8-11.3c8.2-5.8 5.3-10 16.1-11.7c5.3-0.8 8-0.2 10.5 .9v-979.7h-2400v1047.7c1-0.1 2-0.2 3.2-0.3c8-0.6 11.3-0.1 15.5-0.2Z" fill="url(#Gradient-0)"/><path class="st5" d="M18.7 1047.2c-4.2 .1-7.5-0.4-15.5 .2c-1.2 .1-2.2 .2-3.2 .2v8.7c7.1-2.9 10.1-5.1 18.7-9.1Z" fill="#121a5e"/><g><path class="st2" d="M698.3 1083.3c12.1 2.2 12 2.8 24.3 4.2c12.4 1.5 12.6 .8 25.1 1.4v1.1h159.7c-5.5-3.3-8.1-3-16.3-7.1c-10-5-8.8-7-19.7-10.6c-7.6-2.6-8.5-0.2-16.3-2.4c-7.8-2.3-6.8-3.9-14.9-5.5c-8.1-1.6-8.1 .4-16.4-0.2c-13.8-1-13.5-2.5-27.2-4.2c-13.6-1.8-14.7 1.3-27.7-2.2c-13.1-3.6-10.5-8.5-23.5-12c-12.7-3.3-13.5-2.8-26.8-2.4c-13.5 .4-14 .3-26.2 5c-12.1 4.6-9 8-20.3 13.9c-7.8 4-9.5 5.1-16 6.2c7.3 4.1 7.9 5.6 18.4 9.2c11.3 4 11.7 3.3 23.8 5.6Z" fill="#121a55"/><path class="st2" d="M290.8 1012.7c9.6 4.3 10.1 3.4 20.3 6.9c10.2 3.4 9.2 5.6 20.2 7.3c11 1.7 11.2-0.7 22.5-0.9c11.3-0.1 11.3 1 22.6 1.1c11.3 .1 11.2-0.1 22.5 .2c11.3 .2 11.3 .1 22.5-0.2c18.1-0.4 18.1-1 36.1-1.1c6.3 0 10.4 0 13.8 .1c-3.4-2.2-4.1-4.6-10.1-8c-8.2-4.7-8.3-4.6-17.2-8.3c-5.2-2.1-5-2.4-10.4-4.1c-5.4-1.7-6.1-0.3-11-2.9c-4.8-2.5-4.2-3-8.6-6c-6.2-4.2-6.6-3.7-12.9-7.8c-6.2-4.1-3.5-8.2-11.3-9.8c-7.9-1.5-7.8 3.3-15.6 4.8c-15.4 2.9-16 1.1-31.4 4.1c-15.3 3.1-14.6 5.5-30.1 7.8c-15.6 2.3-15.9 .3-31.5 2.5c-6.3 .9-6.8 1.6-11.6 3c.5 .4 1.1 .7 1.7 1.1c9.4 5.4 9.3 5.5 19.5 10.2Z" fill="#121a55"/><path class="st2" d="M1570.9 1068.8c17.4 7.5 18.3 7.8 38 8.5c19.5 .6 18.8-5.9 38.3-5.2c18.4 .7 18.4 2.1 35.4 7.8c9.8 3.4 13.5 7.1 17.8 10.1h41.1c3.2-1.6 7.1-3.4 12.9-5c10.2-2.8 10.3-2.7 20.4-5.6c10.1-2.9 9.7-3.9 20.4-5.1c10.8-1.1 10.7-0.3 21.5 .4c10.8 .8 11.3-0.8 21.6 1.7c10.5 2.5 9.9 3.8 19.6 8c5.1 2.2 7.1 4 9.5 5.6h94.1c2.1-0.4 4.5-1.1 7.9-2.2c11.3-3.6 10.4-4.9 21.2-9.3c10.7-4.5 10.6-4.7 21.9-8.2c15.1-4.8 15.4-4.1 31-7.8c15.5-3.8 14.9-6.2 31.1-7.7c16-1.4 16.2 .5 32.3 1.4c16.1 .8 16.2 .6 32.1 2.7c16 2.1 15.7 3 31.4 6.3c15.7 3.3 15.1 6.2 31.3 6.5c15.7 .4 15.3-2.5 30.6-5.1c15.2-2.7 15.4-2.2 30.2-6c14.8-3.9 14.2-4.8 28.5-9.8c.6-0.3 1.3-0.5 1.9-0.7c-8.4 1.7-9.6 1-19.8 1.8c-11.1 .9-11.1 1.3-22.2 1.4c-11.1 .1-10.9-0.7-21.9-1.3c-11-0.7-11.5 .4-22-1.2c-9.3-1.5-8.6-2.2-16.8-4.8c-8.2-2.6-8.2-2.5-15.8-5.5c-7.5-3-6.5-3.6-14.8-6.1c-6-1.8-6.3-1.4-13.1-2.4c-6.7-1-6.4-2.4-13.5-2c-7.2 .4-5.9 3.7-13 3.6c-11.3-0.2-11.3-1.2-21.1-3.8c-10.1-2.6-8.7-3.8-18.4-6.8c-9.6-3-8.3-5.2-19.8-5.7c-12.8-0.5-13.1 1.2-25.3 3.7c-12.3 2.4-13.1 2-23.8 6.1c-10.6 4-7 5.9-17.8 9.8c-9.3 3.4-9.8 3.6-21 4.2c-12 .7-11.9-0.3-23.5-1.6c-11.6-1.3-11.1-2.2-22.7-3.5c-12.2-1.4-13.9 .9-24.7-2.2c-10.5-3-8.9-4.1-16.1-8.9c-7.3-5-6.8-5.2-13.5-10.4c-7.7-6.1-6-6.7-14.6-12.5c-8.7-5.7-9.5-5.4-19.1-10.7c-9.7-5.4-6.4-7.6-19.6-10.6c-7-1.5-9.1 .3-14.7 3.2c-7.3 3.7-1.8 5.6-9.3 9.2c-6.5 3.1-8 3.4-16.7 3.4c-10.1-0.1-8.5-4.5-18.6-3.9c-10 .6-9.8 2.2-17.5 5.5c-8 3.5-7.4 3.9-14 8c-6.7 4.1-4.1 5.3-11.9 8.9c-7.7 3.6-8.7 3.2-18.4 5.3c-9.5 2.1-10.2 .8-19.9 2.6c-10.2 1.9-11.4 1.4-19.5 5.1c-8.7 4.1-5.7 5.2-12.7 10.1c-7 4.8-7.4 4.7-15.3 9.1c-6.8 3.8-5 5.2-13.9 7.5c-9 2.3-9.9 .4-19.8 1c-9.8 .6-9.8 .5-19.6 1.6c-10.7 1.2-13.6 1-20.2 2.4c2.8 2.9 6.2 5.8 13.9 9.1Z" fill="#121a55"/></g><path class="st5" d="M1378.3 1088.4c15.8-4.1 17.7-1.6 31.7-7.4c-5.2-0.8-6.5-1.2-14.1-2.2c-8.4-1.1-8.7-0.7-17.2-1.7c-8.4-1.1-8-2.3-16.9-2.2c-8.8 0-8.6 1-17.2 2.1c-8.7 1.2-8.8 .8-17.3 2.3c-8.5 1.5-8.2 1.9-16.4 3.8c-8.2 1.8-7.7 2.9-16.4 4c-13.4 1.7-13.7 1.4-27.3 1.4c-13.8-0.1-13.2-2.3-26.9-2.3c-13.7 0-13.6 2.1-27.3 2.5c-14.4 .3-14.4-0.2-28.6-0.7c-14.3-0.6-14.1-2.7-28.4-2c-13.3 .7-16.7-0.4-25.6 4h242.1c1.7-0.5 3.6-1 5.8-1.6Z" fill="#121a5e"/><path class="st5" d="M2326.7 1036.2c-5.5 .6-5.6 4.2-13 7c-6.1 2.3-7.8 3.4-11.3 4.6c5.7-1 9.6-1.3 17.5-6.3c3.2-2.1 5.3-3.8 6.8-5.3Z" fill="#121a5e"/><path class="st4" d="M2302.4 1047.8c-2.6 .5-5.6 1.1-9.5 2.3c.7-0.1 1.3-0.2 2.1-0.4c3.5-0.7 5.7-1.3 7.4-1.9Z" fill="#1d2a76"/><g><path class="st3" d="M722.6 1087.5c-12.3-1.4-12.2-2-24.3-4.2c-12.1-2.3-12.5-1.6-23.8-5.5c-10.5-3.7-11.1-5.2-18.4-9.3c-1-0.6-2.2-1.2-3.6-2c-10.9-5.7-9.9-7.1-21.7-11.8c-11.8-4.7-13-2.6-25.5-6.1c-12.5-3.6-12.1-4.5-24.7-7.8c-12.6-3.4-12.7-3.2-25.4-6.3c-12.7-3-12.4-3.9-25.6-5.5c-17.8-2.2-17.9-1.2-36-2c-11.8-0.5-15.9-0.8-22.3-0.9c-3.4-0.1-7.5-0.1-13.8-0.1c-18 .1-18 .7-36.1 1.1c-11.2 .3-11.2 .4-22.5 .2c-11.3-0.3-11.2-0.1-22.5-0.2c-11.3-0.1-11.3-1.2-22.6-1.1c-11.3 .2-11.5 2.6-22.5 .9c-11-1.7-10-3.9-20.2-7.3c-10.2-3.5-10.7-2.6-20.3-6.9c-10.2-4.7-10.1-4.8-19.5-10.2c-0.6-0.4-1.2-0.7-1.7-1.1c-7.8-4.4-8.5-4.6-17.4-9.6c-9.4-5.4-8.9-6-18.4-11.4c-9.5-5.3-7.3-9.4-18.9-11.1c-11-1.6-10.8 3.1-21.5 5.5c-10.8 2.5-12.1 .1-22.1 4c-9.8 3.9-8.8 5.3-17.5 10.5c-8.7 5.2-7.5 6.4-16.2 11.6c-8.8 5.1-9.9 4-18.8 9c-8.8 5.1-7.2 7.1-17.2 10.7c-9.8 3.6-10.8 1.2-21.4 3.2c-10.5 2.1-11 1.2-20.9 4.6c-18.5 6.4-17.2 8.3-34.8 16.1c-2.2 1-4.1 1.9-5.8 2.7c-8.6 4-11.6 6.2-18.7 9.1v33.7h747.7v-1.1c-12.5-0.6-12.7 .1-25.1-1.4Z" fill="#1c2469"/><path class="st3" d="M1857.9 1084.4c-9.7-4.2-9.1-5.5-19.6-8c-10.3-2.5-10.8-0.9-21.6-1.7c-10.8-0.7-10.7-1.5-21.5-0.4c-10.7 1.2-10.3 2.2-20.4 5.1c-10.1 2.9-10.2 2.8-20.4 5.6c-5.8 1.6-9.7 3.4-12.9 5h125.9c-2.4-1.6-4.4-3.4-9.5-5.6Z" fill="#1c2469"/><path class="st3" d="M2389.5 978.8c-10.8 1.7-7.9 5.9-16.1 11.7c-8.3 5.8-9.5 4.7-16.8 11.3c-10.3 9.2-9.9 9.5-19.1 19.4c-6.7 7.2-6.6 10.6-10.8 15c-1.5 1.5-3.6 3.2-6.8 5.3c-7.9 5-11.8 5.3-17.5 6.3c-1.7 .6-3.9 1.2-7.4 1.9c-0.8 .2-1.4 .3-2.1 .4c-0.6 .2-1.3 .4-1.9 .7c-14.3 5-13.7 5.9-28.5 9.8c-14.8 3.8-15 3.3-30.2 6c-15.3 2.6-14.9 5.5-30.5 5.1c-16.3-0.3-15.7-3.2-31.4-6.5c-15.7-3.3-15.4-4.2-31.4-6.3c-15.9-2-16-1.9-32.1-2.7c-16.1-0.9-16.3-2.8-32.3-1.4c-16.2 1.5-15.6 3.9-31.1 7.7c-15.6 3.7-15.9 3.1-31 7.8c-11.3 3.5-11.2 3.7-21.9 8.2c-10.8 4.4-9.9 5.7-21.2 9.3c-3.4 1.1-5.8 1.8-7.9 2.2h438.5v-110.3c-2.5-1.1-5.2-1.7-10.5-0.9Z" fill="#1c2469"/><path class="st3" d="M1682.6 1079.9c-17-5.7-17-7.1-35.4-7.8c-19.5-0.7-18.8 5.8-38.3 5.2c-19.7-0.7-20.5-1-38-8.5c-7.7-3.3-11.1-6.2-13.9-9.1c-3.5-3.6-6.2-7.4-15.5-12c-10.3-5.1-12.3-1.6-24-4.3c-11.6-2.8-10.9-7.4-23-6.7c-12.6 .6-11.4 4.7-23 8.6c-11.5 4-12.6 2.3-23.2 7.7c-10.6 5.5-9 7.1-18.4 13.9c-9.4 6.7-7.7 8.9-18.8 13.7c-0.4 .1-0.7 .3-1.1 .4c-14 5.8-15.9 3.3-31.7 7.4c-2.2 .6-4.1 1.1-5.8 1.6h327.9c-4.3-3-7.9-6.7-17.8-10.1Z" fill="#1c2469"/></g><path class="st0" d="M0 1090v4v506h2400v-510h-2400Z" fill="url(#Gradient-1)"/></g><g transform="translate(1200,1126) rotate(-5) translate(-363.5,-279)" style="animation: .5s linear infinite both a0_t;"><path class="st2" d="M693.5 328.5c-0.1-1-0.1-2-0.1-3c0-0.9 0-1.8 0-2.6c0-1 0-2-0.1-3c0-0.9 0-1.7 0-2.6c0-1-0.1-2-0.1-3c0-0.9 0-1.7-0.1-2.6c0-1 0-2-0.1-3c0-0.9-0.1-1.7-0.1-2.6c0-1-0.1-2-0.1-3c-0.1-0.8-0.1-1.7-0.2-2.6c0-1-0.1-2-0.1-3c-0.1-0.9-0.1-1.7-0.2-2.6c-0.1-1-0.1-2-0.2-3c-0.1-0.9-0.1-1.7-0.2-2.6c-0.1-1-0.1-2-0.2-3c-0.1-0.9-0.1-1.7-0.2-2.6c-0.1-1-0.2-2-0.3-3c0-0.9-0.1-1.8-0.2-2.7c-0.1-1-0.2-1.9-0.3-2.9c-0.1-0.9-0.2-1.8-0.3-2.7c-0.1-1-0.1-1.9-0.2-2.9c-0.1-0.9-0.2-1.8-0.4-2.8c-0.1-0.9-0.2-1.9-0.3-2.8c-0.1-1-0.2-1.9-0.3-2.8c-0.1-1-0.2-1.9-0.3-2.8c-0.2-1-0.3-2-0.4-2.9c-0.1-0.9-0.2-1.9-0.4-2.8c-0.1-0.9-0.2-1.9-0.4-2.9c-0.1-0.9-0.2-1.8-0.3-2.7c-0.2-1-0.3-2-0.5-3c-0.1-0.9-0.2-1.8-0.4-2.6c-0.1-1.1-0.3-2.1-0.4-3.1c-0.2-0.8-0.3-1.7-0.4-2.6c-0.2-1-0.4-2.1-0.6-3.1c-0.1-0.8-0.2-1.7-0.4-2.5c-0.2-1.1-0.3-2.2-0.5-3.2c-0.2-0.8-0.3-1.7-0.5-2.5c-0.1-1.1-0.3-2.2-0.5-3.2c-0.2-0.8-0.3-1.7-0.5-2.5c-0.2-1.1-0.4-2.2-0.6-3.3c-0.2-0.8-0.3-1.6-0.5-2.4c-0.2-1.1-0.4-2.2-0.6-3.3c-0.2-0.8-0.3-1.6-0.5-2.3c-0.2-1.2-0.5-2.3-0.7-3.4c-0.2-0.8-0.3-1.6-0.5-2.3c-0.2-1.2-0.5-2.3-0.7-3.5c-0.2-0.7-0.3-1.5-0.5-2.3c-0.3-1.1-0.5-2.3-0.8-3.4c-0.2-0.8-0.3-1.5-0.5-2.3c-0.3-1.1-0.5-2.3-0.8-3.5c-0.2-0.7-0.3-1.5-0.5-2.2c-0.3-1.2-0.6-2.4-0.9-3.6c-0.1-0.7-0.3-1.4-0.5-2.1c-0.3-1.2-0.6-2.4-0.9-3.6c-0.2-0.7-0.3-1.5-0.5-2.2c-0.3-1.2-0.6-2.4-0.9-3.6c-0.2-0.7-0.4-1.4-0.6-2.2c-0.3-1.2-0.6-2.3-0.9-3.5c-0.2-0.8-0.4-1.5-0.6-2.3c-0.3-1.1-0.7-2.3-1-3.5c-0.2-0.8-0.4-1.5-0.6-2.3c-0.3-1.1-0.7-2.3-1-3.5c-0.2-0.7-0.4-1.5-0.6-2.3c-0.3-1.1-0.7-2.3-1-3.4c-0.2-0.8-0.5-1.6-0.7-2.4c-0.3-1.1-0.7-2.2-1-3.4c-0.2-0.8-0.5-1.6-0.7-2.5c-0.3-1-0.7-2.1-1-3.2c-0.3-0.9-0.5-1.8-0.8-2.7c-0.3-1-0.6-2-0.9-3c-0.3-1-0.6-1.9-0.9-2.9c-0.3-0.9-0.6-1.9-0.9-2.8c-0.3-1-0.7-2.1-1-3.1c-0.3-0.9-0.6-1.7-0.8-2.6c-0.4-1.1-0.8-2.2-1.1-3.3c-0.3-0.8-0.5-1.6-0.8-2.4c-0.4-1.2-0.8-2.4-1.2-3.6c-0.2-0.7-0.4-1.4-0.7-2.1c-0.4-1.3-0.9-2.6-1.3-3.9c-0.2-0.6-0.4-1.1-0.6-1.7c-0.5-1.5-1-2.9-1.5-4.3c-0.1-0.5-0.3-0.9-0.4-1.3c-0.6-1.6-1.1-3.2-1.7-4.8c-0.1-0.3-0.2-0.6-0.3-0.8c-0.6-1.8-1.3-3.5-1.9-5.3c0-0.1-0.1-0.2-0.1-0.3c-2-5.5-4-10.9-6.1-16.4c0 0 0 0 0 0c-0.2 0-0.4 .1-0.6 .1c-2.5 .7-5 1.4-7.6 2.1c-0.5 .2-1.1 .3-1.7 .5c-2.3 .7-4.6 1.3-6.9 2c-0.8 .2-1.7 .4-2.5 .7c-2.1 .6-4.2 1.2-6.4 1.8c-1 .3-2.1 .7-3.1 1c-2 .5-3.9 1.1-5.9 1.7c-1.2 .4-2.5 .8-3.8 1.2c-1.8 .5-3.6 1-5.4 1.6c-1.4 .4-2.9 .9-4.3 1.4c-1.7 .5-3.4 1-5 1.5c-1.7 .5-3.3 1-5 1.6c-1.5 .5-3 .9-4.5 1.4c-1.9 .6-3.7 1.2-5.6 1.8c-1.3 .4-2.7 .9-4.1 1.3c-2.1 .7-4.2 1.4-6.3 2.1c-1.1 .4-2.3 .8-3.5 1.2c-2.5 .8-5 1.7-7.6 2.5c-0.7 .3-1.5 .5-2.3 .8c-6.6 2.2-13.4 4.6-20.2 7c-0.9 .3-1.8 .6-2.7 .9c-2.5 .9-5 1.8-7.5 2.7c-1.3 .4-2.5 .9-3.8 1.3c-2.2 .8-4.4 1.6-6.6 2.4c-1.3 .5-2.7 1-4.1 1.5c-2.1 .8-4.2 1.5-6.3 2.3c-1.4 .5-2.9 1.1-4.3 1.6c-1.8 .7-3.6 1.3-5.3 2c16.3 109.2 26.3 221.8 23.9 329.2c-0.1 1-0.1 2-0.1 3c0 .9-0.1 1.9-0.1 2.9c-0.6 22.7-1.8 45.1-3.6 67.2c52.5-25.4 108.3-53.5 165.5-81.7c2.4-1.2 4.9-2.4 7.4-3.6c1.7-0.9 3.4-1.7 5-2.5c.1-0.3 .1-0.6 .2-0.9c.1-0.7 .3-1.4 .4-2.1c.2-1 .3-2.1 .5-3.1c.2-0.9 .3-1.7 .5-2.6c.1-1 .3-2 .5-3c.1-0.9 .3-1.8 .4-2.7c.1-0.9 .3-1.9 .4-2.9c.2-0.9 .3-1.8 .5-2.7c.1-1 .2-1.9 .4-2.9c.1-0.9 .2-1.8 .4-2.7c.1-1 .2-1.9 .3-2.8c.2-1 .3-1.9 .4-2.9c.1-0.9 .2-1.8 .3-2.7c.2-1 .3-1.9 .4-2.9c.1-0.9 .2-1.8 .3-2.7c.1-1 .2-1.9 .3-2.9c.1-0.9 .2-1.8 .3-2.7c.1-0.9 .2-1.9 .3-2.8c0-1 .1-1.9 .2-2.8c.1-0.9 .2-1.9 .3-2.8c0-0.9 .1-1.9 .2-2.8c.1-0.9 .1-1.8 .2-2.8c.1-0.9 .2-1.8 .2-2.8c.1-0.9 .1-1.8 .2-2.7c.1-1 .1-1.9 .2-2.8c0-1 .1-1.9 .1-2.8c.1-0.9 .1-1.9 .2-2.8c0-0.9 .1-1.8 .1-2.8c.1-0.9 .1-1.9 .1-2.8c.1-0.9 .1-1.8 .1-2.7c.1-1 .1-1.9 .1-2.9c.1-0.9 .1-1.8 .1-2.7c0-0.9 0-1.9 .1-2.9c0-0.9 0-1.7 0-2.6c0-1 0-2 0-3c.1-0.8 .1-1.7 .1-2.6c0-1 0-2 0-3c0-0.8 0-1.7 0-2.6Z" fill="#ef9c65"/><path class="st3" d="M642.8 64.4c0 0 0 0 0 0c-0.1-0.1-0.2-0.3-0.3-0.5c0 0 0 0 0 0c0-0.1 0-0.1 0-0.1c-0.1-0.1-0.1-0.1-0.1-0.2c-0.1-0.1-0.1-0.2-0.2-0.3c-0.1 0-0.1-0.1-0.2-0.2c0 0 0-0.1-0.1-0.1c0-0.1-0.1-0.1-0.1-0.2c-0.1-0.1-0.1-0.1-0.2-0.2c-0.1 0-0.1-0.1-0.2-0.2c0 0-0.1 0-0.1-0.1c-0.1 0-0.1-0.1-0.2-0.1c-0.1-0.1-0.2-0.2-0.3-0.3c0 0 0 0 0 0c0 0-0.1-0.1-0.1-0.1c0 0 0 0 0 0c0 0-0.1 0-0.1 0c-0.1-0.1-0.2-0.2-0.3-0.2c-0.1-0.1-0.1-0.1-0.2-0.2c0 0-0.1 0-0.1 0c0 0 0 0 0 0c-0.1-0.1-0.2-0.1-0.3-0.1c0-0.1-0.1-0.1-0.2-0.1c0 0 0 0-0.1-0.1c-0.1 0-0.1 0-0.2 0c-0.1 0-0.1-0.1-0.2-0.1c-122.1-25-245.4-34-366.4-26.2c-0.2 0-0.3 .1-0.5 .1c-0.1 0-0.1 .1-0.2 .1c-0.1 0-0.2 0-0.3 .1c-57.6 28-119.6 59.5-183 90.9c0 0 0 0 0 0c-0.4 .1-0.7 .1-1.1 .2c-1.5 .2-3 1.6-3.3 3.1c-23.5 121-4.2 238.1 46.7 368.7c.6 1.5 2.3 3.1 3.8 3.4c122.1 25 245.4 34 366.4 26.2c.4-0.1 .8-0.2 1.2-0.5c.3 .1 .5 .1 .8 .1c.3 0 .7-0.1 1-0.2c57.7-28.1 119.7-59.6 183.1-91.1c0 0 0 0 0 0c.1-0.1 .2-0.1 .2-0.2c.1 0 .2-0.1 .3-0.1c.1-0.1 .1-0.1 .2-0.2c.1 0 .2-0.1 .3-0.2c0 0 .1-0.1 .1-0.1c.1-0.1 .3-0.3 .4-0.4c0 0 0 0 0-0.1c.1-0.1 .2-0.2 .3-0.3c0-0.1 .1-0.1 .1-0.2c0-0.1 .1-0.2 .2-0.3c0-0.1 0-0.1 0-0.2c.1-0.1 .1-0.3 .2-0.5c23.5-121 4.2-238.1-46.7-368.7Zm46.3 336.5c-0.1 .9-0.2 1.8-0.4 2.8c-0.1 .9-0.2 1.8-0.4 2.8c-0.1 .9-0.2 1.8-0.3 2.7c-0.2 1-0.3 1.9-0.5 2.9c-0.1 .9-0.2 1.8-0.4 2.7c-0.1 1-0.3 2-0.4 2.9c-0.2 .9-0.3 1.8-0.4 2.7c-0.2 1-0.4 2-0.5 3c-0.2 .9-0.3 1.7-0.5 2.6c-0.2 1-0.3 2.1-0.5 3.1c-0.2 .7-0.3 1.4-0.4 2.1c-0.1 .3-0.1 .6-0.2 .9c-1.6 .8-3.3 1.6-5 2.5c-2.5 1.2-5 2.4-7.5 3.6c-57.1 28.2-112.9 56.3-165.4 81.7c1.8-22.1 3-44.5 3.6-67.2c0-1 .1-1.9 .1-2.9c0-1 0-2 .1-3c2.4-107.4-7.6-220-23.9-329.2c1.7-0.7 3.5-1.3 5.3-2c1.4-0.5 2.8-1.1 4.3-1.6c2.1-0.8 4.2-1.5 6.3-2.3c1.3-0.5 2.7-1 4.1-1.5c2.2-0.8 4.4-1.6 6.6-2.4c1.3-0.4 2.5-0.9 3.7-1.3c2.6-0.9 5.1-1.8 7.6-2.7c.9-0.3 1.8-0.6 2.7-0.9c6.8-2.4 13.5-4.8 20.2-7c.8-0.3 1.5-0.5 2.3-0.8c2.6-0.8 5.1-1.7 7.6-2.5c1.2-0.4 2.3-0.8 3.5-1.2c2.1-0.7 4.2-1.4 6.3-2.1c1.4-0.4 2.8-0.9 4.1-1.3c1.9-0.6 3.7-1.2 5.5-1.8c1.6-0.5 3.1-0.9 4.6-1.4c1.7-0.6 3.3-1.1 5-1.6c1.6-0.5 3.3-1 4.9-1.5c1.5-0.5 3-0.9 4.4-1.4c1.8-0.5 3.6-1.1 5.4-1.6c1.3-0.4 2.5-0.8 3.8-1.2c2-0.6 3.9-1.2 5.9-1.7c1-0.3 2.1-0.7 3.1-1c2.2-0.6 4.3-1.2 6.4-1.8c.8-0.3 1.7-0.5 2.5-0.7c2.3-0.7 4.6-1.3 6.9-2c.6-0.2 1.2-0.3 1.7-0.5c2.6-0.7 5.1-1.4 7.6-2.1c.2 0 .4-0.1 .6-0.1c0 0 0 0 0 0c2.1 5.5 4.1 10.9 6.1 16.4c0 .1 .1 .2 .1 .3c.6 1.8 1.3 3.5 1.9 5.3c.1 .2 .2 .5 .3 .8c.5 1.6 1.1 3.2 1.7 4.8c.1 .4 .3 .8 .4 1.3c.5 1.4 1 2.8 1.5 4.3c.2 .6 .4 1.1 .6 1.7c.4 1.3 .9 2.6 1.3 3.9c.2 .7 .5 1.4 .7 2.1c.4 1.2 .8 2.4 1.2 3.6c.3 .8 .5 1.6 .8 2.4c.3 1.1 .7 2.2 1.1 3.3c.2 .9 .5 1.7 .8 2.6c.3 1 .7 2.1 1 3.1c.3 .9 .6 1.9 .9 2.8c.3 1 .6 2 .9 2.9c.3 1 .6 2 .9 3c.3 .9 .5 1.8 .8 2.7c.3 1.1 .6 2.2 1 3.2c.2 .9 .5 1.7 .7 2.6c.3 1.1 .7 2.2 1 3.3c.2 .8 .5 1.6 .7 2.4c.3 1.1 .6 2.3 1 3.4c.2 .8 .4 1.6 .6 2.3c.3 1.2 .7 2.4 1 3.5c.2 .8 .4 1.5 .6 2.3c.3 1.2 .6 2.4 1 3.5c.2 .8 .4 1.5 .6 2.3c.3 1.2 .6 2.3 .9 3.5c.2 .8 .4 1.5 .6 2.2c.3 1.2 .6 2.4 .9 3.6c.1 .7 .3 1.5 .5 2.2c.3 1.2 .6 2.4 .9 3.6c.2 .7 .3 1.4 .5 2.1c.3 1.2 .6 2.4 .9 3.6c.1 .7 .3 1.5 .5 2.2c.3 1.2 .5 2.4 .8 3.5c.2 .8 .3 1.5 .5 2.3c.3 1.1 .5 2.3 .8 3.5c.1 .7 .3 1.5 .5 2.2c.2 1.2 .5 2.3 .7 3.5c.2 .7 .3 1.5 .5 2.3c.2 1.1 .5 2.2 .7 3.4c.1 .7 .3 1.5 .5 2.3c.2 1.1 .4 2.2 .6 3.3c.2 .8 .3 1.6 .5 2.4c.2 1.1 .4 2.2 .6 3.3c.2 .8 .3 1.7 .4 2.5c.2 1 .4 2.1 .6 3.2c.2 .8 .3 1.7 .5 2.5c.2 1 .3 2.1 .5 3.2c.2 .8 .3 1.7 .4 2.5c.2 1 .4 2.1 .5 3.1c.2 .9 .3 1.8 .5 2.6c.1 1 .3 2 .4 3.1c.2 .8 .3 1.7 .4 2.6c.2 1 .3 2 .4 3c.2 .9 .3 1.8 .4 2.7c.2 1 .3 2 .4 2.9c.1 .9 .3 1.9 .4 2.8c.1 .9 .2 1.9 .3 2.9c.2 .9 .3 1.8 .4 2.8c.1 .9 .2 1.8 .3 2.8c.1 .9 .2 1.9 .3 2.8c.1 1 .2 1.9 .3 2.8c.1 1 .2 1.9 .3 2.9c.1 .9 .2 1.8 .3 2.7c.1 1 .2 1.9 .3 2.9c.1 .9 .1 1.8 .2 2.7c.1 1 .2 2 .3 3c0 .9 .1 1.7 .2 2.6c.1 1 .1 2 .2 3c.1 .9 .1 1.8 .2 2.6c.1 1 .1 2 .2 3c0 .9 .1 1.8 .2 2.6c0 1 .1 2 .1 3c.1 .9 .1 1.8 .2 2.6c0 1 0 2 .1 3c0 .9 .1 1.7 .1 2.6c0 1 .1 2 .1 3c0 .9 .1 1.7 .1 2.6c0 1 .1 2 .1 3c0 .9 0 1.7 0 2.6c.1 1 .1 2 .1 3c0 .9 0 1.7 0 2.6c0 1 0 2 0 3c0 .8 .1 1.7 .1 2.6c0 1-0.1 1.9-0.1 2.9c0 .9 0 1.8 0 2.7c0 .9 0 1.9 0 2.9c0 .9 0 1.8-0.1 2.6c0 1 0 2 0 2.9c0 .9-0.1 1.8-0.1 2.7c0 1-0.1 1.9-0.1 2.9c0 .9 0 1.8-0.1 2.7c0 1-0.1 1.9-0.1 2.9c0 .9-0.1 1.8-0.1 2.7c-0.1 .9-0.1 1.9-0.2 2.8c0 .9-0.1 1.9-0.1 2.8c-0.1 .9-0.2 1.8-0.2 2.8c-0.1 .9-0.1 1.8-0.2 2.8c-0.1 .9-0.1 1.8-0.2 2.8c-0.1 .9-0.1 1.8-0.2 2.7c-0.1 1-0.2 1.9-0.3 2.8c0 .9-0.1 1.9-0.2 2.8c-0.1 .9-0.2 1.9-0.3 2.8c0 .9-0.1 1.9-0.2 2.8c-0.1 .9-0.2 1.8-0.3 2.8c-0.1 .9-0.2 1.9-0.3 2.8c-0.1 .9-0.2 1.8-0.3 2.7c-0.1 1-0.3 1.9-0.4 2.9c-0.1 .9-0.2 1.8-0.3 2.8Zm-496.6-321c2.6-0.3 5.2-0.5 7.8-0.8c21.3-1.9 42.6-3.4 64-4.4c1-0.1 2-0.1 3-0.2c.9 0 1.8-0.1 2.7-0.1c1 0 1.9-0.1 2.8-0.1c92.8-4 187 .3 281 12.5c.1 0 .1 0 .1 0c-0.9 .3-1.8 .6-2.7 .9c-1.6 .5-3.1 1-4.7 1.5c-1.7 .6-3.4 1.2-5.2 1.8c-1.4 .5-2.8 1-4.2 1.4c-1.9 .7-3.8 1.4-5.7 2c-1.2 .4-2.4 .9-3.7 1.3c-2 .7-4.1 1.5-6.2 2.2c-1.1 .4-2.1 .8-3.2 1.1c-2.2 .8-4.5 1.6-6.7 2.4c-0.9 .4-1.8 .7-2.7 1c-2.4 .9-4.8 1.7-7.3 2.6c-0.7 .3-1.4 .5-2.1 .8c-3.2 1.2-6.4 2.4-9.7 3.6c-2.6 .9-5.2 1.9-7.8 2.9c-70.3-4.8-140.6-6-210.4-3.2c-0.9 .1-1.9 .1-2.8 .1c-1 .1-1.9 .1-2.9 .2c-1 0-2 .1-3 .1c-50.7 2.3-100.9 6.6-150.6 13.1c-2.8 .3-5.5 .7-8.2 1.1c30-14.8 59.5-29.5 88.4-43.8Zm76.9-37.8c.9-0.4 1.8-0.9 2.7-1.3c.2-0.1 .4-0.2 .6-0.2c.7-0.1 1.4-0.1 2.1-0.2c1.4 0 2.8-0.1 4.1-0.2c2-0.1 4-0.2 6-0.3c1.7-0.1 3.5-0.2 5.2-0.3c2-0.1 4-0.2 5.9-0.3c1.8-0.1 3.6-0.1 5.3-0.2c2-0.1 3.9-0.2 5.9-0.2c1.8-0.1 3.5-0.2 5.3-0.2c2-0.1 3.9-0.2 5.8-0.2c1.8-0.1 3.6-0.1 5.4-0.1c1.9-0.1 3.9-0.1 5.8-0.2c1.8 0 3.6 0 5.4-0.1c1.9 0 3.9 0 5.8-0.1c1.8 0 3.6 0 5.4 0c1.9 0 3.9 0 5.8 0c1.8-0.1 3.6-0.1 5.4-0.1c2 0 3.9 0 5.8 .1c1.8 0 3.6 0 5.4 0c2 0 3.9 0 5.8 0c1.9 .1 3.7 .1 5.5 .1c1.9 .1 3.8 .1 5.8 .1c1.8 .1 3.6 .1 5.4 .2c1.9 0 3.9 .1 5.8 .1c1.8 .1 3.6 .1 5.4 .2c2 0 3.9 .1 5.9 .2c1.8 0 3.6 .1 5.4 .2c1.9 .1 3.9 .1 5.8 .2c1.8 .1 3.6 .2 5.4 .3c2 .1 3.9 .2 5.9 .3c1.8 .1 3.6 .2 5.4 .3c1.9 .1 3.9 .2 5.8 .3c1.8 .1 3.6 .2 5.4 .4c2 .1 3.9 .2 5.9 .4c1.8 .1 3.6 .2 5.4 .3c1.9 .2 3.9 .3 5.9 .5c1.7 .1 3.5 .3 5.3 .4c2 .2 4 .3 5.9 .5c1.8 .1 3.6 .3 5.4 .4c2 .2 3.9 .4 5.9 .6c1.8 .2 3.6 .3 5.3 .5c2 .2 4 .4 6 .6c1.8 .2 3.5 .3 5.3 .5c2 .2 4 .5 6 .7c1.7 .2 3.5 .3 5.3 .5c2 .3 4 .5 6 .7c1.7 .2 3.5 .5 5.2 .7c2.1 .2 4.1 .5 6.1 .7c1.7 .2 3.5 .4 5.2 .7c2 .2 4 .5 6.1 .8c1.7 .2 3.4 .4 5.2 .7c2 .2 4 .5 6.1 .8c1.7 .3 3.4 .5 5.1 .7c2.1 .3 4.1 .6 6.1 .9c1.8 .3 3.5 .5 5.2 .8c2.1 .3 4.1 .7 6.2 1c1.7 .2 3.4 .5 5 .8c2.2 .3 4.3 .7 6.4 1c1.6 .3 3.3 .5 4.9 .8c2.2 .4 4.3 .8 6.5 1.1c1.6 .3 3.2 .6 4.7 .9c2.3 .4 4.6 .8 6.8 1.2c1.5 .2 3 .5 4.5 .8c2.5 .5 5 .9 7.6 1.4c1.2 .2 2.4 .5 3.6 .7c.1 0 .1 0 .1 0c0 0 0 0 0 0c-9.9 2.8-20 5.8-30.4 9c-1.2 .3-2.5 .7-3.8 1.1c-1.3 .4-2.6 .8-3.9 1.2c-1.8 .6-3.6 1.1-5.4 1.7c-1.2 .4-2.5 .8-3.7 1.2c-1.9 .6-3.7 1.2-5.6 1.8c-1.3 .4-2.6 .8-3.9 1.2c-1.6 .5-3.1 1-4.7 1.5c-98-13.6-196.2-18.6-292.9-14.3c-0.9 .1-1.8 .1-2.8 .2c-0.9 0-1.8 0-2.7 .1c-1 0-2 .1-3 .1c-16.8 .9-33.5 2-50.2 3.4c-2.6 .2-5.1 .5-7.6 .7c-0.1 0-0.1 0-0.2 0c21.4-10.6 42.3-20.9 62.8-30.8Zm-134.3 454.1c-48.9-128.7-67.7-245.3-45.8-365c2.5-0.4 5-0.7 7.5-1c54.7-7.4 110.1-12.2 165.9-14.6c1 0 2.1-0.1 3.1-0.1c1 0 1.9-0.1 2.9-0.1c.9-0.1 1.9-0.1 2.8-0.1c68.6-2.6 137.8-1.6 206.9 2.9c15.6 109 25.5 221.7 23.8 328.9c-0.1 1-0.1 2-0.1 3c0 1 0 2-0.1 3c-0.4 23.2-1.5 46.2-3.1 68.9c-118.4 7.2-238.9-1.3-358.3-24.7c-1.8-0.4-3.7-0.7-5.5-1.1Z" fill="#512a23"/><g><path class="st0" d="M502 453.1c.1-1 .1-2 .1-3c0-1 0-2 .1-3c1.7-107.2-8.2-219.9-23.8-328.9c-69.1-4.5-138.3-5.5-206.9-2.9c-0.9 0-1.9 0-2.8 .1c-1 0-1.9 .1-2.9 .1c-1 0-2.1 .1-3.1 .1c-55.8 2.4-111.2 7.2-165.9 14.6c-2.5 .3-5 .6-7.5 1c-21.9 119.7-3.1 236.3 45.8 365c1.8 .4 3.7 .7 5.5 1.1c119.4 23.4 239.9 31.9 358.3 24.7c1.6-22.7 2.7-45.7 3.1-68.9Z" fill="#f8ca91"/><path class="st0" d="M272.8 74.3c-0.9 0-1.8 .1-2.8 .1c-0.9 0-1.8 .1-2.7 .1c-1 .1-2 .1-3 .2c-21.4 1-42.7 2.5-64 4.4c-2.6 .3-5.2 .5-7.8 .8c-28.9 14.3-58.4 29-88.4 43.8c2.7-0.4 5.4-0.8 8.2-1.1c49.7-6.5 99.9-10.8 150.6-13.1c1 0 2-0.1 3-0.1c1-0.1 1.9-0.1 2.9-0.2c.9 0 1.9 0 2.8-0.1c69.8-2.8 140.1-1.7 210.4 3.2c2.6-1 5.2-2 7.8-2.9c3.3-1.2 6.5-2.4 9.7-3.6c.7-0.3 1.4-0.5 2.1-0.8c2.5-0.9 4.9-1.7 7.3-2.6c.9-0.3 1.8-0.7 2.7-1c2.2-0.8 4.5-1.6 6.7-2.4c1.1-0.4 2.1-0.7 3.2-1.1c2.1-0.7 4.2-1.5 6.2-2.2c1.3-0.4 2.5-0.9 3.7-1.3c1.9-0.7 3.8-1.3 5.7-2c1.4-0.4 2.8-0.9 4.2-1.4c1.8-0.6 3.5-1.2 5.2-1.8c1.6-0.5 3.1-1 4.7-1.5c.9-0.3 1.8-0.6 2.7-0.9c0 0 0 0-0.1 0c-94-12.2-188.2-16.5-281-12.5Z" fill="#f8ca91"/><path class="st0" d="M627.3 64c-1.2-0.2-2.4-0.5-3.6-0.7c-2.6-0.5-5.1-1-7.6-1.4c-1.5-0.3-3-0.6-4.5-0.8c-2.2-0.4-4.5-0.8-6.7-1.2c-1.6-0.3-3.2-0.6-4.8-0.9c-2.2-0.3-4.3-0.7-6.5-1.1c-1.6-0.3-3.3-0.5-4.9-0.8c-2.1-0.3-4.2-0.7-6.3-1c-1.7-0.3-3.4-0.6-5.1-0.8c-2.1-0.4-4.1-0.7-6.2-1c-1.7-0.3-3.4-0.5-5.1-0.8c-2.1-0.3-4.1-0.6-6.2-0.9c-1.7-0.2-3.4-0.5-5.1-0.7c-2.1-0.3-4.1-0.6-6.1-0.8c-1.8-0.3-3.5-0.5-5.2-0.7c-2.1-0.3-4.1-0.6-6.1-0.8c-1.7-0.3-3.5-0.5-5.2-0.7c-2-0.2-4-0.5-6-0.7c-1.8-0.3-3.6-0.5-5.3-0.7c-2-0.2-4-0.4-6-0.7c-1.8-0.2-3.5-0.3-5.3-0.5c-2-0.3-4-0.5-6-0.7c-1.7-0.2-3.5-0.3-5.3-0.5c-2-0.2-4-0.4-5.9-0.6c-1.8-0.2-3.6-0.3-5.4-0.5c-2-0.2-3.9-0.4-5.9-0.6c-1.8-0.1-3.6-0.3-5.4-0.4c-1.9-0.2-3.9-0.3-5.9-0.5c-1.8-0.1-3.5-0.3-5.3-0.4c-2-0.2-4-0.3-5.9-0.5c-1.8-0.1-3.6-0.2-5.4-0.3c-2-0.2-3.9-0.3-5.9-0.4c-1.8-0.2-3.6-0.3-5.4-0.4c-1.9-0.1-3.9-0.2-5.8-0.3c-1.8-0.1-3.6-0.2-5.4-0.3c-2-0.1-3.9-0.2-5.9-0.3c-1.8-0.1-3.6-0.2-5.4-0.3c-1.9-0.1-3.9-0.1-5.8-0.2c-1.8-0.1-3.6-0.2-5.4-0.2c-2-0.1-3.9-0.2-5.9-0.2c-1.8-0.1-3.6-0.1-5.4-0.2c-1.9 0-3.9-0.1-5.8-0.1c-1.8-0.1-3.6-0.1-5.4-0.2c-2 0-3.9 0-5.8-0.1c-1.8 0-3.6 0-5.4-0.1c-2 0-3.9 0-5.9 0c-1.8 0-3.6 0-5.4 0c-1.9-0.1-3.8-0.1-5.8-0.1c-1.8 0-3.6 0-5.4 .1c-1.9 0-3.8 0-5.8 0c-1.8 0-3.6 0-5.4 0c-1.9 .1-3.9 .1-5.8 .1c-1.8 .1-3.6 .1-5.4 .1c-1.9 .1-3.8 .1-5.8 .2c-1.8 0-3.6 0-5.4 .1c-1.9 0-3.8 .1-5.8 .2c-1.8 0-3.5 .1-5.3 .2c-2 0-3.9 .1-5.9 .2c-1.7 .1-3.5 .1-5.3 .2c-1.9 .1-3.9 .2-5.9 .3c-1.7 .1-3.5 .2-5.2 .3c-2 .1-4 .2-6 .3c-1.3 .1-2.7 .2-4.1 .2c-0.7 .1-1.4 .1-2.1 .2c-0.2 0-0.4 .1-0.5 .2c-1 .4-1.9 .9-2.8 1.3c-20.4 9.9-41.4 20.2-62.8 30.8c.1 0 .1 0 .2 0c2.5-0.2 5.1-0.5 7.6-0.7c16.7-1.4 33.4-2.5 50.3-3.4c.9 0 1.9-0.1 2.9-0.1c.9-0.1 1.8-0.1 2.8-0.1c.9-0.1 1.8-0.1 2.7-0.2c96.7-4.3 194.9 .7 292.9 14.3c1.6-0.5 3.2-1 4.7-1.5c1.3-0.4 2.6-0.8 3.9-1.2c1.9-0.6 3.8-1.2 5.6-1.8c1.3-0.4 2.5-0.8 3.8-1.2c1.7-0.6 3.5-1.1 5.3-1.7c1.3-0.4 2.6-0.8 3.9-1.2c1.3-0.4 2.6-0.8 3.8-1.2c10.4-3.1 20.6-6.1 30.4-8.9c0 0 0 0 0 0c0 0 0 0-0.1 0h.1Z" fill="#f8ca91"/><path class="st0" d="M48.1 92c-14.6 12.5-23.4 29.9-24.8 49c-0.2 1.9 1.2 3.6 3.1 3.7c.1 0 .2 0 .3 0c1.8 0 3.3-1.3 3.4-3.1c1.3-17.3 9.3-33.1 22.5-44.4c1.4-1.3 1.6-3.4 .4-4.9c-1.3-1.4-3.4-1.6-4.9-0.3Z" fill="#f8ca91"/><path class="st0" d="M37.3 79.7c1.4-1.2 1.6-3.4 .3-4.8c-1.2-1.5-3.4-1.6-4.8-0.4c-19.2 16.5-30.9 39.5-32.8 64.7c-0.1 1.9 1.3 3.6 3.2 3.7c.1 0 .2 0 .2 0c1.8 0 3.3-1.3 3.5-3.1c1.7-23.5 12.5-44.8 30.4-60.1Z" fill="#f8ca91"/><path class="st0" d="M677.6 39.1c-1.5-1.2-3.7-1-4.9 .5c-1.2 1.5-0.9 3.6 .5 4.8c13.5 11 21.9 26.5 23.7 43.8c.2 1.8 1.7 3.1 3.4 3.1c.1 0 .3 0 .4 0c1.9-0.2 3.2-1.9 3-3.8c-1.9-19.1-11.2-36.3-26.1-48.4Z" fill="#f8ca91"/><path class="st0" d="M688 26.4c18.2 14.8 29.6 35.8 32 59.2c.2 1.7 1.7 3 3.4 3c.1 0 .3 0 .4 0c1.9-0.2 3.2-1.9 3-3.7c-2.6-25.2-14.8-47.9-34.5-63.9c-1.5-1.2-3.6-0.9-4.8 .5c-1.2 1.5-1 3.7 .5 4.9Z" fill="#f8ca91"/><path class="st0" d="M84.6 415.4c-0.2-1.9-2-3.2-3.9-2.9c-1.8 .3-3.1 2-2.9 3.9c5.3 35.8 20 70 32 90.1c.6 1.1 1.8 1.7 2.9 1.7c.6 0 1.3-0.1 1.8-0.5c1.6-0.9 2.2-3.1 1.2-4.7c-11.6-19.5-25.9-52.8-31.1-87.6Z" fill="#f8ca91"/><path class="st0" d="M240.1 17c.6 0 1.2-0.1 1.8-0.5c14.8-9.1 32.2-11.9 49.1-7.8c1.9 .4 3.7-0.7 4.2-2.6c.4-1.8-0.7-3.7-2.6-4.1c-18.7-4.5-38-1.4-54.3 8.7c-1.7 1-2.2 3.1-1.2 4.7c.7 1.1 1.8 1.6 3 1.6Z" fill="#f8ca91"/><path class="st0" d="M538.4 538.8c-14 10.1-31.2 14.2-48.4 11.5c-1.9-0.3-3.6 1-3.9 2.8c-0.3 1.9 .9 3.7 2.8 4c3.9 .6 7.7 .9 11.5 .9c15.1 0 29.7-4.7 42.1-13.7c1.5-1.1 1.8-3.2 .7-4.8c-1.1-1.5-3.2-1.9-4.8-0.7Z" fill="#f8ca91"/><path class="st0" d="M726.3 293.5c-0.1-1.9-1.7-3.4-3.6-3.3c-1.9 .2-3.3 1.8-3.2 3.7c0 .8 4.6 81.4-11.1 142.8c-0.5 1.9 .6 3.8 2.4 4.2c.3 .1 .6 .1 .9 .1c1.5 0 2.9-1 3.3-2.5c16-62.5 11.4-144.2 11.3-145Z" fill="#f8ca91"/></g><path class="st1" d="M183.5 484.7c-4.7-1-9.3-1.9-13.9-2.9c-6.9-1.4-13.8-2.9-20.7-4.4c-28.1-70.7-49.1-139.1-59.4-204.5c5.1 70.3 22.4 142.7 49.9 217.6c.1 .5 .3 .9 .5 1.4c3.9 .7 7.9 1.5 11.9 2.2c113.2 20.9 227.3 28.6 339.6 22.6c-100 .1-203.4-11.1-307.9-32Z" fill="#fff7d9"/></g></svg>