<?xml version="1.0" encoding="UTF-8" standalone="no"?>
<!-- Created with Keyshape -->
<svg xmlns="http://www.w3.org/2000/svg" id="Mementum-Icon" width="44.5" height="30" viewBox="0 0 44.5 30" style="white-space: preserve-spaces;">
    <style>
@keyframes Dot-01-03_t { 0% { transform: translate(0.5px,0.5px); } 32% { transform: translate(35.4px,19.8px); } 52% { transform: translate(35.4px,0.5px); } 100% { transform: translate(35.4px,0.5px); } }
@keyframes Dot-01-03_v { 0% { visibility: visible; animation-timing-function: steps(1); } 52% { visibility: hidden; animation-timing-function: steps(1); } 100% { visibility: hidden; animation-timing-function: steps(1); } }
@keyframes Dot-01-02_t { 0% { transform: translate(5.49px,3.26px); } 28% { transform: translate(35.4px,19.8px); } 48% { transform: translate(35.4px,0.5px); } 100% { transform: translate(35.4px,0.5px); } }
@keyframes Dot-01-02_v { 0% { visibility: visible; animation-timing-function: steps(1); } 48% { visibility: hidden; animation-timing-function: steps(1); } 100% { visibility: hidden; animation-timing-function: steps(1); } }
@keyframes Dot-01-01_t { 0% { transform: translate(10.47px,6.01px); } 24% { transform: translate(35.4px,19.8px); } 44% { transform: translate(35.4px,0.5px); } 100% { transform: translate(35.4px,0.5px); } }
@keyframes Dot-01-01_v { 0% { visibility: visible; animation-timing-function: steps(1); } 44% { visibility: hidden; animation-timing-function: steps(1); } 100% { visibility: hidden; animation-timing-function: steps(1); } }
@keyframes Dot-01-00_t { 0% { transform: translate(14.62px,8.31px); } 20% { transform: translate(35.545002px,19.924286px); } 40% { transform: translate(35.4px,0.5px); } 100% { transform: translate(35.4px,0.5px); } }
@keyframes Dot-01-00_v { 0% { visibility: visible; animation-timing-function: steps(1); } 40% { visibility: hidden; animation-timing-function: steps(1); } 100% { visibility: hidden; animation-timing-function: steps(1); } }
@keyframes Dot-03-03_t { 0% { transform: translate(0.5px,0.5px); } 100% { transform: translate(0.5px,0.5px); } }
@keyframes Dot-03-03_v { 0% { visibility: hidden; animation-timing-function: steps(1); } 100% { visibility: visible; animation-timing-function: steps(1); } }
@keyframes Dot-03-02_t { 0% { transform: translate(0.5px,0.5px); } 96% { transform: translate(0.5px,0.5px); } 100% { transform: translate(5.485715px,3.257142px); } }
@keyframes Dot-03-02_v { 0% { visibility: hidden; animation-timing-function: steps(1); } 96% { visibility: visible; animation-timing-function: steps(1); } 100% { visibility: visible; animation-timing-function: steps(1); } }
@keyframes Dot-03-01_t { 0% { transform: translate(0.5px,0.5px); } 92% { transform: translate(0.5px,0.5px); } 100% { transform: translate(10.47143px,6.014285px); } }
@keyframes Dot-03-01_v { 0% { visibility: hidden; animation-timing-function: steps(1); } 92% { visibility: visible; animation-timing-function: steps(1); } 100% { visibility: visible; animation-timing-function: steps(1); } }
@keyframes Dot-03-00_t { 0% { transform: translate(0.5px,0.5px); } 88% { transform: translate(0.5px,0.5px); } 100% { transform: translate(14.62px,8.31px); } }
@keyframes Dot-03-00_v { 0% { visibility: hidden; animation-timing-function: steps(1); } 88% { visibility: visible; animation-timing-function: steps(1); } 100% { visibility: visible; animation-timing-function: steps(1); } }
@keyframes Dot-02-03_t { 0% { transform: translate(35.4px,0.5px); } 4% { transform: translate(35.4px,0.5px); } 52% { transform: translate(35.4px,0.5px); } 80% { transform: translate(0.5px,19.8px); } 100% { transform: translate(0.5px,0.5px); } }
@keyframes Dot-02-03_v { 0% { visibility: hidden; animation-timing-function: steps(1); } 48% { visibility: visible; animation-timing-function: steps(1); } 80% { visibility: visible; animation-timing-function: steps(1); } 100% { visibility: hidden; animation-timing-function: steps(1); } }
@keyframes Dot-02-02_t { 0% { transform: translate(35.4px,0.5px); } 4% { transform: translate(35.4px,0.5px); } 48% { transform: translate(35.4px,0.5px); } 76% { transform: translate(0.5px,19.8px); } 96% { transform: translate(0.5px,0.5px); } 100% { transform: translate(0.5px,0.5px); } }
@keyframes Dot-02-02_v { 0% { visibility: hidden; animation-timing-function: steps(1); } 4% { visibility: hidden; animation-timing-function: steps(1); } 48% { visibility: visible; animation-timing-function: steps(1); } 76% { visibility: visible; animation-timing-function: steps(1); } 96% { visibility: hidden; animation-timing-function: steps(1); } 100% { visibility: hidden; animation-timing-function: steps(1); } }
@keyframes Dot-02-01_t { 0% { transform: translate(35.4px,0.5px); } 4% { transform: translate(35.4px,0.5px); } 44% { transform: translate(35.4px,0.5px); } 72% { transform: translate(0.5px,19.8px); } 92% { transform: translate(0.5px,0.5px); } 100% { transform: translate(0.5px,0.5px); } }
@keyframes Dot-02-01_v { 0% { visibility: hidden; animation-timing-function: steps(1); } 4% { visibility: hidden; animation-timing-function: steps(1); } 44% { visibility: visible; animation-timing-function: steps(1); } 72% { visibility: visible; animation-timing-function: steps(1); } 92% { visibility: hidden; animation-timing-function: steps(1); } 100% { visibility: hidden; animation-timing-function: steps(1); } }
@keyframes Dot-02-00_t { 0% { transform: translate(35.4px,0.5px); } 40% { transform: translate(35.4px,0.5px); } 68% { transform: translate(0.5px,19.8px); } 88% { transform: translate(0.5px,0.5px); } 100% { transform: translate(0.5px,0.5px); } }
@keyframes Dot-02-00_v { 0% { visibility: hidden; animation-timing-function: steps(1); } 40% { visibility: visible; animation-timing-function: steps(1); } 68% { visibility: visible; animation-timing-function: steps(1); } 88% { visibility: hidden; animation-timing-function: steps(1); } 100% { visibility: hidden; animation-timing-function: steps(1); } }
    </style>
    <path id="Fill" class="st0" d="M39.7,0.5L22.2,10.2L4.8,0.5L0.5,2.9L0.5,27.1L4.8,29.5L22.2,19.8L39.7,29.5L44,27.1L44,2.9L39.7,0.5ZM9.2,17.4L9.2,12.6L13.6,15L9.2,17.4ZM35.3,17.4L31,15L35.3,12.6L35.3,17.4Z" fill="#FFFFFF" transform="translate(22.25,15) translate(-22.25,-15)"/>
    <path id="Dot-01-03" class="st0" d="M8.6,7.3L4.3,9.7L0,7.3L0,2.4L4.3,0L8.6,2.4Z" fill="#009bde" visibility="visible" opacity="0.25" transform="translate(4.8,5.35) translate(-4.3,-4.85)" style="animation: 2.5s linear infinite both Dot-01-03_t, 2.5s linear infinite forwards Dot-01-03_v;"/>
    <path id="Dot-01-02" class="st0" d="M8.6,7.3L4.3,9.7L0,7.3L0,2.4L4.3,0L8.6,2.4Z" fill="#009bde" visibility="visible" opacity="0.5" transform="translate(9.79,8.11) translate(-4.3,-4.85)" style="animation: 2.5s linear infinite both Dot-01-02_t, 2.5s linear infinite forwards Dot-01-02_v;"/>
    <path id="Dot-01-01" class="st0" d="M8.6,7.3L4.3,9.7L0,7.3L0,2.4L4.3,0L8.6,2.4Z" fill="#009bde" visibility="visible" opacity="0.75" transform="translate(14.77,10.86) translate(-4.3,-4.85)" style="animation: 2.5s linear infinite both Dot-01-01_t, 2.5s linear infinite forwards Dot-01-01_v;"/>
    <path id="Dot-01-00" class="st0" d="M8.6,7.3L4.3,9.7L0,7.3L0,2.4L4.3,0L8.6,2.4Z" fill="#009bde" visibility="visible" transform="translate(18.92,13.16) translate(-4.3,-4.85)" style="animation: 2.5s linear infinite both Dot-01-00_t, 2.5s linear infinite forwards Dot-01-00_v;"/>
    <path id="Dot-03-03" class="st0" d="M8.6,7.3L4.3,9.7L0,7.3L0,2.4L4.3,0L8.6,2.4Z" fill="#009bde" visibility="hidden" opacity="0.25" transform="translate(4.8,5.35) translate(-4.3,-4.85)" style="animation: 2.5s linear infinite both Dot-03-03_t, 2.5s linear infinite forwards Dot-03-03_v;"/>
    <path id="Dot-03-02" class="st0" d="M8.6,7.3L4.3,9.7L0,7.3L0,2.4L4.3,0L8.6,2.4Z" fill="#009bde" visibility="hidden" opacity="0.5" transform="translate(4.8,5.35) translate(-4.3,-4.85)" style="animation: 2.5s linear infinite both Dot-03-02_t, 2.5s linear infinite forwards Dot-03-02_v;"/>
    <path id="Dot-03-01" class="st0" d="M8.6,7.3L4.3,9.7L0,7.3L0,2.4L4.3,0L8.6,2.4Z" fill="#009bde" visibility="hidden" opacity="0.75" transform="translate(4.8,5.35) translate(-4.3,-4.85)" style="animation: 2.5s linear infinite both Dot-03-01_t, 2.5s linear infinite forwards Dot-03-01_v;"/>
    <path id="Dot-03-00" class="st0" d="M8.6,7.3L4.3,9.7L0,7.3L0,2.4L4.3,0L8.6,2.4Z" fill="#009bde" visibility="hidden" transform="translate(4.8,5.35) translate(-4.3,-4.85)" style="animation: 2.5s linear infinite both Dot-03-00_t, 2.5s linear infinite forwards Dot-03-00_v;"/>
    <path id="Bridge" class="st0" d="M24.5,9L12.5,15.6L12.4,20.4L12.4,25.3L20,21L32.6,14.1L32.6,9.3L32.6,4.4Z" fill="#FFFFFF" transform="translate(22.5,14.85) translate(-22.5,-14.85)"/>
    <path id="Dot-02-03" class="st0" d="M8.6,7.3L4.3,9.7L0,7.3L0,2.4L4.3,0L8.6,2.4Z" fill="#009bde" visibility="hidden" opacity="0.25" transform="translate(39.7,5.35) translate(-4.3,-4.85)" style="animation: 2.5s linear infinite both Dot-02-03_t, 2.5s linear infinite forwards Dot-02-03_v;"/>
    <path id="Dot-02-02" class="st0" d="M8.6,7.3L4.3,9.7L0,7.3L0,2.4L4.3,0L8.6,2.4Z" fill="#009bde" visibility="hidden" opacity="0.5" transform="translate(39.7,5.35) translate(-4.3,-4.85)" style="animation: 2.5s linear infinite both Dot-02-02_t, 2.5s linear infinite forwards Dot-02-02_v;"/>
    <path id="Dot-02-01" class="st0" d="M8.6,7.3L4.3,9.7L0,7.3L0,2.4L4.3,0L8.6,2.4Z" fill="#009bde" visibility="hidden" opacity="0.75" transform="translate(39.7,5.35) translate(-4.3,-4.85)" style="animation: 2.5s linear infinite both Dot-02-01_t, 2.5s linear infinite forwards Dot-02-01_v;"/>
    <path id="Dot-02-00" class="st0" d="M8.6,7.3L4.3,9.7L0,7.3L0,2.4L4.3,0L8.6,2.4Z" fill="#009bde" visibility="hidden" transform="translate(39.7,5.35) translate(-4.3,-4.85)" style="animation: 2.5s linear infinite both Dot-02-00_t, 2.5s linear infinite forwards Dot-02-00_v;"/>
    <g id="Lines" transform="translate(22.25,15) translate(-21.75,-14.5)">
        <path class="st0" d="M22.2,19.8L39.7,29.5L44,27.1L26.6,17.4" stroke-linecap="round" stroke-linejoin="round" stroke="#000000" stroke-miterlimit="10" fill="none" transform="translate(32.6,22.95) translate(-33.1,-23.45)"/>
        <path class="st0" d="M31,15L39.7,19.8L39.7,0.5L44,2.9L44,27.1" stroke-linecap="round" stroke-linejoin="round" stroke="#000000" stroke-miterlimit="10" fill="none" transform="translate(37,13.3) translate(-37.5,-13.8)"/>
        <path class="st0" d="M9.2,17.4L39.7,0.5" stroke-linecap="round" stroke-linejoin="round" stroke="#000000" stroke-miterlimit="10" fill="none" transform="translate(23.95,8.45) translate(-24.45,-8.95)"/>
        <path class="st0" d="M35.3,17.4L35.3,7.8L9.2,22.2" stroke-linecap="round" stroke-linejoin="round" stroke="#000000" stroke-miterlimit="10" fill="none" transform="translate(21.75,14.5) translate(-22.25,-15)"/>
        <path class="st0" d="M9.2,12.6L9.2,22.2" stroke-linecap="round" stroke-linejoin="round" stroke="#000000" stroke-miterlimit="10" fill="none" transform="translate(8.7,16.9) translate(-9.2,-17.4)"/>
        <path class="st0" d="M35.3,12.6L4.8,29.5" stroke-linecap="round" stroke-linejoin="round" stroke="#000000" stroke-miterlimit="10" fill="none" transform="translate(19.55,20.55) translate(-20.05,-21.05)"/>
        <path class="st0" d="M13.6,15L4.8,10.2L4.8,29.5L0.5,27.1L0.5,27.1L0.5,2.9" stroke-linecap="round" stroke-linejoin="round" stroke="#000000" stroke-miterlimit="10" fill="none" transform="translate(6.55,15.7) translate(-7.05,-16.2)"/>
        <path class="st0" d="M0.5,2.9L17.9,12.6" stroke-linecap="round" stroke-linejoin="round" stroke="#000000" stroke-miterlimit="10" fill="none" transform="translate(8.7,7.25) translate(-9.2,-7.75)"/>
        <path class="st0" d="M22.2,10.2L4.8,0.5L0.5,2.9" stroke-linecap="round" stroke-linejoin="round" stroke="#000000" stroke-miterlimit="10" fill="none" transform="translate(10.85,4.85) translate(-11.35,-5.35)"/>
    </g>
</svg>
